<?xml version="1.0" standalone="no"?>
<!DOCTYPE svg PUBLIC "-//W3C//DTD SVG 1.1//EN" "http://www.w3.org/Graphics/SVG/1.1/DTD/svg11.dtd" >
<svg>
<metadata>
Created by FontForge 20090622 at Tue Aug 20 12:40:00 2019
 By deploy user
(c) Copyright 2005 by Tong Duc Thinh. All Rights Reserved
</metadata>
<defs>
<font id="SFUVAGRounded" horiz-adv-x="500" >
  <font-face 
    font-family="SFU VAGRounded"
    font-weight="400"
    font-stretch="normal"
    units-per-em="1000"
    panose-1="0 0 4 0 0 0 0 0 0 0"
    ascent="800"
    descent="-200"
    x-height="507"
    cap-height="677"
    bbox="-98 -250 1175 1124"
    underline-thickness="95"
    underline-position="-54"
    unicode-range="U+0020-U+F002"
  />
<missing-glyph 
d="M63 0v900h375v-900h-375zM125 63h250v775h-250v-775z" />
    <glyph glyph-name=".notdef" 
d="M63 0v900h375v-900h-375zM125 63h250v775h-250v-775z" />
    <glyph glyph-name=".null" horiz-adv-x="0" 
 />
    <glyph glyph-name="glyph2" horiz-adv-x="300" 
 />
    <glyph glyph-name="space" unicode=" " horiz-adv-x="300" 
 />
    <glyph glyph-name="exclam" unicode="!" horiz-adv-x="257" 
d="M209 280q0 -35 -19.5 -58.5t-53.5 -23.5q-35 0 -54.5 23.5t-19.5 58.5v322q0 35 19.5 58.5t53.5 23.5q35 0 54.5 -23.5t19.5 -58.5v-322zM210 65q0 -34 -23.5 -58t-57.5 -24t-58 24t-24 58t24 57.5t58 23.5t57.5 -23.5t23.5 -57.5z" />
    <glyph glyph-name="quotedbl" unicode="&#x22;" horiz-adv-x="443" 
d="M417 667l-30 -268h-114l-30 268h174zM200 667l-30 -268h-114l-30 268h174z" />
    <glyph glyph-name="numbersign" unicode="#" horiz-adv-x="688" 
d="M612 420q0 -33 -36 -33h-84l-45 -111h60q35 0 35 -31q0 -32 -35 -32h-85l-39 -96q-10 -24 -31 -24q-32 0 -32 31q0 8 3 17l3 6l26 66h-111l-36 -89q-13 -31 -35 -31q-13 0 -23 9.5t-10 22.5q0 9 4 17l3 6l25 65h-58q-35 0 -35 32q0 31 35 31h86l45 111h-60q-36 0 -36 33
q0 32 36 32h85l39 94q10 24 31 24q32 0 32 -31q0 -9 -4 -17l-2 -7l-27 -63h113l38 94q10 24 32 24q13 0 22.5 -9.5t9.5 -22.5q0 -9 -3 -16l-3 -7l-25 -63h56q36 0 36 -32zM423 387h-112l-45 -111h112z" />
    <glyph glyph-name="dollar" unicode="$" horiz-adv-x="533" 
d="M493 212q0 -172 -184 -215v-63q0 -23 -13 -38.5t-35 -15.5q-49 0 -49 54v58q-68 5 -116 25q-71 29 -71 83q0 29 20 50.5t49 21.5q15 0 30 -5l53 -18q41 -14 79 -14q32 0 55.5 18t23.5 49q0 36 -47 58q-16 7 -77 24q-93 25 -132 58q-53 44 -53 128q0 82 54 137
q49 51 132 69v58q0 23 13 38.5t35 15.5q49 0 49 -54v-57q140 -23 140 -93q0 -30 -20 -51t-50 -21q-19 0 -65 15q-31 10 -53 10q-27 0 -49 -14q-26 -16 -26 -42q0 -36 61 -52q119 -32 168 -66q78 -53 78 -151z" />
    <glyph glyph-name="percent" unicode="%" horiz-adv-x="800" 
d="M786 213q0 -83 -35 -144q-43 -73 -120 -73q-79 0 -121 73q-34 59 -34 144t34 145q42 73 121 73q77 0 120 -74q35 -61 35 -144zM569 638q0 -11 -5 -24l-4 -10l-234 -587q-14 -35 -46 -35q-19 0 -33 13t-14 32q0 13 9 35l121 299l112 288q10 35 47 35q19 0 33 -13.5
t14 -32.5zM326 467q0 -83 -35 -144q-43 -74 -120 -74q-79 0 -121 73q-34 60 -34 145t34 145q42 73 121 73q77 0 120 -74q35 -61 35 -144zM687 215q0 124 -56 124t-56 -125q0 -124 56 -124t56 125zM227 468q0 125 -56 125t-56 -126q0 -124 56 -124t56 125z" />
    <glyph glyph-name="ampersand" unicode="&#x26;" horiz-adv-x="669" 
d="M641 56q0 -26 -21.5 -47t-47.5 -21q-31 0 -58 27l-11 11l-45 47q-109 -90 -217 -90q-93 0 -157 55q-67 57 -67 149q0 68 41 123q32 42 99 87q-59 64 -59 135q0 74 70 116q59 36 138 36t134 -37q63 -42 63 -117q0 -107 -129 -165l96 -102l55 58q21 22 48 22t44.5 -19.5
t17.5 -46.5q0 -28 -23 -54l-24 -27l-26 -28l42 -43q37 -38 37 -69zM363 516q0 22 -17 36t-40 14q-22 0 -38.5 -13.5t-16.5 -34.5q0 -19 18 -40l28 -33q66 33 66 71zM369 168l-133 139q-36 -25 -51 -43q-22 -26 -22 -60q0 -39 26.5 -63t65.5 -24q46 0 114 51z" />
    <glyph glyph-name="quotesingle" unicode="'" horiz-adv-x="309" 
d="M250 647q0 -17 -15 -36l-145 -179q-23 -28 -38 -28q-19 0 -19 19q0 12 13 33l5 8l109 190q17 30 44 30q16 0 31 -10.5t15 -26.5z" />
    <glyph glyph-name="parenleft" unicode="(" horiz-adv-x="233" 
d="M219 -80q0 -21 -19.5 -37t-41.5 -16q-41 0 -67 58q-66 149 -66 351q0 216 71 362q22 46 61 46q22 0 42 -15.5t20 -37.5q0 -13 -8 -35q-57 -156 -57 -320q0 -167 57 -322q8 -22 8 -34z" />
    <glyph glyph-name="parenright" unicode=")" horiz-adv-x="233" 
d="M208 276q0 -216 -71 -363q-22 -46 -61 -46q-22 0 -42 15.5t-20 37.5q0 12 8 34q57 155 57 322q0 164 -57 320q-8 22 -8 35q0 21 19.5 37t41.5 16q42 0 67 -58q66 -151 66 -350z" />
    <glyph glyph-name="asterisk" unicode="*" horiz-adv-x="386" 
d="M352 447q0 -22 -14.5 -38.5t-36.5 -16.5q-16 0 -26 8l-40 33l6 -44q1 -4 1 -13q0 -49 -49 -49q-50 0 -50 49q0 7 1 13l7 44l-41 -33q-10 -8 -26 -8q-22 0 -36.5 16.5t-14.5 38.5q0 32 34 44l43 15l-49 20q-25 10 -25 39q0 23 15 40t38 17q15 0 27 -11l35 -33l-5 47
q-1 9 -1 19q0 40 47 40q49 0 49 -40q0 5 -2 -19l-4 -47l35 33q12 11 27 11q23 0 38 -17.5t15 -40.5q0 -27 -26 -38l-49 -20l43 -15q34 -12 34 -44z" />
    <glyph glyph-name="plus" unicode="+" 
d="M492 323h-203v-201h-78v201h-202v75h202v200h78v-200h203v-75z" />
    <glyph glyph-name="comma" unicode="," horiz-adv-x="267" 
d="M241 77q0 -18 -8 -32l-88 -156q-20 -35 -59 -35q-30 0 -51.5 19.5t-21.5 49.5q0 18 9 34l90 156q19 33 58 33q29 0 50 -20t21 -49z" />
    <glyph glyph-name="hyphen" unicode="-" horiz-adv-x="313" 
d="M280 276q0 -30 -20 -46.5t-50 -16.5h-107q-30 0 -50 16.5t-20 46.5q0 29 20 45.5t50 16.5h107q30 0 50 -16.5t20 -45.5z" />
    <glyph glyph-name="hyphen" unicode="&#x2010;" horiz-adv-x="313" 
d="M280 276q0 -30 -20 -46.5t-50 -16.5h-107q-30 0 -50 16.5t-20 46.5q0 29 20 45.5t50 16.5h107q30 0 50 -16.5t20 -45.5z" />
    <glyph glyph-name="period" unicode="." horiz-adv-x="267" 
d="M215 65q0 -34 -23.5 -58t-57.5 -24t-58 24t-24 58t24 57.5t58 23.5t57.5 -23.5t23.5 -57.5z" />
    <glyph glyph-name="slash" unicode="/" horiz-adv-x="447" 
d="M427 639q0 -13 -6 -27l-5 -12l-286 -690q-19 -47 -51 -47q-18 0 -32.5 13t-14.5 31q0 12 11 39l291 703q14 35 46 35q19 0 33 -13t14 -32z" />
    <glyph glyph-name="zero" unicode="0" horiz-adv-x="533" 
d="M514 334q0 -131 -57 -231q-68 -120 -190 -120q-125 0 -192 118q-54 96 -54 232t54 232q67 119 192 119q122 0 190 -120q57 -99 57 -230zM357 334q0 65 -16 120q-24 80 -74 80q-52 0 -75 -80q-14 -52 -14 -121q0 -71 15 -121q22 -79 76 -79q48 0 72 82q16 56 16 119z" />
    <glyph glyph-name="one" unicode="1" horiz-adv-x="533" 
d="M366 74q0 -36 -20.5 -60t-55.5 -24t-55.5 24t-20.5 60v458h-46q-33 0 -54 18t-21 50t21.5 49.5t53.5 17.5h117q81 0 81 -82v-511z" />
    <glyph glyph-name="two" unicode="2" horiz-adv-x="533" 
d="M498 68q0 -32 -21 -50t-54 -18h-302q-85 0 -85 63q0 32 41 75q4 4 67 76l86 98q97 111 97 168q0 28 -18 46.5t-46 18.5q-54 0 -73 -68q-13 -46 -21 -59q-17 -26 -52 -26q-33 0 -52 21t-19 54q0 90 67.5 153.5t157.5 63.5q89 0 150 -55q63 -58 63 -146q0 -85 -78 -191
q-47 -63 -143 -157h160q32 0 53.5 -17.5t21.5 -49.5z" />
    <glyph glyph-name="three" unicode="3" horiz-adv-x="533" 
d="M500 200q0 -98 -68.5 -157.5t-167.5 -59.5q-85 0 -156 49q-79 55 -79 137q0 27 22.5 47t49.5 20q37 0 56 -32l17 -29q30 -51 84 -51q38 0 61.5 24t23.5 62q0 51 -42 66q-26 5 -77 17q-42 11 -42 60q0 33 21 48q12 8 53 20q64 18 64 67q0 26 -17.5 41t-43.5 15
q-40 0 -79 -44q-35 -40 -66 -40q-27 0 -46 19.5t-19 46.5q0 70 76 117q65 41 140 41q83 0 140.5 -49t57.5 -131t-74 -135q111 -63 111 -169z" />
    <glyph glyph-name="four" unicode="4" horiz-adv-x="533" 
d="M517 212q0 -30 -23 -49.5t-54 -19.5h-9v-74q0 -34 -19 -56.5t-52 -22.5t-52 22.5t-19 56.5v74h-194q-81 0 -81 63q0 17 8 32l197 366q39 73 109 73q46 0 74.5 -33t28.5 -80v-288h16q30 0 50 -17t20 -47zM289 276v211l-110 -211h110z" />
    <glyph glyph-name="five" unicode="5" horiz-adv-x="533" 
d="M499 242q0 -113 -65 -185q-68 -74 -180 -74q-68 0 -137 32q-84 39 -84 99q0 29 19.5 51t48.5 22q20 0 44 -14l32 -19q35 -21 76 -21t66 34q23 30 23 73q0 40 -20 66q-23 28 -62 28q-27 0 -48 -10l-33 -16q-14 -7 -32 -7q-26 0 -44 16.5t-18 41.5q0 14 1 22l25 212
q9 74 71 74h235q32 0 53 -18t21 -49q0 -32 -21 -50t-53 -18h-172l-10 -85q37 10 66 10q92 0 147 -62q51 -59 51 -153z" />
    <glyph glyph-name="six" unicode="6" horiz-adv-x="533" 
d="M516 219q0 -105 -69 -170.5t-174 -65.5q-101 0 -170 62q-72 65 -72 165q0 145 137 323q57 74 72 90q55 61 93 61q27 0 49 -19t22 -46q0 -32 -30 -65l-32 -35q-31 -33 -78 -97q31 9 53 9q86 0 144 -63q55 -62 55 -149zM359 219q0 36 -25 61t-61 25q-35 0 -60 -25.5
t-25 -60.5t25 -60.5t60 -25.5q36 0 61 25t25 61z" />
    <glyph glyph-name="seven" unicode="7" horiz-adv-x="533" 
d="M490 591q0 -14 -13 -44l-217 -497q-28 -63 -77 -63q-28 0 -53 20.5t-25 48.5q0 8 3 24l5 15l199 437h-204q-33 0 -54 18t-21 50t21.5 49.5t53.5 17.5h299q36 0 59.5 -20t23.5 -56z" />
    <glyph glyph-name="eight" unicode="8" horiz-adv-x="533" 
d="M512 201q0 -100 -74 -161q-69 -57 -171 -57q-103 0 -172 57q-74 60 -74 161q0 103 93 165q-62 59 -62 130q0 88 65 140q60 48 150 48t150 -48q65 -52 65 -140q0 -71 -63 -130q93 -62 93 -165zM334 487q0 28 -19.5 47.5t-47.5 19.5t-47.5 -19.5t-19.5 -47.5t19.5 -48
t47.5 -20t47.5 20t19.5 48zM354 221q0 38 -25 63t-63 25t-63 -25t-25 -63t25 -63.5t63 -25.5t63 25.5t25 63.5z" />
    <glyph glyph-name="nine" unicode="9" horiz-adv-x="533" 
d="M509 457q0 -145 -137 -323q-57 -74 -72 -90q-55 -61 -93 -61q-27 0 -49 19t-22 46q0 32 30 65l32 35q31 33 78 97q-31 -9 -54 -9q-86 0 -143 64q-55 61 -55 148q0 105 69 170.5t174 65.5q101 0 170 -62q72 -65 72 -165zM352 448q0 35 -25 60.5t-60 25.5q-36 0 -61 -25
t-25 -61t25 -61t61 -25q35 0 60 25.5t25 60.5z" />
    <glyph glyph-name="colon" unicode=":" horiz-adv-x="267" 
d="M216 355q0 -34 -24 -58t-58 -24t-58 24t-24 58t24 58t58 24t58 -24t24 -58zM215 65q0 -34 -23.5 -58t-57.5 -24t-58 24t-24 58t24 57.5t58 23.5t57.5 -23.5t23.5 -57.5z" />
    <glyph glyph-name="semicolon" unicode=";" horiz-adv-x="267" 
d="M238 355q0 -34 -23.5 -58t-57.5 -24t-58 24t-24 58t24 57.5t58 23.5t57.5 -23.5t23.5 -57.5zM241 77q0 -18 -8 -32l-88 -156q-20 -35 -59 -35q-30 0 -51.5 19.5t-21.5 49.5q0 18 9 34l90 156q19 33 58 33q29 0 50 -20t21 -49z" />
    <glyph glyph-name="less" unicode="&#x3c;" 
d="M466 40l-433 231v134l433 230v-159l-264 -139l264 -139v-158z" />
    <glyph glyph-name="equal" unicode="=" 
d="M491 399h-483v73h483v-73zM491 248h-483v73h483v-73z" />
    <glyph glyph-name="greater" unicode="&#x3e;" 
d="M466 270l-433 -230v159l264 139l-264 139v158l433 -231v-134z" />
    <glyph glyph-name="question" unicode="?" horiz-adv-x="483" 
d="M466 472q0 -76 -45 -127t-121 -68v-8q0 -37 -19 -61.5t-55 -24.5q-34 0 -53.5 23.5t-19.5 58.5v63q0 33 15 47q13 11 48 17q85 14 85 77q0 30 -21.5 48t-51.5 18q-37 0 -74.5 -44.5t-67.5 -44.5q-29 0 -49.5 20t-20.5 49q0 74 73 124q66 45 143 45q98 0 164 -56
q70 -60 70 -156zM306 65q0 -34 -23.5 -58t-57.5 -24t-58 24t-24 58t24 57.5t58 23.5t57.5 -23.5t23.5 -57.5z" />
    <glyph glyph-name="at" unicode="@" horiz-adv-x="674" 
d="M656 384q0 -88 -62 -159q-64 -74 -151 -74q-51 0 -70 42q-57 -44 -104 -44q-54 0 -86.5 37.5t-32.5 92.5q0 79 55 148q58 74 136 74q62 0 95 -50l13 34h79l-78 -236q-9 -27 -9 -36q0 -22 25 -22q58 0 101 68q39 60 39 121q0 100 -77 168q-73 64 -175 64
q-121 0 -201.5 -82.5t-80.5 -203.5q0 -120 81.5 -203t201.5 -83q70 0 133 35.5t101 94.5h57q-39 -82 -120.5 -130.5t-173.5 -48.5q-140 0 -237 97t-97 237q0 141 97.5 237.5t238.5 96.5q121 0 209 -76q93 -80 93 -199zM411 404q0 21 -12.5 37t-33.5 16q-53 0 -94 -79
q-34 -68 -34 -127q0 -62 48 -62q58 0 93 101l22 63q11 32 11 51z" />
    <glyph glyph-name="A" unicode="A" horiz-adv-x="607" 
d="M604 63q0 -32 -22.5 -53.5t-54.5 -21.5q-54 0 -74 65l-5 16l-16 58h-256l-16 -58q-22 -81 -79 -81q-31 0 -54 21.5t-23 52.5q0 18 7 37l6 16l174 480q31 85 113 85t113 -85l180 -496q7 -19 7 -36zM386 264l-81 254l-81 -254h162z" />
    <glyph glyph-name="B" unicode="B" horiz-adv-x="568" 
d="M545 198q0 -86 -59.5 -142t-145.5 -56h-201q-92 0 -92 92v483q0 92 92 92h153q85 0 137 -40q57 -45 57 -127q0 -84 -79 -133q138 -40 138 -169zM341 477q0 27 -21.5 42t-49.5 15h-70v-121h76q29 0 47 17.5t18 46.5zM386 203q0 73 -84 73h-102v-143h106q80 0 80 70z" />
    <glyph glyph-name="C" unicode="C" horiz-adv-x="572" 
d="M552 95q0 -59 -77 -90q-56 -22 -126 -22q-153 0 -244 100q-89 97 -89 251q0 152 90 251t241 99q70 0 124 -21q75 -28 75 -87q0 -28 -17 -48t-45 -20q-18 0 -62.5 16.5t-73.5 16.5q-86 0 -130 -64q-38 -55 -38 -145q0 -91 39 -145q45 -61 133 -61q33 0 58 11l46 20
q18 8 34 8q27 0 44.5 -21.5t17.5 -48.5z" />
    <glyph glyph-name="D" unicode="D" horiz-adv-x="637" 
d="M620 330q0 -147 -83 -238q-86 -94 -231 -92l-168 2q-91 1 -91 93v480q0 92 92 92h144q158 0 247.5 -89.5t89.5 -247.5zM457 334q0 200 -199 200h-58v-401h76q91 0 138 56q43 52 43 145z" />
    <glyph glyph-name="E" unicode="E" horiz-adv-x="461" 
d="M434 69q0 -32 -21.5 -50.5t-54.5 -18.5h-219q-92 0 -92 93v481q0 93 92 93h219q32 0 54 -18t22 -50t-21.5 -50.5t-54.5 -18.5h-158v-127h143q32 0 54 -18t22 -50t-21.5 -50.5t-54.5 -18.5h-143v-129h158q32 0 54 -18t22 -50z" />
    <glyph glyph-name="F" unicode="F" horiz-adv-x="457" 
d="M437 599q0 -32 -21.5 -50.5t-54.5 -18.5h-161v-133h136q32 0 54 -18t22 -50t-21.5 -50.5t-54.5 -18.5h-136v-185q0 -36 -20 -60.5t-56 -24.5t-56.5 24.5t-20.5 60.5v499q0 93 92 93h222q32 0 54 -18t22 -50z" />
    <glyph glyph-name="G" unicode="G" horiz-adv-x="670" 
d="M653 299q0 -136 -85.5 -226t-220.5 -90q-150 0 -240.5 98t-90.5 249q0 154 94.5 254t247.5 100q75 0 153 -32q97 -41 97 -106q0 -27 -20.5 -47.5t-47.5 -20.5q-24 0 -54 19l-39 25q-39 25 -97 25q-83 0 -130 -68q-41 -59 -41 -146q0 -90 41 -148q47 -65 133 -65
q118 0 143 138h-89q-33 0 -54.5 18.5t-21.5 50.5t22 50t54 18h164q82 0 82 -96z" />
    <glyph glyph-name="H" unicode="H" horiz-adv-x="683" 
d="M636 75q0 -36 -20 -60.5t-56 -24.5t-56.5 24.5t-20.5 60.5v198h-284v-198q0 -36 -20 -60.5t-56 -24.5t-56.5 24.5t-20.5 60.5v517q0 36 20.5 60.5t56.5 24.5t56 -24.5t20 -60.5v-182h284v182q0 36 20.5 60.5t56.5 24.5t56 -24.5t20 -60.5v-517z" />
    <glyph glyph-name="I" unicode="I" horiz-adv-x="246" 
d="M199 75q0 -36 -20 -60.5t-56 -24.5t-56.5 24.5t-20.5 60.5v517q0 37 20.5 61t56.5 24t56 -24.5t20 -60.5v-517z" />
    <glyph glyph-name="J" unicode="J" horiz-adv-x="405" 
d="M359 212q0 -229 -195 -229q-60 0 -111 23q-66 29 -66 82q0 31 20.5 51.5t51.5 20.5q17 0 47.5 -17t47.5 -17q52 0 52 86v380q0 37 20.5 61t56.5 24t56 -24.5t20 -60.5v-380z" />
    <glyph glyph-name="K" unicode="K" horiz-adv-x="600" 
d="M592 62q0 -32 -19.5 -52t-51.5 -20q-39 0 -72 36l-13 14l-236 259v-224q0 -36 -20 -60.5t-56 -24.5t-56.5 24.5t-20.5 60.5v517q0 37 20.5 61t56.5 24t56 -24.5t20 -60.5v-188l210 235q34 38 70 38q31 0 51 -21.5t20 -52.5q0 -37 -31 -68l-14 -14l-161 -163l217 -229
q30 -32 30 -67z" />
    <glyph glyph-name="L" unicode="L" horiz-adv-x="414" 
d="M434 69q0 -32 -21.5 -50.5t-54.5 -18.5h-215q-96 0 -96 97v495q0 37 20.5 61t56.5 24t56 -24.5t20 -60.5v-455h158q32 0 54 -18t22 -50z" />
    <glyph glyph-name="M" unicode="M" horiz-adv-x="814" 
d="M801 63q0 -31 -23 -52t-54 -21q-64 0 -77 73l-3 17l-51 314l-95 -313q-15 -49 -27 -65q-20 -26 -62 -26q-63 0 -86 73l-106 331l-52 -331q-11 -73 -77 -73q-31 0 -53.5 21t-22.5 52q0 17 4 41l80 486q14 87 102 87q74 0 95 -65l113 -344l103 329q25 80 101 80
q36 0 65.5 -22.5t35.5 -57.5l85 -491q5 -29 5 -43z" />
    <glyph glyph-name="N" unicode="N" horiz-adv-x="681" 
d="M634 78q0 -88 -73 -88q-37 0 -59 29l-20 26l-282 359v-329q0 -36 -20 -60.5t-56 -24.5t-56.5 24.5t-20.5 60.5v524q0 35 20.5 56.5t54.5 21.5q37 0 64 -34l295 -371v320q0 37 20.5 61t56.5 24t56 -24.5t20 -60.5v-514z" />
    <glyph glyph-name="O" unicode="O" horiz-adv-x="693" 
d="M676 334q0 -152 -87 -250q-90 -101 -241 -101q-152 0 -243 100q-88 97 -88 250q0 152 89.5 251.5t240.5 99.5q150 0 241 -101q88 -97 88 -249zM513 334q0 87 -38 145q-44 68 -127 68t-128 -66q-40 -58 -40 -145q0 -88 39 -147q46 -69 129 -69t127 68q38 59 38 146z" />
    <glyph glyph-name="P" unicode="P" horiz-adv-x="552" 
d="M539 442q0 -101 -59.5 -162t-160.5 -61h-116v-144q0 -36 -20 -60.5t-56 -24.5t-56.5 24.5t-20.5 60.5v500q0 92 92 92h157q108 0 174 -59t66 -166zM382 442q0 42 -26 67t-68 25h-85v-182h77q44 0 73 23.5t29 66.5z" />
    <glyph glyph-name="Q" unicode="Q" horiz-adv-x="729" 
d="M699 15q0 -28 -20 -49.5t-48 -21.5q-26 0 -54 23l-12 10l-52 45q-78 -39 -162 -39q-151 0 -245 101q-90 98 -90 251q0 151 91 250t241 99q149 0 241 -102q89 -98 89 -249q0 -118 -62 -216l52 -44q31 -26 31 -58zM515 339q0 86 -40 143q-45 65 -127 65q-84 0 -129 -66
q-40 -57 -40 -145q0 -91 39 -149q46 -67 133 -67q21 0 45 9l-27 24q-20 18 -20 47q0 26 20 47.5t46 21.5t56 -26l22 -19q22 52 22 115z" />
    <glyph glyph-name="R" unicode="R" horiz-adv-x="569" 
d="M538 61q0 -29 -23.5 -50.5t-52.5 -21.5q-37 0 -64 35l-10 13l-188 234v-196q0 -36 -20 -60.5t-56 -24.5t-56.5 24.5t-20.5 60.5v500q0 92 92 92h155q101 0 165 -52q68 -56 68 -155q0 -149 -156 -183l141 -156q26 -29 26 -60zM377 453q0 35 -25 58t-60 23h-92v-156h95
q35 0 58.5 20.5t23.5 54.5z" />
    <glyph glyph-name="S" unicode="S" horiz-adv-x="534" 
d="M508 207q0 -109 -74 -169q-69 -55 -180 -55q-76 0 -138 21q-89 30 -89 92q0 29 19 51t48 22q17 0 38 -8l53 -20q40 -15 77 -15q34 0 58 18.5t24 51.5q0 38 -49 62q-9 4 -83 26q-91 28 -128 58q-52 44 -52 124q0 102 73 162q68 56 172 56q64 0 114 -19q70 -27 70 -80
q0 -31 -19.5 -51t-50.5 -20q-12 0 -23 4l-28 10q-36 13 -68 13q-29 0 -51 -13q-26 -15 -26 -42q0 -40 62 -57l41 -11q98 -26 147 -68q63 -54 63 -143z" />
    <glyph glyph-name="T" unicode="T" horiz-adv-x="485" 
d="M484 599q0 -32 -21.5 -50.5t-54.5 -18.5h-88v-455q0 -36 -20 -60.5t-56 -24.5t-56.5 24.5t-20.5 60.5v455h-91q-33 0 -54.5 18.5t-21.5 50.5t22 50t54 18h332q32 0 54 -18t22 -50z" />
    <glyph glyph-name="U" unicode="U" horiz-adv-x="660" 
d="M620 293q0 -143 -73 -225q-77 -85 -218 -85q-121 0 -205 75t-84 195v339q0 37 20.5 61t56.5 24t56 -24.5t20 -60.5v-317q0 -66 35 -106q37 -43 102 -43q137 0 137 167v299q0 37 20.5 61t56.5 24t56 -24.5t20 -60.5v-299z" />
    <glyph glyph-name="V" unicode="V" horiz-adv-x="597" 
d="M587 603q0 -18 -8 -39l-6 -16l-198 -499q-25 -62 -78 -62q-49 0 -70 52l-208 525q-8 20 -8 39q0 31 23 53t54 22q53 0 75 -59l136 -363l136 363q22 59 74 59q32 0 55 -21.5t23 -53.5z" />
    <glyph glyph-name="W" unicode="W" horiz-adv-x="866" 
d="M862 604q0 -14 -3 -27l-4 -17l-117 -486q-20 -84 -101 -84q-76 0 -103 84l-102 315l-94 -307q-28 -92 -110 -92q-33 0 -59 18q-29 19 -36 50l-127 520q-3 12 -3 26q0 32 21 53.5t53 21.5q60 0 79 -82l81 -352l114 363q22 69 81 69t81 -69l116 -363l78 350q19 84 80 84
q32 0 53.5 -21.5t21.5 -53.5z" />
    <glyph glyph-name="X" unicode="X" horiz-adv-x="611" 
d="M593 63q0 -30 -24 -52t-54 -22q-39 0 -67 39l-10 14l-134 186l-131 -185q-38 -53 -77 -53q-30 0 -54 22t-24 52q0 27 21 56l10 14l168 224l-137 180q-30 39 -30 67q0 29 23.5 50.5t52.5 21.5q36 0 65 -38l10 -13l103 -141l106 151q29 41 68 41q30 0 54 -22t24 -52
q0 -29 -31 -70l-132 -175l179 -238q21 -28 21 -57z" />
    <glyph glyph-name="Y" unicode="Y" horiz-adv-x="576" 
d="M557 604q0 -29 -31 -70l-166 -219v-240q0 -36 -20 -60.5t-56 -24.5t-56.5 24.5t-20.5 60.5v240l-161 220q-29 40 -29 69q0 30 23.5 51.5t53.5 21.5q41 0 67 -40l9 -14l114 -162l128 177q28 39 67 39q30 0 54 -21.5t24 -51.5z" />
    <glyph glyph-name="Z" unicode="Z" horiz-adv-x="522" 
d="M522 69q0 -32 -21.5 -50.5t-54.5 -18.5h-349q-39 0 -66 18q-31 21 -31 58q0 31 20 56l16 20l284 378h-231q-33 0 -54.5 18.5t-21.5 50.5t22 50t54 18h332q89 0 89 -78q0 -31 -21 -59l-291 -393h248q32 0 54 -18t22 -50z" />
    <glyph glyph-name="bracketleft" unicode="[" horiz-adv-x="301" 
d="M293 -74q0 -27 -18.5 -43t-46.5 -16h-102q-89 0 -89 83v634q0 83 89 83h102q28 0 46.5 -16t18.5 -43t-18.5 -43t-46.5 -16h-65v-564h65q28 0 46.5 -16t18.5 -43z" />
    <glyph glyph-name="backslash" unicode="\" horiz-adv-x="447" 
d="M416 -93q0 -18 -14.5 -31t-32.5 -13q-32 0 -51 47l-291 702q-6 14 -6 27q0 19 14 32t33 13q31 0 46 -35l5 -12l291 -703q6 -14 6 -27z" />
    <glyph glyph-name="bracketright" unicode="]" horiz-adv-x="301" 
d="M264 -50q0 -83 -83 -83h-102q-29 0 -50 15.5t-21 43.5t22 45q20 14 49 14h59v564h-59q-29 0 -50 15.5t-21 43.5t19 43.5t47 15.5h101q89 0 89 -83v-634z" />
    <glyph glyph-name="asciicircum" unicode="^" 
d="M487 347h-141l-96 216l-96 -216h-141l148 324h178z" />
    <glyph glyph-name="underscore" unicode="_" 
d="M500 -149h-500v95h500v-95z" />
    <glyph glyph-name="grave" unicode="`" 
d="M382 605q0 -21 -13.5 -36.5t-34.5 -15.5q-12 0 -25 4l-154 48q-38 12 -38 49q0 21 15 35t36 14q7 0 17 -3l158 -46q39 -11 39 -49z" />
    <glyph glyph-name="a" unicode="a" horiz-adv-x="560" 
d="M518 80q0 -36 -18 -61q-21 -26 -56 -26q-52 0 -74 58q-28 -33 -54 -47t-67 -14q-106 0 -171 82q-61 76 -61 184q0 105 62 180q65 81 168 81q68 0 125 -58q23 55 73 55q32 0 52.5 -21.5t20.5 -53.5v-359zM367 256q0 51 -25 85q-28 39 -77 39t-77 -40q-24 -35 -24 -86
q0 -52 24 -87q28 -40 78 -40t77 41q24 36 24 88z" />
    <glyph glyph-name="b" unicode="b" horiz-adv-x="553" 
d="M537 255q0 -106 -59 -182q-64 -83 -168 -83q-78 0 -122 58q-23 -55 -69 -55q-35 0 -55.5 21.5t-20.5 56.5v581q0 35 19.5 58.5t53.5 23.5q35 0 54.5 -23.5t19.5 -58.5v-178q59 43 119 43q101 0 167 -82q61 -77 61 -180zM391 254q0 49 -25 85q-28 41 -75 41q-48 0 -76 -40
q-26 -36 -26 -86t25 -86q29 -41 77 -41q47 0 75 41q25 37 25 86z" />
    <glyph glyph-name="c" unicode="c" horiz-adv-x="457" 
d="M437 88q0 -50 -67 -77q-51 -21 -109 -21q-109 0 -176.5 74t-67.5 184q0 117 66 191q69 78 185 78q60 0 106 -19q62 -26 62 -78q0 -25 -16 -45.5t-41 -20.5q-15 0 -54 15q-29 11 -53 11q-50 0 -80 -39q-28 -35 -28 -87q0 -55 28 -89q30 -38 83 -38q24 0 56.5 13.5
t44.5 13.5q27 0 44 -19.5t17 -46.5z" />
    <glyph glyph-name="d" unicode="d" horiz-adv-x="554" 
d="M510 77q0 -84 -73 -84q-51 0 -72 58q-44 -61 -127 -61q-99 0 -164 86q-59 78 -59 180q0 100 63 178q67 83 165 83q64 0 120 -46v181q0 35 19.5 58.5t54.5 23.5q34 0 53.5 -23.5t19.5 -58.5v-575zM364 261q0 49 -25 85q-28 41 -75 41q-48 0 -76 -40q-26 -36 -26 -86
t25 -86q29 -41 77 -41q47 0 75 41q25 37 25 86z" />
    <glyph glyph-name="e" unicode="e" horiz-adv-x="529" 
d="M512 263q0 -58 -64 -58h-274q32 -87 117 -87q39 0 79 20l42 21q14 7 31 7q23 0 41.5 -18.5t18.5 -41.5q0 -55 -87 -89q-68 -27 -133 -27q-116 0 -191.5 70t-75.5 186q0 114 69.5 192.5t182.5 78.5q105 0 174.5 -74t69.5 -180zM367 305q-23 92 -95 92q-73 0 -103 -92h198z
" />
    <glyph glyph-name="f" unicode="f" horiz-adv-x="357" 
d="M357 437q0 -31 -21 -49t-53 -18h-41v-295q0 -35 -19.5 -58.5t-53.5 -23.5q-35 0 -54.5 23.5t-19.5 58.5v295h-21q-32 0 -53 18t-21 49t21.5 48.5t52.5 17.5h21v73q0 71 44.5 112.5t116.5 41.5q84 0 84 -67q0 -61 -57 -64q-41 -2 -41 -40v-56h41q31 0 52.5 -17.5
t21.5 -48.5z" />
    <glyph glyph-name="g" unicode="g" horiz-adv-x="550" 
d="M506 45q0 -121 -70 -188t-191 -67q-70 0 -134 22q-87 30 -87 87q0 27 20.5 45.5t47.5 18.5q11 0 23 -4l42 -14q54 -18 90 -18q64 0 90 34q22 28 27 96q-28 -36 -53 -50q-28 -17 -70 -17q-104 0 -167 79q-58 73 -58 180t59 184q64 84 168 84q66 0 121 -58q29 55 71 55
q34 0 52.5 -23.5t18.5 -57.5v-388zM361 253q0 50 -25 86q-28 41 -75 41q-49 0 -75 -42q-23 -35 -23 -87q0 -49 24 -84q28 -40 75 -40t75 41q24 35 24 85z" />
    <glyph glyph-name="h" unicode="h" horiz-adv-x="547" 
d="M504 75q0 -35 -19.5 -58.5t-53.5 -23.5q-35 0 -54.5 23.5t-19.5 58.5v214q0 43 -19 70q-22 31 -63 31q-38 0 -61.5 -26.5t-23.5 -64.5v-224q0 -35 -19.5 -58.5t-53.5 -23.5q-35 0 -54.5 23.5t-19.5 58.5v577q0 35 19.5 58.5t53.5 23.5q35 0 54.5 -23.5t19.5 -58.5v-177
q71 42 135 42q84 0 131.5 -50.5t47.5 -135.5v-256z" />
    <glyph glyph-name="i" unicode="i" horiz-adv-x="256" 
d="M214 647q0 -36 -25 -61t-61 -25t-60.5 25t-24.5 61q0 35 25 60t60 25q36 0 61 -24.5t25 -60.5zM200 75q0 -35 -19.5 -58.5t-53.5 -23.5q-35 0 -54.5 23.5t-19.5 58.5v357q0 35 19.5 58.5t53.5 23.5q35 0 54.5 -23.5t19.5 -58.5v-357z" />
    <glyph glyph-name="j" unicode="j" horiz-adv-x="258" 
d="M212 647q0 -36 -25 -61t-61 -25t-60.5 25t-24.5 61q0 35 25 60t60 25q36 0 61 -24.5t25 -60.5zM203 -125q0 -35 -19.5 -58.5t-53.5 -23.5q-35 0 -54.5 23.5t-19.5 58.5v557q0 35 19.5 58.5t53.5 23.5q35 0 54.5 -23.5t19.5 -58.5v-557z" />
    <glyph glyph-name="k" unicode="k" horiz-adv-x="508" 
d="M493 63q0 -29 -22.5 -49.5t-51.5 -20.5q-36 0 -62 34l-10 13l-157 201v-166q0 -35 -19.5 -58.5t-53.5 -23.5q-35 0 -54.5 23.5t-19.5 58.5v577q0 35 19.5 58.5t53.5 23.5q35 0 54.5 -23.5t19.5 -58.5v-311l146 149q27 28 58 28q27 0 48.5 -21.5t21.5 -48.5q0 -33 -28 -59
l-12 -11l-91 -88l138 -172q22 -27 22 -55z" />
    <glyph glyph-name="l" unicode="l" horiz-adv-x="233" 
d="M190 75q0 -35 -19.5 -58.5t-53.5 -23.5q-35 0 -54.5 23.5t-19.5 58.5v577q0 34 19.5 57.5t53.5 23.5t54 -23t20 -58v-577z" />
    <glyph glyph-name="m" unicode="m" horiz-adv-x="832" 
d="M788 75q0 -35 -19.5 -58.5t-53.5 -23.5q-35 0 -54.5 23.5t-19.5 58.5v239q0 34 -20.5 55t-54.5 21t-55.5 -21t-21.5 -55v-239q0 -35 -19.5 -58.5t-53.5 -23.5q-35 0 -54.5 23.5t-19.5 58.5v225q0 90 -76 90q-33 0 -54.5 -21.5t-21.5 -54.5v-239q0 -35 -19.5 -58.5
t-53.5 -23.5q-35 0 -54.5 23.5t-19.5 58.5v354q0 35 19 60t53 25q39 0 72 -48q57 51 129 51q94 0 141 -64q79 64 154 64q76 0 126.5 -47.5t50.5 -122.5v-272z" />
    <glyph glyph-name="n" unicode="n" horiz-adv-x="545" 
d="M502 75q0 -35 -19.5 -58.5t-53.5 -23.5q-35 0 -54.5 23.5t-19.5 58.5v222q0 40 -20 66q-23 28 -62 28q-36 0 -59.5 -26t-23.5 -62v-228q0 -35 -19.5 -58.5t-53.5 -23.5q-35 0 -54.5 23.5t-19.5 58.5v353q0 37 19.5 61.5t55.5 24.5q48 0 68 -51q58 54 135 54q87 0 134 -49
t47 -136v-257z" />
    <glyph glyph-name="o" unicode="o" horiz-adv-x="526" 
d="M508 253q0 -110 -67 -185q-69 -78 -178 -78t-179 78q-67 74 -67 185t68.5 187.5t177.5 76.5t177 -77t68 -187zM363 254q0 49 -27 85q-29 41 -76 41q-46 0 -74 -41q-24 -36 -24 -85t24 -85q27 -42 74 -42q48 0 77 41q26 36 26 86z" />
    <glyph glyph-name="p" unicode="p" horiz-adv-x="550" 
d="M533 258q0 -107 -58 -184q-64 -84 -168 -84q-61 0 -117 43v-158q0 -35 -19.5 -58.5t-53.5 -23.5q-35 0 -54.5 23.5t-19.5 58.5v552q0 87 71 87q46 0 71 -56q54 59 130 59q99 0 161 -82q57 -75 57 -177zM386 254q0 49 -26 85q-28 41 -75 41q-48 0 -75 -40q-24 -35 -24 -86
t24 -86q27 -41 75 -41q47 0 76 41q25 37 25 86z" />
    <glyph glyph-name="q" unicode="q" horiz-adv-x="551" 
d="M507 -125q0 -35 -19.5 -58.5t-53.5 -23.5q-35 0 -54.5 23.5t-19.5 58.5v160q-58 -45 -118 -45q-101 0 -166 81q-61 76 -61 179t58 181q64 86 164 86q71 0 125 -54q32 51 72 51q32 0 52.5 -21t20.5 -53v-565zM365 254q0 50 -25 86q-29 41 -77 41q-47 0 -76 -41
q-25 -37 -25 -86q0 -50 25 -86q28 -41 76 -41t77 41q25 36 25 86z" />
    <glyph glyph-name="r" unicode="r" horiz-adv-x="365" 
d="M366 441q0 -30 -24 -46q-13 -9 -51 -21q-52 -16 -71 -31q-30 -23 -30 -67v-201q0 -35 -19.5 -58.5t-53.5 -23.5q-35 0 -54.5 23.5t-19.5 58.5v355q0 36 19 60t55 24q49 0 73 -52q55 55 101 55q32 0 53.5 -22t21.5 -54z" />
    <glyph glyph-name="s" unicode="s" horiz-adv-x="435" 
d="M409 154q0 -78 -59 -123q-54 -41 -135 -41q-59 0 -116 24q-72 31 -72 82q0 24 18 45t42 21q18 0 32 -6l45 -20q36 -16 59 -16q43 0 43 33q0 23 -57 44l-40 15q-127 48 -127 141q0 76 57 122q53 42 132 42q54 0 104 -24q63 -29 63 -77q0 -24 -16.5 -44t-39.5 -20
q-18 0 -63 20q-34 15 -56 15q-39 0 -39 -26q0 -19 31 -33l46 -18q72 -28 102 -55q46 -39 46 -101z" />
    <glyph glyph-name="t" unicode="t" horiz-adv-x="354" 
d="M354 441q0 -31 -21 -49t-53 -18h-42v-299q0 -35 -19.5 -58.5t-53.5 -23.5q-35 0 -54.5 23.5t-19.5 58.5v299q-91 0 -91 66q0 67 81 67h10v92q0 35 20 58t54 23t53.5 -23.5t19.5 -57.5v-92h42q31 0 52.5 -17.5t21.5 -48.5z" />
    <glyph glyph-name="u" unicode="u" horiz-adv-x="542" 
d="M499 198q0 -98 -66 -154q-62 -54 -162 -54t-162 54q-66 56 -66 154v234q0 35 19.5 58.5t53.5 23.5q35 0 54.5 -23.5t19.5 -58.5v-216q0 -38 21.5 -62t59.5 -24t59.5 24t21.5 62v216q0 35 19.5 58.5t54.5 23.5q34 0 53.5 -23.5t19.5 -58.5v-234z" />
    <glyph glyph-name="v" unicode="v" horiz-adv-x="491" 
d="M473 442q0 -20 -8 -40l-6 -15l-126 -313q-17 -41 -31 -57q-21 -24 -57 -24q-59 0 -87 71l-136 340q-8 20 -8 38q0 30 22 51.5t52 21.5q56 0 75 -60l5 -16l74 -220l80 236q20 60 75 60q30 0 53 -21.5t23 -51.5z" />
    <glyph glyph-name="w" unicode="w" horiz-adv-x="745" 
d="M737 443q0 -18 -6 -34l-6 -16l-103 -296q-17 -49 -34 -71q-26 -33 -67 -33q-58 0 -85 78l-63 184l-51 -158q-16 -50 -32 -71q-25 -33 -66 -33q-62 0 -89 78l-119 339q-6 17 -6 34q0 30 21.5 50.5t51.5 20.5q54 0 73 -60l5 -16l65 -219l72 227q21 67 77 67q52 0 73 -67
l72 -226l69 233q18 61 74 61q30 0 52 -21t22 -51z" />
    <glyph glyph-name="x" unicode="x" horiz-adv-x="523" 
d="M506 64q0 -29 -23 -50.5t-52 -21.5q-34 0 -72 46l-94 115l-95 -115q-38 -46 -74 -46q-30 0 -53 21.5t-23 51.5q0 32 27 61l11 12l119 128l-107 116q-26 28 -26 60q0 30 23 51.5t53 21.5q33 0 63 -35l11 -13l71 -90l83 101q28 34 63 34q30 0 53 -21.5t23 -51.5
q0 -35 -27 -62l-12 -12l-95 -99l128 -143q25 -28 25 -59z" />
    <glyph glyph-name="y" unicode="y" horiz-adv-x="497" 
d="M486 442q0 -21 -8 -39l-7 -16l-230 -549q-22 -52 -71 -52q-29 0 -51 20.5t-22 49.5q0 17 9 40l6 15l58 135l-151 358q-9 21 -9 39q0 29 22 50t51 21q32 0 51 -20q13 -14 27 -49l86 -218l86 217q14 35 28 50q19 20 51 20q30 0 52 -21t22 -51z" />
    <glyph glyph-name="z" unicode="z" horiz-adv-x="449" 
d="M449 67q0 -31 -21 -49t-53 -18h-298q-76 0 -76 50q0 21 17 44l205 280h-147q-32 0 -53 18t-21 49t21.5 48.5t52.5 17.5h298q24 0 42 -15t18 -38q0 -24 -20 -51l-198 -270h159q31 0 52.5 -17.5t21.5 -48.5z" />
    <glyph glyph-name="braceleft" unicode="{" 
d="M402 -191h-27q10 0 -30 -1h-28q-93 0 -128 26q-43 31 -43 119v139q0 77 -56 90v128q56 13 56 81v144q0 86 44 117q35 25 127 25q13 0 85 -2v-147h-12q-45 0 -62 -9q-24 -14 -24 -54v-101q0 -46 -10 -70q-13 -29 -48 -52q35 -22 47 -52q11 -25 11 -71v-108q0 -40 23 -53
q16 -10 60 -10h15v-139z" />
    <glyph glyph-name="bar" unicode="|" 
d="M330 -167h-161v834h161v-834z" />
    <glyph glyph-name="braceright" unicode="}" 
d="M410 174q-56 -13 -56 -81v-144q0 -86 -45 -116q-36 -25 -127 -25h-29q-7 0 -17 1h-11h-27v147q2 1 12 1l24 1q38 2 51 20q11 15 11 55v87q0 47 10 71q12 29 48 51q-35 22 -47 52q-11 25 -11 71v93q0 50 -16.5 64t-67.5 14h-14v139h27l57 1q92 2 129 -25q43 -32 43 -120
v-139q0 -77 56 -89v-129z" />
    <glyph glyph-name="asciitilde" unicode="~" horiz-adv-x="667" 
d="M576 691q-27 -67 -56 -98q-40 -41 -101 -41q-32 0 -68 16l-43 19q-48 21 -72 21q-35 0 -67 -60l-77 65q56 140 151 140q32 0 112 -34q56 -24 74 -24q38 0 70 60z" />
    <glyph glyph-name="dagger" unicode="&#x2020;" horiz-adv-x="533" 
d="M506 411q0 -31 -21 -49t-53 -18h-99v-406q0 -31 -17.5 -52.5t-48.5 -21.5t-49 21t-18 53v406h-99q-32 0 -53 18t-21 49t21.5 48.5t52.5 17.5h99v133q0 32 18 53t49 21t48.5 -21.5t17.5 -52.5v-133h99q31 0 52.5 -17.5t21.5 -48.5z" />
    <glyph glyph-name="cent" unicode="&#xa2;" horiz-adv-x="533" 
d="M480 498q0 -26 -18 -46.5t-44 -20.5q-10 0 -21 4l-34 12q-26 9 -55 9q-50 0 -79 -39q-27 -35 -27 -87q0 -53 30 -89t82 -36q28 0 55 11l29 12q7 3 20 3q25 0 42.5 -20.5t17.5 -45.5q0 -43 -42 -67q-25 -14 -81 -28v-46q0 -56 -50 -56q-23 0 -36.5 16t-13.5 40v46
q-96 19 -149 89t-53 170q0 102 52 172.5t150 92.5v41q0 24 13.5 40t36.5 16q50 0 50 -56v-41q125 -25 125 -96z" />
    <glyph glyph-name="sterling" unicode="&#xa3;" horiz-adv-x="667" 
d="M626 71q0 -33 -22.5 -52t-55.5 -19h-360q-37 0 -60 18q-26 19 -26 55q0 30 23 59q29 36 39 62q8 22 15 72h-61q-34 0 -56.5 19.5t-22.5 52.5t22.5 52t56.5 19h30q-18 50 -18 86q0 92 83 144q71 45 168 45q85 0 156 -39q86 -46 86 -125q0 -32 -24 -54t-56 -22
q-38 0 -69 49q-35 54 -93 54q-35 0 -59 -20t-24 -55q0 -21 22 -63h72q34 0 57 -18.5t23 -52.5t-23 -53t-57 -19h-54v-7q0 -44 -39 -118h249q33 0 55.5 -18.5t22.5 -51.5z" />
    <glyph glyph-name="section" unicode="&#xa7;" horiz-adv-x="501" 
d="M484 280q0 -70 -75 -141q46 -43 46 -102q0 -80 -71 -128q-62 -42 -146 -42q-67 0 -125 31q-69 37 -69 99q0 26 16.5 43.5t42.5 17.5q24 0 39 -16l19 -20q32 -34 78 -34q71 0 71 44q0 23 -20 37q-5 3 -30 14l-74 31q-80 33 -114 61q-55 45 -55 110q0 79 73 145
q-29 41 -29 89q0 78 67 124q60 41 141 41q66 0 124 -33q68 -40 68 -101q0 -24 -17 -41.5t-41 -17.5q-27 0 -44 21l-15 19q-28 35 -75 35q-62 0 -62 -40q0 -27 61 -53l40 -17q92 -39 120 -61q56 -44 56 -115zM347 252q0 25 -34 45q-9 5 -55 24q-33 13 -79 38q-27 -22 -27 -42
q0 -29 59 -57l29 -14l55 -25l27 -14q25 25 25 45z" />
    <glyph glyph-name="bullet" unicode="&#x2022;" horiz-adv-x="667" 
d="M473 339q0 -58 -40 -98.5t-98 -40.5t-98.5 40.5t-40.5 98.5t40.5 98t98.5 40q57 0 97.5 -40.5t40.5 -97.5z" />
    <glyph glyph-name="paragraph" unicode="&#xb6;" horiz-adv-x="628" 
d="M539 608h-51v-721h-76v721h-88v-721h-76v433h-12q-80 0 -130.5 46.5t-50.5 125.5q0 175 226 175h258v-59z" />
    <glyph glyph-name="germandbls" unicode="&#xdf;" horiz-adv-x="548" 
d="M531 226q0 -93 -63 -163q-65 -73 -156 -73q-84 0 -84 69q0 33 19 48q12 10 50 20q81 22 81 103q0 77 -75 92q-41 8 -57 19q-23 17 -23 52q0 52 53 67q58 17 58 67q0 30 -20 49.5t-50 19.5q-74 0 -74 -111v-410q0 -35 -19.5 -58.5t-53.5 -23.5q-35 0 -54.5 23.5
t-19.5 58.5v429q0 103 61.5 166t163.5 63q88 0 149 -55t61 -142q0 -79 -63 -131q116 -42 116 -179z" />
    <glyph glyph-name="acute" unicode="&#xb4;" 
d="M382 654q0 -38 -37 -49l-155 -48q-13 -4 -25 -4q-21 0 -34.5 15.5t-13.5 36.5q0 37 40 49l157 46q10 3 17 3q21 0 36 -14t15 -35z" />
    <glyph glyph-name="dieresis" unicode="&#xa8;" 
d="M433 626q0 -30 -21.5 -52t-51.5 -22t-51.5 22t-21.5 52q0 29 17 49.5t45 24.5q33 5 58.5 -18t25.5 -56zM217 626q0 -31 -21.5 -52.5t-52.5 -21.5q-30 0 -51.5 22t-21.5 52q0 29 17.5 49.5t45.5 24.5q32 4 58 -19t26 -55z" />
    <glyph glyph-name="AE" unicode="&#xc6;" horiz-adv-x="789" 
d="M761 68q0 -32 -22 -50t-54 -18h-220q-96 0 -96 102v11h-174l-23 -57q-27 -66 -77 -66q-29 0 -50.5 20t-21.5 49q0 19 9 40l6 14l218 502q13 30 31.5 41t52.5 11h345q32 0 54 -18t22 -50t-21.5 -50.5t-54.5 -18.5h-163v-124h147q32 0 54 -18t22 -50t-21.5 -50.5
t-54.5 -18.5h-147v-132h163q33 0 54.5 -18.5t21.5 -50.5zM369 250v272l-115 -272h115z" />
    <glyph glyph-name="Oslash" unicode="&#xd8;" horiz-adv-x="694" 
d="M678 338q0 -154 -88 -253q-91 -102 -244 -102q-80 0 -175 51l-12 -14l-8 -10q-22 -27 -49 -27q-24 0 -42 16.5t-18 40.5q0 23 17 44l26 32q-68 93 -68 219q0 154 90.5 251.5t243.5 97.5q87 0 168 -46l17 20l8 10q21 26 49 26q24 0 42 -16.5t18 -40.5q0 -20 -19 -44
l-8 -10l-17 -21q69 -97 69 -224zM428 527q-37 20 -74 20q-92 0 -140 -61q-44 -55 -44 -149q0 -54 17 -98zM525 337q0 47 -18 102l-243 -296q38 -23 81 -23q90 0 138 65q42 58 42 152z" />
    <glyph glyph-name="yen" unicode="&#xa5;" horiz-adv-x="645" 
d="M644 667l-129 -223h107v-60h-141l-58 -99h186v-61h-206v-224h-164v224h-202v61h182l-58 99h-140v60h107l-127 220h175l146 -281l144 284h178z" />
    <glyph glyph-name="ordfeminine" unicode="&#xaa;" horiz-adv-x="347" 
d="M318 414h-103q-4 8 -5 16l-1 6l-2 6q-41 -36 -82 -36t-68 18q-31 20 -31 59q0 66 71 77l31 5l32 7l30 7q14 3 14 17q0 27 -42 27q-38 0 -41 -32h-84q6 91 127 91q127 0 127 -112v-95q0 -42 27 -61zM330 294h-310v67h310v-67zM206 537q-19 -9 -35 -12l-24 -4
q-42 -7 -42 -33q0 -29 37 -29q58 0 63 66z" />
    <glyph glyph-name="ordmasculine" unicode="&#xba;" horiz-adv-x="347" 
d="M317 542q0 -60 -41 -98t-102 -38q-62 0 -103.5 38t-41.5 100q0 63 41 100.5t105 37.5q62 0 102 -39t40 -101zM328 294h-310v67h310v-67zM228 544q0 76 -54 76q-55 0 -55 -77q0 -75 54 -75q55 0 55 76z" />
    <glyph glyph-name="ae" unicode="&#xe6;" horiz-adv-x="867" 
d="M851 262q0 -31 -20 -43q-16 -8 -50 -8h-270q33 -85 124 -85q30 0 70 14l40 14q20 7 35 7q25 0 44 -17t19 -42q0 -54 -85 -87q-65 -25 -130 -25q-84 0 -143 47q-2 -44 -60 -44q-53 0 -56 60q-50 -63 -129 -63q-102 0 -165 85q-58 76 -58 182q0 104 62 179q66 81 168 81
q75 0 124 -57q1 54 58 54q44 0 56 -36q51 39 117 39q102 0 175.5 -76.5t73.5 -178.5zM705 308q-24 92 -99 92q-77 0 -98 -92h197zM364 259q0 51 -24 84q-26 37 -75 37q-50 0 -77 -41q-24 -36 -24 -88q0 -50 24 -85q27 -40 74 -40q51 0 78 43q24 37 24 90z" />
    <glyph glyph-name="oslash" unicode="&#xf8;" horiz-adv-x="578" 
d="M541 465q0 -27 -28 -55l-12 -12q36 -65 36 -142q0 -113 -69 -188q-71 -78 -183 -78q-71 0 -130 39l-5 -6l-9 -10q-20 -22 -46 -22q-23 0 -40 16t-17 39q0 22 20 45l8 9l10 11q-36 76 -36 143q0 110 72.5 186.5t182.5 76.5q61 0 127 -37l7 8l9 9q23 23 45 23
q23 0 40.5 -16t17.5 -39zM329 380q-22 10 -42 10q-52 0 -84 -44q-29 -39 -29 -93v-6q1 -6 1 -10v-20zM403 247q0 18 -3 43l-155 -165q22 -9 42 -9q53 0 85 40q31 37 31 91z" />
    <glyph glyph-name="questiondown" unicode="&#xbf;" horiz-adv-x="483" 
d="M339 602q0 -34 -23.5 -58t-57.5 -24t-58 24t-24 58t24 57.5t58 23.5t57.5 -23.5t23.5 -57.5zM467 152q0 -74 -73 -124q-66 -45 -143 -45q-98 0 -164 56q-70 60 -70 156q0 76 45 127t121 68v8q0 37 19 61.5t55 24.5q34 0 53.5 -23.5t19.5 -57.5v-64q0 -33 -14 -45.5
t-49 -18.5q-85 -14 -85 -77q0 -30 21.5 -48t51.5 -18q42 0 76 46q31 43 66 43q29 0 49.5 -20t20.5 -49z" />
    <glyph glyph-name="exclamdown" unicode="&#xa1;" horiz-adv-x="257" 
d="M210 602q0 -34 -23.5 -58t-57.5 -24t-58 24t-24 58t24 57.5t58 23.5t57.5 -23.5t23.5 -57.5zM209 65q0 -35 -19.5 -58.5t-54.5 -23.5q-34 0 -53.5 23.5t-19.5 58.5v322q0 35 19.5 58.5t54.5 23.5q34 0 53.5 -23.5t19.5 -58.5v-322z" />
    <glyph glyph-name="florin" unicode="&#x192;" horiz-adv-x="533" 
d="M523 729q0 -28 -17.5 -48t-44.5 -18l-32 2q-33 2 -41 -40l-10 -56h41q31 0 52.5 -17.5t21.5 -48.5t-21 -49t-53 -18h-64l-70 -399q-13 -74 -64.5 -122t-125.5 -48q-85 0 -85 67q0 61 56 65l15 1q51 3 59 50l68 386h-21q-32 0 -53 18t-21 49t21.5 48.5t52.5 17.5h45l12 73
q12 71 65 112.5t127 41.5q87 0 87 -67z" />
    <glyph glyph-name="guillemotleft" unicode="&#xab;" horiz-adv-x="573" 
d="M518 126q0 -25 -17 -44.5t-42 -19.5q-33 0 -55 30l-84 116q-25 35 -25 63t25 63l84 116q22 30 55 30q25 0 42 -19.5t17 -44.5q0 -27 -20 -47l-96 -98l96 -98q20 -20 20 -47zM278 126q0 -25 -17 -44.5t-42 -19.5q-33 0 -55 30l-84 116q-25 35 -25 63t25 63l84 116
q22 30 55 30q25 0 42 -19.5t17 -44.5q0 -27 -20 -47l-96 -98l96 -98q20 -20 20 -47z" />
    <glyph glyph-name="guillemotright" unicode="&#xbb;" horiz-adv-x="573" 
d="M518 271q0 -28 -25 -63l-84 -116q-22 -30 -54 -30q-26 0 -43 19t-17 45q0 27 20 47l96 98l-96 98q-20 20 -20 47q0 26 17 45t43 19q32 0 54 -30l84 -116q25 -35 25 -63zM278 271q0 -28 -25 -63l-84 -116q-22 -30 -54 -30q-26 0 -43 19t-17 45q0 27 20 47l96 98l-96 98
q-20 20 -20 47q0 26 17 45t43 19q32 0 54 -30l84 -116q25 -35 25 -63z" />
    <glyph glyph-name="ellipsis" unicode="&#x2026;" horiz-adv-x="800" 
d="M748 65q0 -34 -23.5 -58t-57.5 -24t-58 24t-24 58t24 57.5t58 23.5t57.5 -23.5t23.5 -57.5zM482 65q0 -34 -23.5 -58t-57.5 -24t-58 24t-24 58t24 57.5t58 23.5t57.5 -23.5t23.5 -57.5zM215 65q0 -34 -23.5 -58t-57.5 -24t-58 24t-24 58t24 57.5t58 23.5t57.5 -23.5
t23.5 -57.5z" />
    <glyph glyph-name="OE" unicode="&#x152;" horiz-adv-x="936" 
d="M908 69q0 -32 -21.5 -50.5t-54.5 -18.5h-250q-29 0 -39 5q-16 8 -16 32v5q-81 -59 -189 -59q-150 0 -237 98q-85 95 -85 246q0 155 88 254q91 103 244 103q102 0 179 -66q1 28 11.5 38.5t39.5 10.5h254q32 0 54 -18t22 -50t-21.5 -50.5t-54.5 -18.5h-167v-126h148
q32 0 54 -18t22 -50t-21.5 -50.5t-54.5 -18.5h-148v-130h167q32 0 54 -18t22 -50zM513 333q0 86 -38 145q-45 69 -127 69q-84 0 -128 -68q-38 -58 -38 -146t38 -146q44 -67 128 -67q82 0 126 68q39 59 39 145z" />
    <glyph glyph-name="oe" unicode="&#x153;" horiz-adv-x="869" 
d="M852 253q0 -41 -61 -41h-277q18 -85 119 -85q37 0 74 14l40 15q19 7 37 7q25 0 41.5 -20.5t16.5 -45.5q0 -55 -89 -85q-66 -22 -134 -22q-112 0 -186 72q-79 -72 -170 -72q-111 0 -180 77q-66 73 -66 186q0 111 65 186q69 78 178 78q98 0 179 -69q69 69 167 69
q106 0 177 -80q69 -76 69 -184zM708 308q-24 92 -97 92q-71 0 -101 -92h198zM364 253q0 50 -24 86q-28 41 -75 41q-49 0 -77 -40q-24 -36 -24 -87q0 -48 23 -84q26 -42 72 -42q50 0 79 39q26 36 26 87z" />
    <glyph glyph-name="endash" unicode="&#x2013;" horiz-adv-x="507" 
d="M473 276q0 -30 -20 -46.5t-50 -16.5h-300q-30 0 -50 16.5t-20 46.5q0 29 20 45.5t50 16.5h300q30 0 50 -16.5t20 -45.5z" />
    <glyph glyph-name="emdash" unicode="&#x2014;" horiz-adv-x="813" 
d="M780 276q0 -30 -20 -46.5t-50 -16.5h-607q-30 0 -50 16.5t-20 46.5q0 29 20 45.5t50 16.5h607q30 0 50 -16.5t20 -45.5z" />
    <glyph glyph-name="quotedblleft" unicode="&#x201c;" horiz-adv-x="459" 
d="M432 621q0 -14 -8 -28l-78 -141q-17 -31 -54 -31q-27 0 -46.5 17.5t-19.5 44.5q0 14 9 30l80 141q17 30 53 30q26 0 45 -18.5t19 -44.5zM218 621q0 -16 -7 -28l-79 -141q-17 -31 -53 -31q-27 0 -46.5 17.5t-19.5 44.5q0 16 8 30l81 141q17 30 52 30q26 0 45 -18.5
t19 -44.5z" />
    <glyph glyph-name="quotedblright" unicode="&#x201d;" horiz-adv-x="459" 
d="M432 621q0 -14 -8 -28l-78 -141q-17 -31 -54 -31q-27 0 -46.5 17.5t-19.5 44.5q0 14 9 30l80 141q17 30 53 30q26 0 45 -18.5t19 -44.5zM218 621q0 -16 -7 -28l-79 -141q-17 -31 -53 -31q-27 0 -46.5 17.5t-19.5 44.5q0 16 8 30l81 141q17 30 52 30q26 0 45 -18.5
t19 -44.5z" />
    <glyph glyph-name="quoteleft" unicode="&#x2018;" horiz-adv-x="245" 
d="M218 621q0 -16 -7 -28l-79 -141q-17 -31 -53 -31q-27 0 -46.5 17.5t-19.5 44.5q0 16 8 30l81 141q17 30 52 30q26 0 45 -18.5t19 -44.5z" />
    <glyph glyph-name="quoteright" unicode="&#x2019;" horiz-adv-x="245" 
d="M218 621q0 -16 -7 -28l-79 -141q-17 -31 -53 -31q-27 0 -46.5 17.5t-19.5 44.5q0 16 8 30l81 141q17 30 52 30q26 0 45 -18.5t19 -44.5z" />
    <glyph glyph-name="fraction" unicode="&#x2044;" horiz-adv-x="310" 
d="M339 638q0 -11 -5 -24l-4 -10l-235 -587q-14 -35 -46 -35q-19 0 -33 13t-14 32q0 13 5 25l4 10l121 299l113 288q14 35 46 35q20 0 34 -13t14 -33z" />
    <glyph glyph-name="currency" unicode="&#xa4;" horiz-adv-x="717" 
d="M677 109l-81 -83l-101 101q-66 -41 -131 -41q-68 0 -141 41l-101 -100l-82 81l101 102q-36 63 -36 130q0 60 39 132l-104 103l83 83l105 -105q71 37 131 37q59 0 128 -37l105 104l81 -82l-101 -101q40 -70 40 -136q0 -59 -36 -128zM473 341q0 47 -33.5 81t-80.5 34
q-48 0 -81 -33.5t-33 -81.5t33 -82t81 -34t81 34t33 82z" />
    <glyph glyph-name="guilsinglleft" unicode="&#x2039;" horiz-adv-x="333" 
d="M278 126q0 -25 -17 -44.5t-42 -19.5q-33 0 -55 30l-84 116q-25 35 -25 63t25 63l84 116q22 30 55 30q25 0 42 -19.5t17 -44.5q0 -27 -20 -47l-96 -98l96 -98q20 -20 20 -47z" />
    <glyph glyph-name="guilsinglright" unicode="&#x203a;" horiz-adv-x="333" 
d="M278 271q0 -28 -25 -63l-84 -116q-22 -30 -54 -30q-26 0 -43 19t-17 45q0 27 20 47l96 98l-96 98q-20 20 -20 47q0 26 17 45t43 19q32 0 54 -30l84 -116q25 -35 25 -63z" />
    <glyph glyph-name="fi" unicode="&#xf001;" horiz-adv-x="612" 
d="M571 647q0 -36 -25 -61t-61 -25t-60.5 25t-24.5 61q0 35 25 60t60 25q36 0 61 -24.5t25 -60.5zM557 75q0 -35 -19.5 -58.5t-53.5 -23.5q-35 0 -54.5 23.5t-19.5 58.5v357q0 35 19.5 58.5t54.5 23.5q34 0 53.5 -23.5t19.5 -58.5v-357zM357 437q0 -31 -21 -49t-53 -18h-41
v-295q0 -35 -19.5 -58.5t-53.5 -23.5q-35 0 -54.5 23.5t-19.5 58.5v295h-21q-32 0 -53 18t-21 49t21.5 48.5t52.5 17.5h21v73q0 71 44.5 112.5t116.5 41.5q84 0 84 -67q0 -61 -57 -64q-41 -2 -41 -40v-56h41q31 0 52.5 -17.5t21.5 -48.5z" />
    <glyph glyph-name="fl" unicode="&#xf002;" horiz-adv-x="590" 
d="M546 75q0 -35 -19.5 -58.5t-53.5 -23.5q-35 0 -54.5 23.5t-19.5 58.5v577q0 35 20 58t54 23t53.5 -23.5t19.5 -57.5v-577zM357 437q0 -31 -21 -49t-53 -18h-41v-295q0 -35 -19.5 -58.5t-53.5 -23.5q-35 0 -54.5 23.5t-19.5 58.5v295h-21q-32 0 -53 18t-21 49t21.5 48.5
t52.5 17.5h21v73q0 71 44.5 112.5t116.5 41.5q84 0 84 -67q0 -61 -57 -64q-41 -2 -41 -40v-56h41q31 0 52.5 -17.5t21.5 -48.5z" />
    <glyph glyph-name="daggerdbl" unicode="&#x2021;" horiz-adv-x="533" 
d="M506 136q0 -31 -21.5 -48.5t-52.5 -17.5h-99v-133q0 -31 -17.5 -52.5t-48.5 -21.5t-49 21t-18 53v133h-99q-32 0 -53 18t-21 49t21.5 48.5t52.5 17.5h99v141h-99q-32 0 -53 18t-21 49t21.5 48.5t52.5 17.5h99v133q0 32 18 53t49 21t48.5 -21.5t17.5 -52.5v-133h99
q31 0 52.5 -17.5t21.5 -48.5t-21 -49t-53 -18h-99v-141h99q32 0 53 -18t21 -49z" />
    <glyph glyph-name="periodcentered" horiz-adv-x="252" 
d="M202 163h-151v169h151v-169z" />
    <glyph glyph-name="quotesinglbase" unicode="&#x201a;" horiz-adv-x="267" 
d="M241 77q0 -18 -8 -32l-88 -156q-20 -35 -59 -35q-30 0 -51.5 19.5t-21.5 49.5q0 18 9 34l90 156q19 33 58 33q29 0 50 -20t21 -49z" />
    <glyph glyph-name="quotedblbase" unicode="&#x201e;" horiz-adv-x="459" 
d="M432 68q0 -15 -8 -29l-78 -140q-18 -32 -54 -32q-27 0 -46.5 17.5t-19.5 44.5q0 15 9 31l80 140q17 30 53 30q26 0 45 -18t19 -44zM218 68q0 -13 -7 -29l-79 -140q-18 -32 -53 -32q-27 0 -46.5 17.5t-19.5 44.5q0 17 8 31l81 140q17 30 52 30q26 0 45 -18t19 -44z" />
    <glyph glyph-name="perthousand" unicode="&#x2030;" horiz-adv-x="1211" 
d="M1175 163q0 -74 -41 -121q-43 -50 -116 -50t-116 51q-41 48 -41 123q0 73 44 120.5t116 47.5t113 -49t41 -122zM800 162q0 -74 -42 -122t-115 -48t-116 51q-41 48 -41 122q0 73 44 120.5t116 47.5t113 -48.5t41 -122.5zM614 669l-318 -675h-75l317 675h76zM349 500
q0 -74 -42 -122t-115 -48t-116 51q-41 48 -41 123q0 73 44 120.5t116 47.5t115 -51q39 -47 39 -121zM1090 165q0 103 -72 103q-71 0 -71 -106q0 -105 71 -105q72 0 72 108zM715 165q0 102 -73 102q-70 0 -70 -106q0 -104 71 -104q72 0 72 108zM264 503q0 103 -73 103
q-70 0 -70 -107q0 -104 71 -104q72 0 72 108z" />
    <glyph glyph-name="dotlessi" unicode="&#x131;" horiz-adv-x="169" 
d="M157 75q0 -35 -19.5 -58.5t-53.5 -23.5q-35 0 -54.5 23.5t-19.5 58.5v357q0 35 19.5 58.5t53.5 23.5q35 0 54.5 -23.5t19.5 -58.5v-357z" />
    <glyph glyph-name="circumflex" unicode="&#x2c6;" 
d="M433 591q0 -22 -15.5 -36.5t-37.5 -14.5q-3 0 -11 2l-119 43l-113 -43q-11 -4 -21 -4q-20 0 -34.5 16t-14.5 36q0 33 33 45l130 48q11 4 18 4t19 -4l127 -43q39 -13 39 -49z" />
    <glyph glyph-name="tilde" unicode="&#x2dc;" 
d="M448 644q0 -45 -35 -73.5t-81 -28.5q-34 0 -87.5 25.5t-69.5 25.5q-18 0 -28 -17l-11 -18q-10 -17 -34 -17q-49 0 -49 48q0 46 34 75.5t81 29.5q40 0 79 -20l41 -21q20 -10 38 -10q15 0 32 26t41 26q22 0 35.5 -14.5t13.5 -36.5z" />
    <glyph glyph-name="macron" unicode="&#xaf;" 
d="M390 626q0 -50 -56 -50h-248q-24 0 -40 13.5t-16 36.5q0 50 56 50h244q60 0 60 -50z" />
    <glyph glyph-name="macron" unicode="&#x2c9;" 
d="M390 626q0 -50 -56 -50h-248q-24 0 -40 13.5t-16 36.5q0 50 56 50h244q60 0 60 -50z" />
    <glyph glyph-name="breve" unicode="&#x2d8;" 
d="M407 629q0 -42 -60 -71q-51 -24 -98 -24q-45 0 -96 24q-60 29 -60 70q0 18 14 30.5t32 13.5q14 1 36 -20q34 -33 75 -33q35 0 65 24q36 28 49 28q16 0 29.5 -13t13.5 -29z" />
    <glyph glyph-name="dotaccent" unicode="&#x2d9;" 
d="M324 626q0 -31 -21.5 -52.5t-52.5 -21.5q-30 0 -51.5 22t-21.5 52q0 29 17.5 49.5t45.5 24.5q32 4 58 -19t26 -55z" />
    <glyph glyph-name="ring" unicode="&#x2da;" 
d="M341 642q0 -38 -26.5 -65t-64.5 -27t-65 27t-27 65t27 64.5t65 26.5t64.5 -26.5t26.5 -64.5zM291 642q0 19 -14 31.5t-33 10.5q-36 -5 -36 -42q0 -17 12.5 -29.5t29.5 -12.5t29 12.5t12 29.5z" />
    <glyph glyph-name="cedilla" unicode="&#xb8;" 
d="M341 0l-90 -118q-21 -28 -45 -28q-18 0 -32 14t-14 32t12 33l52 67h117z" />
    <glyph glyph-name="hungarumlaut" unicode="&#x2dd;" 
d="M484 687l-99 -139h-76l53 139h122zM319 687l-99 -139h-76l54 139h121z" />
    <glyph glyph-name="ogonek" unicode="&#x2db;" 
d="M343 -98q0 -29 -30 -45q-25 -13 -56 -13q-44 0 -72 23t-28 66q0 41 34 74h74q-22 -22 -22 -44q0 -12 9.5 -22.5t21.5 -10.5q6 0 17 2.5t17 2.5q35 0 35 -33z" />
    <glyph glyph-name="caron" unicode="&#x2c7;" 
d="M433 629q0 -36 -39 -49l-127 -42q-15 -5 -19 -5t-18 5l-130 47q-33 12 -33 45q0 20 14.5 36t34.5 16q10 0 21 -4l113 -42l119 42q6 2 11 2q22 0 37.5 -14.5t15.5 -36.5z" />
    <glyph glyph-name="Lslash" unicode="&#x141;" horiz-adv-x="536" 
d="M540 0h-480v258l-58 -41v113l58 41v296h161v-199l111 80v-113l-111 -80v-217h319v-138z" />
    <glyph glyph-name="lslash" unicode="&#x142;" horiz-adv-x="256" 
d="M263 393l-59 -43v-350h-147v264l-55 -40v100l55 39v304h147v-217l59 42v-99z" />
    <glyph glyph-name="Eth" unicode="&#xd0;" horiz-adv-x="703" 
d="M667 336q0 -163 -84.5 -249.5t-247.5 -86.5h-276v281h-60v124h60v262h280q153 0 240.5 -88.5t87.5 -242.5zM504 332q0 96 -49.5 148.5t-144.5 52.5h-90v-128h80v-124h-80v-147h102q182 0 182 198z" />
    <glyph glyph-name="eth" unicode="&#xf0;" horiz-adv-x="561" 
d="M533 255q0 -119 -68 -195t-186 -76q-112 0 -182 71.5t-70 183.5q0 80 50 154q56 82 133 82h41l33 1l18 -4l-13 17q-36 47 -77 75l-108 -73l-30 46l87 56q-48 24 -107 37l21 50q105 -20 155 -42l115 78l30 -46l-85 -56q243 -132 243 -359zM386 243q0 155 -96 155
q-61 0 -91 -51q-25 -42 -25 -107q0 -63 22 -103q28 -51 85 -51q105 0 105 157z" />
    <glyph glyph-name="Scaron" unicode="&#x160;" horiz-adv-x="534" 
d="M450 820q0 -35 -38 -48l-127 -43q-15 -5 -19 -5t-18 5l-131 47q-32 11 -32 46q0 20 14.5 35.5t34.5 15.5q9 0 20 -4l114 -42l118 42q4 2 12 2q21 0 36.5 -15t15.5 -36zM508 207q0 -109 -74 -169q-69 -55 -180 -55q-76 0 -138 21q-89 30 -89 92q0 29 19 51t48 22
q17 0 38 -8l53 -20q40 -15 77 -15q34 0 58 18.5t24 51.5q0 38 -49 62q-9 4 -83 26q-91 28 -128 58q-52 44 -52 124q0 102 73 162q68 56 172 56q64 0 114 -19q70 -27 70 -80q0 -31 -19.5 -51t-50.5 -20q-12 0 -23 4l-28 10q-36 13 -68 13q-29 0 -51 -13q-26 -15 -26 -42
q0 -40 62 -57l41 -11q98 -26 147 -68q63 -54 63 -143z" />
    <glyph glyph-name="scaron" unicode="&#x161;" horiz-adv-x="435" 
d="M401 629q0 -36 -39 -49l-127 -42q-15 -5 -19 -5t-18 5l-130 47q-33 12 -33 45q0 20 14.5 36t34.5 16q10 0 21 -4l113 -42l119 42q6 2 11 2q22 0 37.5 -14.5t15.5 -36.5zM409 154q0 -78 -59 -123q-54 -41 -135 -41q-59 0 -116 24q-72 31 -72 82q0 24 18 45t42 21
q18 0 32 -6l45 -20q36 -16 59 -16q43 0 43 33q0 23 -57 44l-40 15q-127 48 -127 141q0 76 57 122q53 42 132 42q54 0 104 -24q63 -29 63 -77q0 -24 -16.5 -44t-39.5 -20q-18 0 -63 20q-34 15 -56 15q-39 0 -39 -26q0 -19 31 -33l46 -18q72 -28 102 -55q46 -39 46 -101z" />
    <glyph glyph-name="Yacute" unicode="&#xdd;" horiz-adv-x="576" 
d="M557 604q0 -29 -31 -70l-166 -219v-240q0 -83 -76 -85q-36 -1 -56.5 23.5t-20.5 61.5v240l-161 220q-28 38 -29 69q-1 30 23 51t54 22q41 1 67 -40l9 -14l114 -162l128 177q28 39 67 39q30 0 54 -21.5t24 -51.5zM470 796q0 -26 -26 -34l-108 -34q-12 -2 -18 -2
q-33 0 -33 36q0 26 28 34l109 32q5 2 12 2q36 0 36 -34z" />
    <glyph glyph-name="yacute" unicode="&#xfd;" horiz-adv-x="497" 
d="M486 442q1 -19 -8 -39l-7 -16l-230 -549q-21 -51 -71 -52q-29 -1 -50.5 19.5t-22.5 50.5q-1 16 9 40l6 15l58 135l-151 358q-9 21 -9 39q0 29 22 50t51 21q51 0 78 -69l86 -218l86 217q28 70 79 70q30 0 51.5 -21t22.5 -51zM413 616q0 -24 -24 -31l-97 -30q-10 -2 -16 -2
q-12 0 -21 10t-9 22q0 24 25 31l98 29q5 2 11 2q33 0 33 -31z" />
    <glyph glyph-name="HT" horiz-adv-x="300" 
 />
    <glyph glyph-name="LF" horiz-adv-x="1000" 
 />
    <glyph glyph-name="Thorn" unicode="&#xde;" horiz-adv-x="627" 
d="M604 362q0 -101 -65.5 -158t-168.5 -57h-151v-147h-160v667h160v-80h143q107 0 173 -58q69 -61 69 -167zM444 366q0 90 -107 90h-118v-185h119q47 0 76.5 24.5t29.5 70.5z" />
    <glyph glyph-name="thorn" unicode="&#xfe;" horiz-adv-x="588" 
d="M560 237q0 -107 -50 -176q-56 -78 -159 -78q-102 0 -150 84v-226h-144v826h138v-264q63 90 155 90q104 0 160 -78q50 -69 50 -178zM415 232q0 58 -25 98q-30 46 -85 46q-56 0 -84 -48q-23 -39 -23 -99q0 -57 25 -95q29 -43 84 -43t84 45q24 38 24 96z" />
    <glyph glyph-name="nonmarkingreturn" horiz-adv-x="300" 
 />
    <glyph glyph-name="Zcaron" unicode="&#x17d;" horiz-adv-x="522" 
d="M444 820q0 -35 -38 -48l-127 -43q-15 -5 -19 -5q-5 0 -19 5l-130 47q-33 12 -33 46q0 20 14.5 35.5t34.5 15.5q10 0 21 -4l113 -42l119 42q3 2 11 2q22 0 37.5 -14.5t15.5 -36.5zM522 69q0 -32 -21.5 -50.5t-54.5 -18.5h-349q-39 0 -66 18q-31 21 -31 58q0 31 20 56
l16 20l284 378h-231q-33 0 -54.5 18.5t-21.5 50.5t22 50t54 18h332q89 0 89 -78q0 -31 -21 -59l-291 -393h248q32 0 54 -18t22 -50z" />
    <glyph glyph-name="zcaron" unicode="&#x17e;" horiz-adv-x="449" 
d="M408 629q0 -36 -39 -49l-127 -42q-15 -5 -19 -5t-18 5l-130 47q-33 12 -33 45q0 20 14.5 36t34.5 16q10 0 21 -4l113 -42l119 42q6 2 11 2q22 0 37.5 -14.5t15.5 -36.5zM449 67q0 -31 -21 -49t-53 -18h-298q-76 0 -76 50q0 21 17 44l205 280h-147q-32 0 -53 18t-21 49
t21.5 48.5t52.5 17.5h298q24 0 42 -15t18 -38q0 -24 -20 -51l-198 -270h159q31 0 52.5 -17.5t21.5 -48.5z" />
    <glyph glyph-name="DLE" horiz-adv-x="1000" 
 />
    <glyph glyph-name="DC1" horiz-adv-x="1000" 
 />
    <glyph glyph-name="DC2" horiz-adv-x="1000" 
 />
    <glyph glyph-name="DC3" horiz-adv-x="1000" 
 />
    <glyph glyph-name="DC4" horiz-adv-x="1000" 
 />
    <glyph glyph-name="onehalf" unicode="&#xbd;" horiz-adv-x="1089" 
d="M1043 43q0 -43 -60 -43h-181q-57 0 -57 40q0 20 27 47q5 6 42 45l54 57q61 64 61 97q0 35 -37 35q-32 0 -43 -37q-4 -15 -15 -38q-11 -15 -34 -15q-48 0 -48 48q0 56 44 93.5t101 37.5q56 0 96.5 -33.5t40.5 -88.5q0 -78 -134 -202h92q51 0 51 -43zM727 638q0 -11 -5 -24
l-4 -10l-234 -587q-14 -35 -46 -35q-19 0 -33 13t-14 32q0 13 9 35l121 299l112 288q10 35 47 35q19 0 33 -13.5t14 -32.5zM260 314q0 -23 -14 -38t-37 -15t-37 15t-14 38v267h-26q-50 0 -50 43t50 43h74q54 0 54 -51v-302z" />
    <glyph glyph-name="onequarter" unicode="&#xbc;" horiz-adv-x="1089" 
d="M1055 129q0 -41 -53 -44l-1 -31v-10q0 -50 -48 -50t-48 50v41h-119q-54 0 -54 40q0 12 5 21l124 215q26 45 72 45q30 0 49 -20t19 -50v-166h7q47 0 47 -41zM727 638q0 -11 -5 -24l-4 -10l-234 -587q-14 -35 -46 -35q-19 0 -33 13t-14 32q0 13 9 35l121 299l112 288
q10 35 47 35q19 0 33 -13.5t14 -32.5zM260 314q0 -23 -14 -38t-37 -15t-37 15t-14 38v267h-26q-50 0 -50 43t50 43h74q54 0 54 -51v-302zM905 170v108l-60 -108h60z" />
    <glyph glyph-name="onesuperior" unicode="&#xb9;" horiz-adv-x="389" 
d="M260 314q0 -23 -14 -38t-37 -15t-37 15t-14 38v267h-26q-50 0 -50 43t50 43h74q54 0 54 -51v-302z" />
    <glyph glyph-name="threequarters" unicode="&#xbe;" horiz-adv-x="1089" 
d="M1055 129q0 -41 -53 -44l-1 -31v-10q0 -50 -48 -50t-48 50v41h-119q-54 0 -54 40q0 12 5 21l124 215q26 45 72 45q30 0 49 -20t19 -50v-166h7q47 0 47 -41zM728 638q0 -11 -5 -24l-4 -10l-235 -587q-14 -35 -46 -35q-19 0 -33 13t-14 32q0 13 5 25l4 10l121 299l113 288
q14 35 46 35q20 0 34 -13t14 -33zM345 388q0 -61 -47 -97q-43 -34 -105 -34q-53 0 -99 29q-52 33 -52 84q0 18 15 30.5t34 12.5q26 0 38 -20l10 -17q17 -29 50 -29q51 0 51 47q0 28 -26 36q-24 5 -49.5 12.5t-25.5 36.5q0 21 14 31q6 4 35 12q37 10 37 36q0 30 -35 30
q-23 0 -49 -27q-22 -23 -42 -23q-18 0 -31 12.5t-13 30.5q0 44 50 72q42 24 89 24q52 0 88 -28q40 -31 40 -81q0 -48 -43 -80q66 -35 66 -100zM905 170v108l-60 -108h60z" />
    <glyph glyph-name="threesuperior" unicode="&#xb3;" horiz-adv-x="389" 
d="M345 388q0 -61 -47 -97q-43 -34 -105 -34q-53 0 -99 29q-52 33 -52 84q0 18 15 30.5t34 12.5q26 0 38 -20l10 -17q17 -29 50 -29q51 0 51 47q0 28 -26 36q-24 5 -49.5 12.5t-25.5 36.5q0 21 14 31q6 4 35 12q37 10 37 36q0 30 -35 30q-23 0 -49 -27q-22 -23 -42 -23
q-18 0 -31 12.5t-13 30.5q0 44 50 72q42 24 89 24q52 0 88 -28q40 -31 40 -81q0 -48 -43 -80q66 -35 66 -100z" />
    <glyph glyph-name="twosuperior" unicode="&#xb2;" horiz-adv-x="389" 
d="M344 310q0 -43 -60 -43h-181q-57 0 -57 40q0 19 27 47l42 45l54 57q61 64 61 97q0 35 -37 35q-32 0 -43 -37q-9 -29 -15 -38q-10 -15 -34 -15q-48 0 -48 48q0 56 44 93.5t101 37.5q56 0 96.5 -33.5t40.5 -88.5q0 -78 -134 -202h92q51 0 51 -43z" />
    <glyph glyph-name="brokenbar" unicode="&#xa6;" 
d="M330 313h-161v354h161v-354zM330 -167h-161v320h161v-320z" />
    <glyph glyph-name="minus" unicode="&#x2212;" 
d="M492 323h-483v75h483v-75z" />
    <glyph glyph-name="multiply" unicode="&#xd7;" horiz-adv-x="1000" 
 />
    <glyph glyph-name="RS" horiz-adv-x="1000" 
 />
    <glyph glyph-name="US" horiz-adv-x="1000" 
 />
    <glyph glyph-name="DEL" horiz-adv-x="1000" 
 />
    <glyph glyph-name="Adieresis" unicode="&#xc4;" horiz-adv-x="607" 
d="M479 800q0 -30 -21.5 -52t-51.5 -22t-51.5 22t-21.5 52q0 29 17 49.5t45 24.5q33 5 58.5 -18t25.5 -56zM275 800q0 -31 -21.5 -52.5t-52.5 -21.5q-30 0 -51.5 22t-21.5 52q0 29 17.5 49.5t45.5 24.5q32 4 58 -19t26 -55zM604 63q0 -32 -22.5 -53.5t-54.5 -21.5
q-54 0 -74 65l-5 16l-16 58h-256l-16 -58q-22 -81 -79 -81q-31 0 -54 21.5t-23 52.5q0 18 7 37l6 16l174 480q31 85 113 85t113 -85l180 -496q7 -19 7 -36zM386 264l-81 254l-81 -254h162z" />
    <glyph glyph-name="Aring" unicode="&#xc5;" horiz-adv-x="607" 
d="M396 809q0 -38 -27 -65t-65 -27t-65 27t-27 65t27 64.5t65 26.5t65 -26.5t27 -64.5zM604 63q0 -32 -22.5 -53.5t-54.5 -21.5q-54 0 -74 65l-5 16l-16 58h-256l-16 -58q-22 -81 -79 -81q-31 0 -54 21.5t-23 52.5q0 18 7 37l6 16l174 480q31 85 113 85t113 -85l180 -496
q7 -19 7 -36zM346 808q0 40 -42 42q-18 1 -32 -9.5t-14 -27.5t14.5 -32t31.5 -14q42 2 42 41zM386 264l-81 254l-81 -254h162z" />
    <glyph glyph-name="Ccedilla" unicode="&#xc7;" horiz-adv-x="572" 
d="M552 95q0 -90 -168 -110l-81 -114q-15 -21 -40 -21q-17 0 -32 14.5t-15 31.5q0 13 10 27l48 69q-125 26 -193 120q-65 89 -65 220q0 153 89.5 252.5t241.5 99.5q70 0 124 -21q75 -28 75 -87q0 -28 -17 -48t-45 -20q-18 0 -62.5 16.5t-73.5 16.5q-86 0 -130 -64
q-38 -55 -38 -145q0 -91 40 -144q45 -61 132 -61q36 0 59 10l45 20q18 8 34 8q27 0 44.5 -21.5t17.5 -48.5z" />
    <glyph glyph-name="Eacute" unicode="&#xc9;" horiz-adv-x="461" 
d="M434 69q0 -32 -21.5 -50.5t-54.5 -18.5h-219q-92 0 -92 93v481q0 93 92 93h219q33 0 54.5 -18t21.5 -50t-21.5 -50.5t-54.5 -18.5h-158v-127h143q33 0 54.5 -18t21.5 -50t-21.5 -50.5t-54.5 -18.5h-143v-129h158q33 0 54.5 -18t21.5 -50zM424 806q0 -26 -26 -34l-108 -34
q-12 -2 -18 -2q-33 0 -33 36q0 26 28 34l109 32q5 2 12 2q36 0 36 -34z" />
    <glyph glyph-name="Ntilde" unicode="&#xd1;" horiz-adv-x="681" 
d="M518 818q0 -41 -31.5 -66.5t-73.5 -25.5q-29 0 -77.5 23t-62.5 23q-16 0 -25 -15l-10 -17q-9 -15 -31 -15q-44 0 -44 43q0 42 31 68.5t73 26.5q36 0 71 -18l37 -19q18 -9 34 -9q14 0 28.5 23.5t36.5 23.5q20 0 32 -13t12 -33zM634 78q0 -88 -73 -88q-37 0 -59 29l-20 26
l-282 359v-329q0 -36 -20 -60.5t-56 -24.5t-56.5 24.5t-20.5 60.5v524q0 35 20.5 56.5t54.5 21.5q37 0 64 -34l295 -371v320q0 37 20.5 61t56.5 24t56 -24.5t20 -60.5v-514z" />
    <glyph glyph-name="Odieresis" unicode="&#xd6;" horiz-adv-x="693" 
d="M522 801q0 -30 -21.5 -52t-51.5 -22t-51.5 22t-21.5 52q0 29 17 49.5t45 24.5q33 5 58.5 -18t25.5 -56zM318 801q0 -31 -21.5 -52.5t-52.5 -21.5q-30 0 -51.5 22t-21.5 52q0 29 17.5 49.5t45.5 24.5q32 4 58 -19t26 -55zM676 334q0 -152 -87 -250q-90 -101 -241 -101
q-152 0 -243 100q-88 97 -88 250q0 152 89.5 251.5t240.5 99.5q150 0 241 -101q88 -97 88 -249zM513 334q0 87 -38 145q-44 68 -127 68t-128 -66q-40 -58 -40 -145q0 -88 39 -147q46 -69 129 -69t127 68q38 59 38 146z" />
    <glyph glyph-name="Udieresis" unicode="&#xdc;" horiz-adv-x="660" 
d="M505 800q0 -30 -21.5 -52t-51.5 -22t-51.5 22t-21.5 52q0 29 17 49.5t45 24.5q33 5 58.5 -18t25.5 -56zM301 800q0 -31 -21.5 -52.5t-52.5 -21.5q-30 0 -51.5 22t-21.5 52q0 29 17.5 49.5t45.5 24.5q32 4 58 -19t26 -55zM620 293q0 -143 -73 -225q-77 -85 -218 -85
q-121 0 -205 75t-84 195v339q0 37 20.5 61t56.5 24t56 -24.5t20 -60.5v-317q0 -66 35 -106q37 -43 102 -43q137 0 137 167v299q0 37 20.5 61t56.5 24t56 -24.5t20 -60.5v-299z" />
    <glyph glyph-name="aacute" unicode="&#xe1;" horiz-adv-x="560" 
d="M518 80q0 -36 -19 -60q-20 -27 -55 -27q-50 0 -74 58q-28 -34 -52 -47q-27 -14 -69 -14q-106 -1 -171 82q-61 76 -61 184q0 106 61 181q65 79 169 80q66 1 125 -58q23 54 73 55q31 1 52 -21.5t21 -53.5v-359zM367 256q1 49 -25 85q-29 38 -77 39q-49 1 -77 -39
q-23 -35 -24 -87t24 -87q28 -39 78 -40t77 41q23 35 24 88zM433 635q0 -24 -24 -31l-97 -30q-10 -2 -16 -2q-12 0 -21 10t-9 22q0 24 25 31l98 29q5 2 11 2q33 0 33 -31z" />
    <glyph glyph-name="agrave" unicode="&#xe0;" horiz-adv-x="560" 
d="M518 80q0 -36 -19 -60q-20 -27 -55 -27q-50 0 -74 58q-28 -34 -52 -47q-27 -14 -69 -14q-106 -1 -171 82q-61 76 -61 184q0 106 61 181q65 79 169 80q66 1 125 -58q23 54 73 55q31 1 52 -21.5t21 -53.5v-359zM367 256q1 49 -25 85q-29 38 -77 39q-49 1 -77 -39
q-23 -35 -24 -87t24 -87q28 -39 78 -40t77 41q23 35 24 88zM265 599q0 -15 -4 -19q-8 -9 -22 -9q-9 0 -15 2l-97 30q-24 7 -24 31q0 31 32 31q6 0 11 -2l99 -29q20 -6 20 -35z" />
    <glyph glyph-name="acircumflex" unicode="&#xe2;" horiz-adv-x="560" 
d="M518 80q0 -36 -19 -60q-20 -27 -55 -27q-50 0 -74 58q-28 -34 -52 -47q-27 -14 -69 -14q-106 -1 -171 82q-61 76 -61 184q0 106 61 181q65 79 169 80q66 1 125 -58q23 54 73 55q31 1 52 -21.5t21 -53.5v-359zM367 256q1 49 -25 85q-29 38 -77 39q-49 1 -77 -39
q-23 -35 -24 -87t24 -87q28 -39 78 -40t77 41q23 35 24 88zM381 589q0 -13 -10 -23t-23 -10q-4 0 -7 2l-75 27l-71 -27q-4 -2 -13 -2q-31 0 -31 32q0 22 21 29l82 29q6 3 10 3t13 -3l79 -27q25 -9 25 -30z" />
    <glyph glyph-name="adieresis" unicode="&#xe4;" horiz-adv-x="560" 
d="M464 626q0 -30 -21.5 -52t-51.5 -22t-51.5 22t-21.5 52q0 29 17 49.5t45 24.5q33 5 58.5 -18t25.5 -56zM248 626q0 -31 -21.5 -52.5t-52.5 -21.5q-30 0 -51.5 22t-21.5 52q0 29 17.5 49.5t45.5 24.5q32 4 58 -19t26 -55zM518 80q0 -36 -18 -61q-21 -26 -56 -26
q-52 0 -74 58q-28 -33 -54 -47t-67 -14q-106 0 -171 82q-61 76 -61 184q0 105 62 180q65 81 168 81q68 0 125 -58q23 55 73 55q32 0 52.5 -21.5t20.5 -53.5v-359zM367 256q0 51 -25 85q-28 39 -77 39t-77 -40q-24 -35 -24 -86q0 -52 24 -87q28 -40 78 -40t77 41q24 36 24 88
z" />
    <glyph glyph-name="atilde" unicode="&#xe3;" horiz-adv-x="560" 
d="M518 80q0 -36 -19 -60q-20 -27 -55 -27q-50 0 -74 58q-28 -34 -52 -47q-27 -14 -69 -14q-106 -1 -171 82q-61 76 -61 184q0 106 61 181q65 79 169 80q66 1 125 -58q23 54 73 55q31 1 52 -21.5t21 -53.5v-359zM367 256q1 49 -25 85q-29 38 -77 39q-49 1 -77 -39
q-23 -35 -24 -87t24 -87q28 -39 78 -40t77 41q23 35 24 88zM393 639q0 -29 -22 -47t-51 -18q-17 0 -51.5 16.5t-47.5 16.5q-10 0 -17 -11l-7 -11q-7 -11 -22 -11q-29 0 -30 30q-1 25 20 47q22 19 52 19q29 0 50 -12l25 -14q13 -5 25 -6q6 0 18.5 16t26.5 16q31 0 31 -31z
" />
    <glyph glyph-name="aring" unicode="&#xe5;" horiz-adv-x="560" 
d="M372 642q0 -38 -26.5 -65t-64.5 -27t-65 27t-27 65t27 64.5t65 26.5t64.5 -26.5t26.5 -64.5zM518 80q0 -36 -18 -61q-21 -26 -56 -26q-52 0 -74 58q-28 -33 -54 -47t-67 -14q-106 0 -171 82q-61 76 -61 184q0 105 62 180q65 81 168 81q68 0 125 -58q23 55 73 55
q32 0 52.5 -21.5t20.5 -53.5v-359zM322 642q0 19 -14 31.5t-33 10.5q-36 -5 -36 -42q0 -17 12.5 -29.5t29.5 -12.5t29 12.5t12 29.5zM367 256q0 51 -25 85q-28 39 -77 39t-77 -40q-24 -35 -24 -86q0 -52 24 -87q28 -40 78 -40t77 41q24 36 24 88z" />
    <glyph glyph-name="ccedilla" unicode="&#xe7;" horiz-adv-x="457" 
d="M437 88q0 -39 -40 -63q-20 -12 -75 -31l-87 -112q-22 -28 -45 -28q-18 0 -32 13.5t-14 31.5q0 17 12 33l52 68q-91 13 -143 87q-48 68 -48 164q0 115 68.5 190.5t182.5 75.5q60 0 106 -19q62 -26 62 -78q0 -25 -16 -45.5t-41 -20.5q-15 0 -54 15q-29 11 -53 11
q-50 0 -80 -39q-28 -35 -28 -87q0 -55 28 -89q30 -38 83 -38q24 0 56.5 13.5t44.5 13.5q27 0 44 -19.5t17 -46.5z" />
    <glyph glyph-name="eacute" unicode="&#xe9;" horiz-adv-x="529" 
d="M512 263q1 -58 -64 -58h-274q32 -87 117 -87q39 0 79 20l42 21q12 6 31 7q22 1 41 -18.5t19 -41.5q1 -55 -86 -89q-68 -27 -134 -27q-118 -1 -192 69t-75 187q-1 115 68.5 192.5t183.5 78.5q105 1 174 -73.5t70 -180.5zM367 305q-22 91 -95 92q-72 1 -103 -92h198z
M433 635q0 -24 -24 -31l-97 -30q-10 -2 -16 -2q-12 0 -21 10t-9 22q0 24 25 31l98 29q5 2 11 2q33 0 33 -31z" />
    <glyph glyph-name="egrave" unicode="&#xe8;" horiz-adv-x="529" 
d="M512 263q1 -58 -64 -58h-274q32 -87 117 -87q39 0 79 20l42 21q12 6 31 7q22 1 41 -18.5t19 -41.5q1 -55 -86 -89q-68 -27 -134 -27q-118 -1 -192 69t-75 187q-1 115 68.5 192.5t183.5 78.5q105 1 174 -73.5t70 -180.5zM367 305q-22 91 -95 92q-72 1 -103 -92h198z
M265 599q0 -15 -4 -19q-8 -9 -22 -9q-9 0 -15 2l-97 30q-24 7 -24 31q0 31 32 31q6 0 11 -2l99 -29q20 -6 20 -35z" />
    <glyph glyph-name="ecircumflex" unicode="&#xea;" horiz-adv-x="529" 
d="M512 263q1 -58 -64 -58h-274q32 -87 117 -87q39 0 79 20l42 21q12 6 31 7q22 1 41 -18.5t19 -41.5q1 -55 -86 -89q-68 -27 -134 -27q-118 -1 -192 69t-75 187q-1 115 68.5 192.5t183.5 78.5q105 1 174 -73.5t70 -180.5zM367 305q-22 91 -95 92q-72 1 -103 -92h198z
M381 589q0 -13 -10 -23t-23 -10q-4 0 -7 2l-75 27l-71 -27q-4 -2 -13 -2q-31 0 -31 32q0 22 21 29l82 29q6 3 10 3t13 -3l79 -27q25 -9 25 -30z" />
    <glyph glyph-name="edieresis" unicode="&#xeb;" horiz-adv-x="529" 
d="M447 626q0 -30 -21.5 -52t-51.5 -22t-51.5 22t-21.5 52q0 29 17 49.5t45 24.5q33 5 58.5 -18t25.5 -56zM231 626q0 -31 -21.5 -52.5t-52.5 -21.5q-30 0 -51.5 22t-21.5 52q0 29 17.5 49.5t45.5 24.5q32 4 58 -19t26 -55zM512 263q0 -58 -64 -58h-274q32 -87 117 -87
q39 0 79 20l42 21q14 7 31 7q23 0 41.5 -18.5t18.5 -41.5q0 -55 -87 -89q-68 -27 -133 -27q-116 0 -191.5 70t-75.5 186q0 114 69.5 192.5t182.5 78.5q105 0 174.5 -74t69.5 -180zM367 305q-23 92 -95 92q-73 0 -103 -92h198z" />
    <glyph glyph-name="iacute" unicode="&#xed;" horiz-adv-x="256" 
d="M200 75q0 -35 -19.5 -58t-53.5 -24t-54 23t-20 59v357q0 35 19 58t54 24q33 1 53.5 -23.5t20.5 -58.5v-357zM292 635q0 -24 -24 -31l-97 -30q-10 -2 -16 -2q-12 0 -21 10t-9 22q0 24 25 31l98 29q5 2 11 2q33 0 33 -31z" />
    <glyph glyph-name="igrave" unicode="&#xec;" horiz-adv-x="256" 
d="M200 75q0 -35 -19.5 -58t-53.5 -24t-54 23t-20 59v357q0 35 19 58t54 24q33 1 53.5 -23.5t20.5 -58.5v-357zM125 600q0 -15 -4 -19q-8 -9 -22 -9q-9 0 -15 2l-97 30q-24 7 -24 31q0 31 32 31q6 0 11 -2l99 -29q20 -6 20 -35z" />
    <glyph glyph-name="icircumflex" unicode="&#xee;" horiz-adv-x="169" 
d="M268 591q0 -22 -15.5 -36.5t-37.5 -14.5q-3 0 -11 2l-119 43l-113 -43q-11 -4 -21 -4q-20 0 -34.5 16t-14.5 36q0 33 33 45l130 48q11 4 18 4t19 -4l127 -43q39 -13 39 -49zM157 75q0 -35 -19.5 -58.5t-53.5 -23.5q-35 0 -54.5 23.5t-19.5 58.5v357q0 35 19.5 58.5
t53.5 23.5q35 0 54.5 -23.5t19.5 -58.5v-357z" />
    <glyph glyph-name="idieresis" unicode="&#xef;" horiz-adv-x="169" 
d="M250 626q0 -29 -18.5 -51.5t-47.5 -22.5t-47.5 22.5t-18.5 51.5t19 51t47 22t47 -22t19 -51zM55 626q0 -29 -18.5 -51.5t-47.5 -22.5t-47.5 22.5t-18.5 51.5t19 51t47 22t47 -22t19 -51zM157 75q0 -35 -19.5 -58.5t-53.5 -23.5q-35 0 -54.5 23.5t-19.5 58.5v357
q0 35 19.5 58.5t54.5 23.5q34 0 53.5 -23.5t19.5 -58.5v-357z" />
    <glyph glyph-name="ntilde" unicode="&#xf1;" horiz-adv-x="545" 
d="M470 644q0 -45 -35 -73.5t-81 -28.5q-34 0 -87.5 25.5t-69.5 25.5q-18 0 -28 -17l-11 -18q-10 -17 -34 -17q-49 0 -49 48q0 46 34 75.5t81 29.5q40 0 79 -20l41 -21q20 -10 38 -10q15 0 32 26t41 26q22 0 35.5 -14.5t13.5 -36.5zM502 75q0 -35 -19.5 -58.5t-53.5 -23.5
q-35 0 -54.5 23.5t-19.5 58.5v222q0 40 -20 66q-23 28 -62 28q-36 0 -59.5 -26t-23.5 -62v-228q0 -35 -19.5 -58.5t-53.5 -23.5q-35 0 -54.5 23.5t-19.5 58.5v353q0 37 19.5 61.5t55.5 24.5q48 0 68 -51q58 54 135 54q87 0 134 -49t47 -136v-257z" />
    <glyph glyph-name="oacute" unicode="&#xf3;" horiz-adv-x="526" 
d="M508 253q1 -110 -66 -185q-70 -78 -179 -78q-110 0 -177.5 76t-68.5 187t67.5 187t178.5 77q109 1 178 -78q66 -76 67 -186zM363 254q0 49 -27 85q-29 40 -76 41t-74 -41q-23 -35 -24 -85q-1 -48 24 -85q28 -42 74 -42q48 0 77 41q26 36 26 86zM433 635q0 -24 -24 -31
l-97 -30q-10 -2 -16 -2q-12 0 -21 10t-9 22q0 24 25 31l98 29q5 2 11 2q33 0 33 -31z" />
    <glyph glyph-name="ograve" unicode="&#xf2;" horiz-adv-x="526" 
d="M508 253q1 -110 -66 -185q-70 -78 -179 -78q-110 0 -177.5 76t-68.5 187t67.5 187t178.5 77q109 1 178 -78q66 -76 67 -186zM363 254q0 49 -27 85q-29 40 -76 41t-74 -41q-23 -35 -24 -85q-1 -48 24 -85q28 -42 74 -42q48 0 77 41q26 36 26 86zM265 599q0 -15 -4 -19
q-8 -9 -22 -9q-9 0 -15 2l-97 30q-24 7 -24 31q0 31 32 31q6 0 11 -2l99 -29q20 -6 20 -35z" />
    <glyph glyph-name="ocircumflex" unicode="&#xf4;" horiz-adv-x="526" 
d="M508 253q1 -110 -66 -185q-70 -78 -179 -78q-110 0 -177.5 76t-68.5 187t67.5 187t178.5 77q109 1 178 -78q66 -76 67 -186zM363 254q0 49 -27 85q-29 40 -76 41t-74 -41q-23 -35 -24 -85q-1 -48 24 -85q28 -42 74 -42q48 0 77 41q26 36 26 86zM381 589q0 -13 -10 -23
t-23 -10q-4 0 -7 2l-75 27l-71 -27q-4 -2 -13 -2q-31 0 -31 32q0 22 21 29l82 29q6 3 10 3t13 -3l79 -27q25 -9 25 -30z" />
    <glyph glyph-name="odieresis" unicode="&#xf6;" horiz-adv-x="526" 
d="M446 626q0 -30 -21.5 -52t-51.5 -22t-51.5 22t-21.5 52q0 29 17 49.5t45 24.5q33 5 58.5 -18t25.5 -56zM230 626q0 -31 -21.5 -52.5t-52.5 -21.5q-30 0 -51.5 22t-21.5 52q0 29 17.5 49.5t45.5 24.5q32 4 58 -19t26 -55zM508 253q0 -110 -67 -185q-69 -78 -178 -78
t-179 78q-67 74 -67 185t68.5 187.5t177.5 76.5t177 -77t68 -187zM363 254q0 49 -27 85q-29 41 -76 41q-46 0 -74 -41q-24 -36 -24 -85t24 -85q27 -42 74 -42q48 0 77 41q26 36 26 86z" />
    <glyph glyph-name="otilde" unicode="&#xf5;" horiz-adv-x="526" 
d="M508 253q1 -110 -66 -185q-70 -78 -179 -78q-110 0 -177.5 76t-68.5 187t67.5 187t178.5 77q109 1 178 -78q66 -76 67 -186zM363 254q0 49 -27 85q-29 40 -76 41t-74 -41q-23 -35 -24 -85q-1 -48 24 -85q28 -42 74 -42q48 0 77 41q26 36 26 86zM393 639q0 -29 -22 -47
t-51 -18q-17 0 -51.5 16.5t-47.5 16.5q-10 0 -17 -11l-7 -11q-7 -11 -22 -11q-29 0 -30 30q-1 25 20 47q22 19 52 19q29 0 50 -12l25 -14q13 -5 25 -6q6 0 18.5 16t26.5 16q31 0 31 -31z" />
    <glyph glyph-name="uacute" unicode="&#xfa;" horiz-adv-x="542" 
d="M499 198q0 -98 -64.5 -153t-163.5 -55q-100 0 -162 53q-66 56 -66 155v234q0 35 19 58t54 24q33 1 53.5 -23.5t20.5 -58.5v-216q0 -84 81 -86q38 -1 59.5 23t21.5 63v216q0 80 74 82q33 1 53 -24t20 -58v-234zM433 635q0 -24 -24 -31l-97 -30q-10 -2 -16 -2q-12 0 -21 10
t-9 22q0 24 25 31l98 29q5 2 11 2q33 0 33 -31z" />
    <glyph glyph-name="ugrave" unicode="&#xf9;" horiz-adv-x="542" 
d="M499 198q0 -98 -64.5 -153t-163.5 -55q-100 0 -162 53q-66 56 -66 155v234q0 35 19 58t54 24q33 1 53.5 -23.5t20.5 -58.5v-216q0 -84 81 -86q38 -1 59.5 23t21.5 63v216q0 80 74 82q33 1 53 -24t20 -58v-234zM265 599q0 -15 -4 -19q-8 -9 -22 -9q-9 0 -15 2l-97 30
q-24 7 -24 31q0 31 32 31q6 0 11 -2l99 -29q20 -6 20 -35z" />
    <glyph glyph-name="ucircumflex" unicode="&#xfb;" horiz-adv-x="542" 
d="M454 591q0 -22 -15.5 -36.5t-37.5 -14.5q-3 0 -11 2l-119 43l-113 -43q-11 -4 -21 -4q-20 0 -34.5 16t-14.5 36q0 33 33 45l130 48q11 4 18 4t19 -4l127 -43q39 -13 39 -49zM499 198q0 -98 -66 -154q-62 -54 -162 -54t-162 54q-66 56 -66 154v234q0 35 19.5 58.5
t53.5 23.5q35 0 54.5 -23.5t19.5 -58.5v-216q0 -38 21.5 -62t59.5 -24t59.5 24t21.5 62v216q0 35 19.5 58.5t54.5 23.5q34 0 53.5 -23.5t19.5 -58.5v-234z" />
    <glyph glyph-name="udieresis" unicode="&#xfc;" horiz-adv-x="542" 
d="M454 626q0 -30 -21.5 -52t-51.5 -22t-51.5 22t-21.5 52q0 29 17 49.5t45 24.5q33 5 58.5 -18t25.5 -56zM238 626q0 -31 -21.5 -52.5t-52.5 -21.5q-30 0 -51.5 22t-21.5 52q0 29 17.5 49.5t45.5 24.5q32 4 58 -19t26 -55zM499 198q0 -98 -66 -154q-62 -54 -162 -54
t-162 54q-66 56 -66 154v234q0 35 19.5 58.5t53.5 23.5q35 0 54.5 -23.5t19.5 -58.5v-216q0 -38 21.5 -62t59.5 -24t59.5 24t21.5 62v216q0 35 19.5 58.5t54.5 23.5q34 0 53.5 -23.5t19.5 -58.5v-234z" />
    <glyph glyph-name="degree" unicode="&#xb0;" 
d="M409 515q0 -67 -45.5 -113.5t-112.5 -46.5t-113.5 46t-46.5 113t46.5 113t113.5 46q65 0 111.5 -46.5t46.5 -111.5zM347 513q0 41 -28.5 70t-69.5 29q-40 0 -68 -29t-28 -69t28.5 -69t68.5 -29t68.5 28.5t28.5 68.5z" />
    <glyph glyph-name="registered" unicode="&#xae;" horiz-adv-x="768" 
d="M730 333q0 -144 -101 -245.5t-244 -101.5q-145 0 -246 101.5t-101 246.5t101 246t246 101q144 0 244.5 -101.5t100.5 -246.5zM656 333q0 116 -78.5 198t-193.5 82t-194 -82t-79 -197q0 -116 79 -198t194 -82t193.5 82t78.5 197zM546 145h-90q-5 13 -8 50q-4 57 -13 75
q-15 31 -62 31h-41v-156h-94v384h163q141 0 141 -108q0 -64 -64 -93q52 -20 56 -89l2 -35q2 -42 10 -59zM449 414q0 57 -63 57h-54v-116h48q69 0 69 59z" />
    <glyph glyph-name="copyright" unicode="&#xa9;" horiz-adv-x="768" 
d="M730 333q0 -144 -101 -245.5t-244 -101.5q-145 0 -246 101.5t-101 246.5t101 246t246 101q144 0 244.5 -101.5t100.5 -246.5zM656 333q0 115 -78.5 197.5t-192.5 82.5q-116 0 -195 -81.5t-79 -197.5q0 -115 79 -197.5t194 -82.5t193.5 82t78.5 197zM563 296
q-6 -75 -54 -118t-124 -43q-87 0 -138 56.5t-51 144.5t52.5 144.5t139.5 56.5q67 0 115 -38q52 -41 56 -106h-72q-16 63 -98 63q-49 0 -75 -37q-23 -32 -23 -83t23 -83q26 -37 75 -37q90 0 101 80h73z" />
    <glyph glyph-name="trademark" unicode="&#x2122;" horiz-adv-x="840" 
d="M827 307q0 -19 -15.5 -32.5t-35.5 -13.5q-43 0 -52 46l-2 10l-29 169l-53 -169q-9 -30 -19 -41q-13 -15 -40 -15q-42 0 -57 45l-61 181l-30 -180q-8 -46 -52 -46q-20 0 -35.5 13t-15.5 33q0 8 3 26l49 286q9 54 68 54q48 0 62 -41l66 -191l60 183q16 49 67 49
q57 0 66 -50l53 -289q3 -16 3 -27zM314 623q0 -20 -15 -31.5t-36 -11.5h-51v-265q0 -54 -51 -54q-24 0 -38 15t-14 39v265h-53q-51 0 -51 44q0 20 15 31.5t36 11.5h207q51 0 51 -44z" />
    <glyph glyph-name="notequal" unicode="&#x2260;" 
d="M466 142h-227l-60 -112l-99 54l33 58h-80v133h129l40 75h-168v133h222l69 131l99 -54l-42 -77h84v-133h-138l-40 -75h178v-133z" />
    <glyph glyph-name="infinity" unicode="&#x221e;" horiz-adv-x="667" 
d="M649 340q0 -70 -43.5 -114.5t-113.5 -44.5q-90 0 -157 90q-70 -90 -160 -90q-71 0 -114.5 44.5t-43.5 115.5q0 69 44.5 113.5t113.5 44.5q89 0 156 -90q66 90 160 90q70 0 114 -44.5t44 -114.5zM541 340q0 28 -18.5 46.5t-46.5 18.5q-47 0 -91 -65q45 -65 91 -65
q28 0 46.5 18.5t18.5 46.5zM281 340q-43 65 -91 65q-28 0 -46.5 -18.5t-18.5 -46.5t18.5 -46.5t46.5 -18.5q46 0 91 65z" />
    <glyph glyph-name="plusminus" unicode="&#xb1;" 
d="M492 327h-203v-193h-78v193h-202v75h202v200h78v-200h203v-75zM492 19h-483v75h483v-75z" />
    <glyph glyph-name="lessequal" unicode="&#x2264;" 
d="M466 193l-433 163v133l433 163v-150l-259 -80l259 -80v-149zM466 26h-433v140h433v-140z" />
    <glyph glyph-name="greaterequal" unicode="&#x2265;" 
d="M466 356l-433 -163v149l259 80l-259 80v150l433 -163v-133zM466 26h-433v140h433v-140z" />
    <glyph glyph-name="mu" unicode="&#xb5;" 
d="M471 0h-135v64q-28 -74 -89 -74q-53 0 -84 59v-220h-135v651h135v-249q0 -128 87 -128q86 0 86 132v245h135v-480z" />
    <glyph glyph-name="mu" unicode="&#x3bc;" 
d="M471 0h-135v64q-28 -74 -89 -74q-53 0 -84 59v-220h-135v651h135v-249q0 -128 87 -128q86 0 86 132v245h135v-480z" />
    <glyph glyph-name="partialdiff" unicode="&#x2202;" 
d="M483 263q0 -119 -57 -192q-63 -80 -179 -80q-100 0 -165 64.5t-65 164.5q0 88 56.5 150t144.5 62q69 0 119 -42q-48 84 -116 118q-55 29 -163 39l17 117q190 -21 294 -114q114 -103 114 -287zM346 216q0 42 -26.5 73t-68.5 31q-43 0 -71.5 -31t-28.5 -74q0 -42 28 -73
t69 -31q42 0 70 31t28 74z" />
    <glyph glyph-name="summation" unicode="&#x2211;" horiz-adv-x="667" 
d="M633 -250h-599v160l232 355l-232 325v160h590v-258h-137l-16 119h-267l241 -346l-240 -376h275l9 124h144v-263z" />
    <glyph glyph-name="product" unicode="&#x220f;" horiz-adv-x="667" 
d="M649 -250h-271v121h63v758h-215v-758h62v-121h-270v121h73v758h-73v121h631v-121h-72v-758h72v-121z" />
    <glyph glyph-name="pi" unicode="&#x3c0;" horiz-adv-x="628" 
d="M608 368h-72v-368h-142v368h-159v-368h-142v368h-73v112h588v-112z" />
    <glyph glyph-name="integral" unicode="&#x222b;" 
d="M460 740l-25 -144q-22 10 -44 10q-39 0 -51 -29q-8 -18 -8 -65v-442q0 -123 0 -118q-4 -73 -27 -113q-51 -87 -182 -87q-48 0 -82 8l25 144q24 -10 43 -10q38 0 51 27q9 18 9 62v514q0 126 37 183q47 70 165 70q38 0 89 -10z" />
    <glyph glyph-name="Omega" unicode="&#x3a9;" horiz-adv-x="666" 
d="M642 370q0 -151 -137 -238h134v-132h-270v122q119 62 119 220q0 79 -37 139q-43 70 -118 70q-74 0 -117 -69q-38 -60 -38 -138q0 -160 120 -222v-122h-271v132h135q-138 86 -138 238q0 131 89 222.5t220 91.5t220 -91t89 -223z" />
    <glyph glyph-name="Omega" unicode="&#x2126;" horiz-adv-x="666" 
d="M642 370q0 -151 -137 -238h134v-132h-270v122q119 62 119 220q0 79 -37 139q-43 70 -118 70q-74 0 -117 -69q-38 -60 -38 -138q0 -160 120 -222v-122h-271v132h135q-138 86 -138 238q0 131 89 222.5t220 91.5t220 -91t89 -223z" />
    <glyph glyph-name="logicalnot" unicode="&#xac;" 
d="M466 0h-156v152h-277v140h433v-292z" />
    <glyph glyph-name="radical" unicode="&#x221a;" horiz-adv-x="667" 
d="M667 702h-166l-177 -702h-177l-58 252h-89v125h175l27 -103q13 -51 19 -129l1 -14h8q21 147 63 314l97 382h277v-125z" />
    <glyph glyph-name="approxequal" unicode="&#x2248;" 
d="M492 480q-27 -67 -56 -97q-40 -41 -101 -41q-32 0 -111 34q-49 21 -73 21q-32 0 -65 -49l-78 55q56 139 151 139q33 0 112 -33q57 -24 75 -24q23 0 41 15q11 9 28 35zM492 258q-27 -67 -56 -97q-40 -42 -100 -42q-32 0 -112 34q-49 21 -73 21q-31 0 -65 -49l-78 55
q56 139 151 139q33 0 112 -33q57 -24 75 -24q25 0 41 15q7 7 28 35z" />
    <glyph glyph-name="approxequal" unicode="&#x22f2;" 
d="M492 480q-27 -67 -56 -97q-40 -41 -101 -41q-32 0 -111 34q-49 21 -73 21q-32 0 -65 -49l-78 55q56 139 151 139q33 0 112 -33q57 -24 75 -24q23 0 41 15q11 9 28 35zM492 258q-27 -67 -56 -97q-40 -42 -100 -42q-32 0 -112 34q-49 21 -73 21q-31 0 -65 -49l-78 55
q56 139 151 139q33 0 112 -33q57 -24 75 -24q25 0 41 15q7 7 28 35z" />
    <glyph glyph-name="Delta" unicode="&#x394;" horiz-adv-x="651" 
d="M643 0h-635l238 667h157zM446 132l-121 375l-124 -375h245z" />
    <glyph glyph-name="Delta" unicode="&#x2206;" horiz-adv-x="651" 
d="M643 0h-635l238 667h157zM446 132l-121 375l-124 -375h245z" />
    <glyph glyph-name="nonbreakingspace" unicode="&#xa0;" 
 />
    <glyph glyph-name="Agrave" unicode="&#xc0;" horiz-adv-x="607" 
d="M604 63q1 -31 -22.5 -52.5t-54.5 -22.5q-53 -1 -74 65l-5 16l-16 58h-256l-16 -58q-22 -81 -79 -81q-31 0 -53.5 21.5t-23.5 52.5q-1 17 7 37l6 16l174 480q30 84 113 85q82 1 113 -85l180 -496q6 -17 7 -36zM386 264l-81 254l-81 -254h162zM306 770q0 -36 -34 -36
q-11 0 -17 2l-108 34q-26 8 -26 34q0 34 35 34q7 0 12 -2l111 -32q27 -8 27 -34z" />
    <glyph glyph-name="Atilde" unicode="&#xc3;" horiz-adv-x="607" 
d="M604 63q1 -31 -22.5 -52.5t-54.5 -22.5q-53 -1 -74 65l-5 16l-16 58h-256l-16 -58q-22 -81 -79 -81q-31 0 -53.5 21.5t-23.5 52.5q-1 17 7 37l6 16l174 480q30 84 113 85q82 1 113 -85l180 -496q6 -17 7 -36zM386 264l-81 254l-81 -254h162zM444 815q0 -32 -24 -52
t-57 -20q-21 0 -60 18t-50 18t-19 -12l-8 -12q-6 -12 -24 -12q-33 0 -34 33q-1 32 23 52.5t57 21.5q28 1 56 -14l28 -15q9 -5 27 -7q8 0 22 18t29 18q34 0 34 -35z" />
    <glyph glyph-name="Otilde" unicode="&#xd5;" horiz-adv-x="693" 
d="M676 334q1 -153 -86 -250q-90 -100 -242 -101t-243 99q-87 97 -88 251q-1 152 89 251t241 100q150 1 241 -101q87 -97 88 -249zM513 334q0 87 -38 145q-44 67 -127 68t-128 -66q-39 -58 -40 -145q-1 -88 39 -147q45 -68 129 -69q83 -1 127 68q38 59 38 146zM487 820
q0 -32 -24 -52t-57 -20q-21 0 -60 18t-50 18t-19 -12l-8 -12q-6 -12 -24 -12q-33 0 -34 33q-1 32 23 52.5t57 21.5q28 1 56 -14l28 -15q9 -5 27 -7q8 0 22 18t29 18q34 0 34 -35z" />
    <glyph glyph-name="divide" unicode="&#xf7;" 
d="M308 532q0 -24 -16.5 -41t-40.5 -17t-41 17t-17 41t17 40.5t41 16.5q23 0 40 -17t17 -40zM492 323h-483v75h483v-75zM308 189q0 -24 -16.5 -41t-40.5 -17t-41 17t-17 41t17 40.5t41 16.5q23 0 40 -17t17 -40z" />
    <glyph glyph-name="lozenge" unicode="&#x25ca;" horiz-adv-x="667" 
d="M593 334l-259 -360l-260 360l260 359zM531 334l-197 270l-197 -270l197 -271z" />
    <glyph glyph-name="ydieresis" unicode="&#xff;" horiz-adv-x="497" 
d="M431 626q0 -30 -21.5 -52t-51.5 -22t-51.5 22t-21.5 52q0 29 17 49.5t45 24.5q33 5 58.5 -18t25.5 -56zM215 626q0 -31 -21.5 -52.5t-52.5 -21.5q-30 0 -51.5 22t-21.5 52q0 29 17.5 49.5t45.5 24.5q32 4 58 -19t26 -55zM486 442q0 -21 -8 -39l-7 -16l-230 -549
q-22 -52 -71 -52q-29 0 -51 20.5t-22 49.5q0 17 9 40l6 15l58 135l-151 358q-9 21 -9 39q0 29 22 50t51 21q32 0 51 -20q13 -14 27 -49l86 -218l86 217q14 35 28 50q19 20 51 20q30 0 52 -21t22 -51z" />
    <glyph glyph-name="Ydieresis" unicode="&#x178;" horiz-adv-x="576" 
d="M463 800q0 -30 -21.5 -52t-51.5 -22t-51.5 22t-21.5 52q0 29 17 49.5t45 24.5q33 5 58.5 -18t25.5 -56zM259 800q0 -31 -21.5 -52.5t-52.5 -21.5q-30 0 -51.5 22t-21.5 52q0 29 17.5 49.5t45.5 24.5q32 4 58 -19t26 -55zM557 604q0 -29 -31 -70l-166 -219v-240
q0 -36 -20 -60.5t-56 -24.5t-56.5 24.5t-20.5 60.5v240l-161 220q-29 40 -29 69q0 30 23.5 51.5t53.5 21.5q41 0 67 -40l9 -14l114 -162l128 177q28 39 67 39q30 0 54 -21.5t24 -51.5z" />
    <glyph glyph-name="Acircumflex" unicode="&#xc2;" horiz-adv-x="607" 
d="M604 63q1 -31 -22.5 -52.5t-54.5 -22.5q-53 -1 -74 65l-5 16l-16 58h-256l-16 -58q-22 -81 -79 -81q-31 0 -53.5 21.5t-23.5 52.5q-1 17 7 37l6 16l174 480q30 84 113 85q82 1 113 -85l180 -496q6 -17 7 -36zM386 264l-81 254l-81 -254h162zM434 748q0 -15 -11 -25.5
t-26 -10.5q-4 0 -8 2l-83 30l-79 -30q-8 -3 -15 -3q-14 0 -24 11t-10 25q0 24 23 32l91 33q5 1 12 3q5 0 14 -3l88 -30q28 -10 28 -34z" />
    <glyph glyph-name="Ecircumflex" unicode="&#xca;" horiz-adv-x="461" 
d="M434 69q0 -32 -21.5 -50.5t-54.5 -18.5h-219q-92 0 -92 93v481q0 93 92 93h219q33 0 54.5 -18t21.5 -50t-21.5 -50.5t-54.5 -18.5h-158v-127h143q33 0 54.5 -18t21.5 -50t-21.5 -50.5t-54.5 -18.5h-143v-129h158q33 0 54.5 -18t21.5 -50zM366 753q0 -15 -11 -25.5
t-26 -10.5q-4 0 -8 2l-83 30l-79 -30q-8 -3 -15 -3q-14 0 -24 11t-10 25q0 24 23 32l91 33q5 1 12 3q5 0 14 -3l88 -30q28 -10 28 -34z" />
    <glyph glyph-name="Aacute" unicode="&#xc1;" horiz-adv-x="607" 
d="M604 63q1 -31 -22.5 -52.5t-54.5 -22.5q-53 -1 -74 65l-5 16l-16 58h-256l-16 -58q-22 -81 -79 -81q-31 0 -53.5 21.5t-23.5 52.5q-1 17 7 37l6 16l174 480q30 84 113 85q82 1 113 -85l180 -496q6 -17 7 -36zM386 264l-81 254l-81 -254h162zM490 805q0 -26 -26 -34
l-108 -34q-12 -2 -18 -2q-33 0 -33 36q0 26 28 34l109 32q5 2 12 2q36 0 36 -34z" />
    <glyph glyph-name="Edieresis" unicode="&#xcb;" horiz-adv-x="461" 
d="M392 800q0 -30 -21.5 -52t-51.5 -22t-51.5 22t-21.5 52q0 29 17 49.5t45 24.5q33 5 58.5 -18t25.5 -56zM218 800q0 -31 -21.5 -52.5t-52.5 -21.5q-30 0 -51.5 22t-21.5 52q0 29 17.5 49.5t45.5 24.5q32 4 58 -19t26 -55zM434 69q0 -32 -21.5 -50.5t-54.5 -18.5h-219
q-92 0 -92 93v481q0 93 92 93h219q32 0 54 -18t22 -50t-21.5 -50.5t-54.5 -18.5h-158v-127h143q32 0 54 -18t22 -50t-21.5 -50.5t-54.5 -18.5h-143v-129h158q32 0 54 -18t22 -50z" />
    <glyph glyph-name="Egrave" unicode="&#xc8;" horiz-adv-x="461" 
d="M434 69q0 -32 -21.5 -50.5t-54.5 -18.5h-219q-92 0 -92 93v481q0 93 92 93h219q33 0 54.5 -18t21.5 -50t-21.5 -50.5t-54.5 -18.5h-158v-127h143q33 0 54.5 -18t21.5 -50t-21.5 -50.5t-54.5 -18.5h-143v-129h158q33 0 54.5 -18t21.5 -50zM240 771q0 -36 -34 -36
q-11 0 -17 2l-108 34q-26 8 -26 34q0 34 35 34q7 0 12 -2l111 -32q27 -8 27 -34z" />
    <glyph glyph-name="Iacute" unicode="&#xcd;" horiz-adv-x="246" 
d="M199 75q0 -83 -76 -85q-36 -1 -56.5 23.5t-20.5 61.5v517q0 37 20.5 61t56.5 24q35 0 55.5 -24.5t20.5 -60.5v-517zM309 819q0 -26 -26 -34l-108 -34q-12 -2 -18 -2q-33 0 -33 36q0 26 28 34l109 32q5 2 12 2q36 0 36 -34z" />
    <glyph glyph-name="Icircumflex" unicode="&#xce;" horiz-adv-x="246" 
d="M306 778q0 -22 -15.5 -36.5t-37.5 -14.5q-8 0 -11 2l-119 42l-113 -42q-13 -5 -21 -5q-20 0 -34.5 16t-14.5 36q0 34 33 46l130 47q11 4 18 4t19 -4l127 -43q39 -13 39 -48zM199 75q0 -36 -20 -60.5t-56 -24.5t-56.5 24.5t-20.5 60.5v517q0 37 20.5 61t56.5 24t56 -24.5
t20 -60.5v-517z" />
    <glyph glyph-name="Idieresis" unicode="&#xcf;" horiz-adv-x="246" 
d="M270 793q0 -27 -17 -47t-43 -20t-43 20t-17 47q0 26 17 46t43 20t43 -20t17 -46zM97 793q0 -27 -17 -47t-43 -20t-43 20t-17 47q0 26 17 46t43 20t43 -20t17 -46zM200 75q0 -36 -20 -60.5t-56 -24.5t-56.5 24.5t-20.5 60.5v517q0 37 20.5 61t56.5 24t56 -24.5t20 -60.5
v-517z" />
    <glyph glyph-name="Igrave" unicode="&#xcc;" horiz-adv-x="246" 
d="M199 75q0 -83 -76 -85q-36 -1 -56.5 23.5t-20.5 61.5v517q0 37 20.5 61t56.5 24q35 0 55.5 -24.5t20.5 -60.5v-517zM124 786q0 -36 -34 -36q-11 0 -17 2l-108 34q-26 8 -26 34q0 34 35 34q7 0 12 -2l111 -32q27 -8 27 -34z" />
    <glyph glyph-name="Oacute" unicode="&#xd3;" horiz-adv-x="693" 
d="M676 334q1 -153 -86 -250q-90 -100 -242 -101t-243 99q-87 97 -88 251q-1 152 89 251t241 100q150 1 241 -101q87 -97 88 -249zM513 334q0 87 -38 145q-44 67 -127 68t-128 -66q-39 -58 -40 -145q-1 -88 39 -147q45 -68 129 -69q83 -1 127 68q38 59 38 146zM534 811
q0 -26 -26 -34l-108 -34q-12 -2 -18 -2q-33 0 -33 36q0 26 28 34l109 32q5 2 12 2q36 0 36 -34z" />
    <glyph glyph-name="Ocircumflex" unicode="&#xd4;" horiz-adv-x="693" 
d="M676 334q1 -153 -86 -250q-90 -100 -242 -101t-243 99q-87 97 -88 251q-1 152 89 251t241 100q150 1 241 -101q87 -97 88 -249zM513 334q0 87 -38 145q-44 67 -127 68t-128 -66q-39 -58 -40 -145q-1 -88 39 -147q45 -68 129 -69q83 -1 127 68q38 59 38 146zM477 758
q0 -15 -11 -25.5t-26 -10.5q-4 0 -8 2l-83 30l-79 -30q-8 -3 -15 -3q-14 0 -24 11t-10 25q0 24 23 32l91 33q5 1 12 3q5 0 14 -3l88 -30q28 -10 28 -34z" />
    <glyph glyph-name="apple" unicode="&#xf000;" horiz-adv-x="327" 
d="M301 312q0 -49 -44 -49t-44 49v133q0 57 -49 57q-22 0 -36 -15.5t-14 -37.5v-137q0 -49 -44 -49t-44 49v212q0 51 45 51q28 0 41 -30q33 32 81 32q108 0 108 -111v-154z" />
    <glyph glyph-name="Ograve" unicode="&#xd2;" horiz-adv-x="693" 
d="M676 334q1 -153 -86 -250q-90 -100 -242 -101t-243 99q-87 97 -88 251q-1 152 89 251t241 100q150 1 241 -101q87 -97 88 -249zM513 334q0 87 -38 145q-44 67 -127 68t-128 -66q-39 -58 -40 -145q-1 -88 39 -147q45 -68 129 -69q83 -1 127 68q38 59 38 146zM350 776
q0 -36 -34 -36q-11 0 -17 2l-108 34q-26 8 -26 34q0 34 35 34q7 0 12 -2l111 -32q27 -8 27 -34z" />
    <glyph glyph-name="Uacute" unicode="&#xda;" horiz-adv-x="660" 
d="M620 293q0 -143 -73 -224q-76 -85 -218 -86q-122 -1 -204 73q-85 76 -85 197v339q0 37 20.5 61t56.5 24q35 0 55.5 -24.5t20.5 -60.5v-317q0 -67 35.5 -108t101.5 -41q137 -1 137 167v299q0 37 20.5 61t56.5 24q35 0 55.5 -24.5t20.5 -60.5v-299zM514 796q0 -26 -26 -34
l-108 -34q-12 -2 -18 -2q-33 0 -33 36q0 26 28 34l109 32q5 2 12 2q36 0 36 -34z" />
    <glyph glyph-name="Ucircumflex" unicode="&#xdb;" horiz-adv-x="660" 
d="M513 778q0 -22 -15.5 -36.5t-37.5 -14.5q-8 0 -11 2l-119 42l-113 -42q-13 -5 -21 -5q-20 0 -34.5 16t-14.5 36q0 34 33 46l130 47q11 4 19 4q7 0 19 -4l126 -43q39 -13 39 -48zM620 293q0 -143 -73 -225q-77 -85 -218 -85q-121 0 -205 75t-84 195v339q0 37 20.5 61
t56.5 24t56 -24.5t20 -60.5v-317q0 -66 35 -106q37 -43 102 -43q137 0 137 167v299q0 37 20.5 61t56.5 24t56 -24.5t20 -60.5v-299z" />
    <glyph glyph-name="Ugrave" unicode="&#xd9;" horiz-adv-x="660" 
d="M620 293q0 -143 -73 -224q-76 -85 -218 -86q-122 -1 -204 73q-85 76 -85 197v339q0 37 20.5 61t56.5 24q35 0 55.5 -24.5t20.5 -60.5v-317q0 -67 35.5 -108t101.5 -41q137 -1 137 167v299q0 37 20.5 61t56.5 24q35 0 55.5 -24.5t20.5 -60.5v-299zM330 761q0 -36 -34 -36
q-11 0 -17 2l-108 34q-26 8 -26 34q0 34 35 34q7 0 12 -2l111 -32q27 -8 27 -34z" />
    <glyph glyph-name="glyph258" horiz-adv-x="278" 
 />
    <glyph glyph-name="glyph259" horiz-adv-x="278" 
 />
    <glyph glyph-name="sfthyphen" unicode="&#xad;" horiz-adv-x="338" 
d="M8 174l33 122h246l-33 -122h-246z" />
    <glyph glyph-name="Cacute" unicode="&#x106;" horiz-adv-x="711" 
d="M552 95q0 -59 -77 -90q-56 -22 -126 -22q-153 0 -244 100q-89 97 -89 251q0 152 90 251t241 99q70 0 124 -21q75 -28 75 -87q0 -28 -17 -48t-45 -20q-18 0 -62.5 16.5t-73.5 16.5q-86 0 -130 -64q-38 -55 -38 -145q0 -91 39 -145q45 -61 133 -61q33 0 58 11l46 20
q18 8 34 8q27 0 44.5 -21.5t17.5 -48.5zM559 909q0 -38 -37 -49l-155 -48q-13 -4 -25 -4q-21 0 -34.5 15.5t-13.5 36.5q0 37 40 49l157 46q10 3 17 3q21 0 36 -14t15 -35z" />
    <glyph glyph-name="cacute" unicode="&#x107;" horiz-adv-x="441" 
d="M437 88q0 -50 -67 -77q-51 -21 -109 -21q-109 0 -176.5 74t-67.5 184q0 117 66 191q69 78 185 78q60 0 106 -19q62 -26 62 -78q0 -25 -16 -45.5t-41 -20.5q-15 0 -54 15q-29 11 -53 11q-50 0 -80 -39q-28 -35 -28 -87q0 -55 28 -89q30 -38 83 -38q24 0 56.5 13.5
t44.5 13.5q27 0 44 -19.5t17 -46.5zM360 654q0 -38 -37 -49l-155 -48q-13 -4 -25 -4q-21 0 -34.5 15.5t-13.5 36.5q0 37 40 49l157 46q10 3 17 3q21 0 36 -14t15 -35z" />
    <glyph glyph-name="Ccaron" unicode="&#x10c;" horiz-adv-x="711" 
d="M552 95q0 -59 -77 -90q-56 -22 -126 -22q-153 0 -244 100q-89 97 -89 251q0 152 90 251t241 99q70 0 124 -21q75 -28 75 -87q0 -28 -17 -48t-45 -20q-18 0 -62.5 16.5t-73.5 16.5q-86 0 -130 -64q-38 -55 -38 -145q0 -91 39 -145q45 -61 133 -61q33 0 58 11l46 20
q18 8 34 8q27 0 44.5 -21.5t17.5 -48.5zM610 884q0 -36 -39 -49l-127 -42q-15 -5 -19 -5t-18 5l-130 47q-33 12 -33 45q0 20 14.5 36t34.5 16q10 0 21 -4l113 -42l119 42q6 2 11 2q22 0 37.5 -14.5t15.5 -36.5z" />
    <glyph glyph-name="ccaron" unicode="&#x10d;" horiz-adv-x="441" 
d="M437 88q0 -50 -67 -77q-51 -21 -109 -21q-109 0 -176.5 74t-67.5 184q0 117 66 191q69 78 185 78q60 0 106 -19q62 -26 62 -78q0 -25 -16 -45.5t-41 -20.5q-15 0 -54 15q-29 11 -53 11q-50 0 -80 -39q-28 -35 -28 -87q0 -55 28 -89q30 -38 83 -38q24 0 56.5 13.5
t44.5 13.5q27 0 44 -19.5t17 -46.5zM411 629q0 -36 -39 -49l-127 -42q-15 -5 -19 -5t-18 5l-130 47q-33 12 -33 45q0 20 14.5 36t34.5 16q10 0 21 -4l113 -42l119 42q6 2 11 2q22 0 37.5 -14.5t15.5 -36.5z" />
    <glyph glyph-name="Dslash" unicode="&#x110;" horiz-adv-x="637" 
d="M200 400h36q28 0 46.5 -15.5t18.5 -42.5q0 -59 -65 -59h-36v-150h76q180 0 181 201q1 200 -199 200h-58v-134zM47 284q-23 2 -37.5 18t-14.5 39q0 50 52 58v176q0 92 92 92h144q157 0 247 -90t90 -247q0 -147 -83 -237q-86 -95 -231 -93l-168 2q-91 1 -91 93v189z" />
    <glyph glyph-name="dcroat" unicode="&#x111;" horiz-adv-x="554" 
d="M364 261q1 48 -25 85q-29 40 -75 41q-48 1 -76 -40q-25 -36 -26 -86t25 -86q29 -41 77 -41t75 41q24 36 25 86zM510 629q33 -4 37 -36q0 -33 -37 -37v-479q0 -83 -73 -84q-51 -1 -72 58q-44 -60 -127 -61q-100 -1 -164 85q-58 77 -59 181q-1 100 62 178q68 83 166 83
q64 0 120 -46v85h-81q-41 0 -41 36q0 37 41 37h81v23q0 80 74 82q33 1 53 -24t20 -58v-23z" />
    <glyph glyph-name="Gbreve" unicode="&#x11e;" horiz-adv-x="767" 
d="M653 299q0 -136 -85.5 -226t-220.5 -90q-150 0 -240.5 98t-90.5 249q0 154 94.5 254t247.5 100q75 0 153 -32q97 -41 97 -106q0 -27 -20.5 -47.5t-47.5 -20.5q-24 0 -54 19l-39 25q-39 25 -97 25q-83 0 -130 -68q-41 -59 -41 -146q0 -90 41 -148q47 -65 133 -65
q118 0 143 138h-89q-33 0 -54.5 18.5t-21.5 50.5t22 50t54 18h164q82 0 82 -96zM603 884q0 -42 -60 -71q-51 -24 -98 -24q-45 0 -96 24q-60 29 -60 70q0 18 14 30.5t32 13.5q14 1 36 -20q34 -33 75 -33q35 0 65 24q36 28 49 28q16 0 29.5 -13t13.5 -29z" />
    <glyph glyph-name="gbreve" unicode="&#x11f;" horiz-adv-x="492" 
d="M506 45q0 -121 -70 -188t-191 -67q-70 0 -134 22q-87 30 -87 87q0 27 20.5 45.5t47.5 18.5q11 0 23 -4l42 -14q54 -18 90 -18q64 0 90 34q22 28 27 96q-28 -36 -53 -50q-28 -17 -70 -17q-104 0 -167 79q-58 73 -58 180t59 184q64 84 168 84q66 0 121 -58q29 55 71 55
q34 0 52.5 -23.5t18.5 -57.5v-388zM361 253q0 50 -25 86q-28 41 -75 41q-49 0 -75 -42q-23 -35 -23 -87q0 -49 24 -84q28 -40 75 -40t75 41q24 35 24 85zM403 629q0 -42 -60 -71q-51 -24 -98 -24q-45 0 -96 24q-60 29 -60 70q0 18 14 30.5t32 13.5q14 1 36 -20
q34 -33 75 -33q35 0 65 24q36 28 49 28q16 0 29.5 -13t13.5 -29z" />
    <glyph glyph-name="Idotaccent" unicode="&#x130;" horiz-adv-x="429" 
d="M199 75q0 -36 -20 -60.5t-56 -24.5t-56.5 24.5t-20.5 60.5v517q0 37 20.5 61t56.5 24t56 -24.5t20 -60.5v-517zM351 881q0 -31 -21.5 -52.5t-52.5 -21.5q-30 0 -51.5 22t-21.5 52q0 29 17.5 49.5t45.5 24.5q32 4 58 -19t26 -55z" />
    <glyph glyph-name="Scedilla" unicode="&#x15e;" horiz-adv-x="656" 
d="M508 207q0 -109 -74 -169q-69 -55 -180 -55q-76 0 -138 21q-89 30 -89 92q0 29 19 51t48 22q17 0 38 -8l53 -20q40 -15 77 -15q34 0 58 18.5t24 51.5q0 38 -49 62q-9 4 -83 26q-91 28 -128 58q-52 44 -52 124q0 102 73 162q68 56 172 56q64 0 114 -19q70 -27 70 -80
q0 -31 -19.5 -51t-50.5 -20q-12 0 -23 4l-28 10q-36 13 -68 13q-29 0 -51 -13q-26 -15 -26 -42q0 -40 62 -57l41 -11q98 -26 147 -68q63 -54 63 -143zM380 0l-90 -118q-21 -28 -45 -28q-18 0 -32 14t-14 32t12 33l52 67h117z" />
    <glyph glyph-name="scedilla" unicode="&#x15f;" horiz-adv-x="383" 
d="M409 154q0 -78 -59 -123q-54 -41 -135 -41q-59 0 -116 24q-72 31 -72 82q0 24 18 45t42 21q18 0 32 -6l45 -20q36 -16 59 -16q43 0 43 33q0 23 -57 44l-40 15q-127 48 -127 141q0 76 57 122q53 42 132 42q54 0 104 -24q63 -29 63 -77q0 -24 -16.5 -44t-39.5 -20
q-18 0 -63 20q-34 15 -56 15q-39 0 -39 -26q0 -19 31 -33l46 -18q72 -28 102 -55q46 -39 46 -101zM283 0l-90 -118q-21 -28 -45 -28q-18 0 -32 14t-14 32t12 33l52 67h117z" />
    <glyph glyph-name="franc" unicode="&#x20a3;" horiz-adv-x="1035" 
d="M437 599q0 -32 -21.5 -50.5t-54.5 -18.5h-161v-133h136q32 0 54 -18t22 -50t-21.5 -50.5t-54.5 -18.5h-136v-185q0 -36 -20 -60.5t-56 -24.5t-56.5 24.5t-20.5 60.5v499q0 93 92 93h222q32 0 54 -18t22 -50zM1018 441q0 -30 -24 -46q-13 -9 -51 -21q-52 -16 -71 -31
q-30 -23 -30 -67v-201q0 -35 -19.5 -58.5t-53.5 -23.5q-35 0 -54.5 23.5t-19.5 58.5v355q0 36 19 60t55 24q49 0 73 -52q55 55 101 55q32 0 53.5 -22t21.5 -54z" />
    <glyph glyph-name="u20AB" unicode="&#x20ab;" horiz-adv-x="393" 
d="M197 501q-48 0 -84 -88q-20 -49 -20 -90q0 -51 39 -51q41 0 74 71q28 60 28 107q0 51 -37 51zM200 267q-53 -62 -106 -62q-45 0 -68 28t-23 74q0 80 55 153q59 78 136 78q34 0 61 -24l20 75h-100l10 36h100l2 16q0 31 -48 32l7 33q67 2 128 14l15 3q6 0 6 -9l-3 -12
l-19 -77h65l-10 -36h-65l-69 -280q-5 -20 -5 -27q0 -15 12 -15q6 0 49 42l20 -18q-70 -86 -117 -86q-43 0 -53 62zM9 160h221v-56h-221v56z" />
    <glyph glyph-name="SF370000" unicode="&#x255f;" horiz-adv-x="718" 
d="M604 63q0 -32 -22.5 -53.5t-54.5 -21.5q-54 0 -74 65l-5 16l-16 58h-256l-16 -58q-22 -81 -79 -81q-31 0 -54 21.5t-23 52.5q0 18 7 37l6 16l174 480q31 85 113 85t113 -85l180 -496q7 -19 7 -36zM386 264l-81 254l-81 -254h162z" />
    <glyph glyph-name="SF420000" unicode="&#x2560;" horiz-adv-x="681" 
d="M434 69q0 -32 -21.5 -50.5t-54.5 -18.5h-219q-92 0 -92 93v481q0 93 92 93h219q32 0 54 -18t22 -50t-21.5 -50.5t-54.5 -18.5h-158v-127h143q32 0 54 -18t22 -50t-21.5 -50.5t-54.5 -18.5h-143v-129h158q32 0 54 -18t22 -50z" />
    <glyph glyph-name="SF190000" unicode="&#x2561;" horiz-adv-x="429" 
d="M199 75q0 -36 -20 -60.5t-56 -24.5t-56.5 24.5t-20.5 60.5v517q0 37 20.5 61t56.5 24t56 -24.5t20 -60.5v-517z" />
    <glyph glyph-name="SF200000" unicode="&#x2562;" horiz-adv-x="773" 
d="M676 334q0 -152 -87 -250q-90 -101 -241 -101q-152 0 -243 100q-88 97 -88 250q0 152 89.5 251.5t240.5 99.5q150 0 241 -101q88 -97 88 -249zM513 334q0 87 -38 145q-44 68 -127 68t-128 -66q-40 -58 -40 -145q0 -88 39 -147q46 -69 129 -69t127 68q38 59 38 146z" />
    <glyph glyph-name="SF230000" unicode="&#x2563;" horiz-adv-x="811" 
d="M620 293q0 -143 -73 -225q-77 -85 -218 -85q-121 0 -205 75t-84 195v339q0 37 20.5 61t56.5 24t56 -24.5t20 -60.5v-317q0 -66 35 -106q37 -43 102 -43q137 0 137 167v299q0 37 20.5 61t56.5 24t56 -24.5t20 -60.5v-299z" />
    <glyph glyph-name="SF470000" unicode="&#x2564;" horiz-adv-x="699" 
d="M557 604q0 -29 -31 -70l-166 -219v-240q0 -36 -20 -60.5t-56 -24.5t-56.5 24.5t-20.5 60.5v240l-161 220q-29 40 -29 69q0 30 23.5 51.5t53.5 21.5q41 0 67 -40l9 -14l114 -162l128 177q28 39 67 39q30 0 54 -21.5t24 -51.5z" />
    <glyph glyph-name="SF480000" unicode="&#x2565;" horiz-adv-x="541" 
d="M518 80q0 -36 -18 -61q-21 -26 -56 -26q-52 0 -74 58q-28 -33 -54 -47t-67 -14q-106 0 -171 82q-61 76 -61 184q0 105 62 180q65 81 168 81q68 0 125 -58q23 55 73 55q32 0 52.5 -21.5t20.5 -53.5v-359zM367 256q0 51 -25 85q-28 39 -77 39t-77 -40q-24 -35 -24 -86
q0 -52 24 -87q28 -40 78 -40t77 41q24 36 24 88z" />
    <glyph glyph-name="SF410000" unicode="&#x2566;" horiz-adv-x="431" 
d="M512 263q0 -58 -64 -58h-274q32 -87 117 -87q39 0 79 20l42 21q14 7 31 7q23 0 41.5 -18.5t18.5 -41.5q0 -55 -87 -89q-68 -27 -133 -27q-116 0 -191.5 70t-75.5 186q0 114 69.5 192.5t182.5 78.5q105 0 174.5 -74t69.5 -180zM367 305q-23 92 -95 92q-73 0 -103 -92h198z
" />
    <glyph glyph-name="SF450000" unicode="&#x2567;" horiz-adv-x="314" 
d="M214 647q0 -36 -25 -61t-61 -25t-60.5 25t-24.5 61q0 35 25 60t60 25q36 0 61 -24.5t25 -60.5zM200 75q0 -35 -19.5 -58.5t-53.5 -23.5q-35 0 -54.5 23.5t-19.5 58.5v357q0 35 19.5 58.5t53.5 23.5q35 0 54.5 -23.5t19.5 -58.5v-357z" />
    <glyph glyph-name="SF460000" unicode="&#x2568;" horiz-adv-x="314" 
d="M157 75q0 -35 -19.5 -58.5t-53.5 -23.5q-35 0 -54.5 23.5t-19.5 58.5v357q0 35 19.5 58.5t53.5 23.5q35 0 54.5 -23.5t19.5 -58.5v-357z" />
    <glyph glyph-name="SF400000" unicode="&#x2569;" horiz-adv-x="498" 
d="M508 253q0 -110 -67 -185q-69 -78 -178 -78t-179 78q-67 74 -67 185t68.5 187.5t177.5 76.5t177 -77t68 -187zM363 254q0 49 -27 85q-29 41 -76 41q-46 0 -74 -41q-24 -36 -24 -85t24 -85q27 -42 74 -42q48 0 77 41q26 36 26 86z" />
    <glyph glyph-name="SF540000" unicode="&#x256a;" horiz-adv-x="557" 
d="M499 198q0 -98 -66 -154q-62 -54 -162 -54t-162 54q-66 56 -66 154v234q0 35 19.5 58.5t53.5 23.5q35 0 54.5 -23.5t19.5 -58.5v-216q0 -38 21.5 -62t59.5 -24t59.5 24t21.5 62v216q0 35 19.5 58.5t54.5 23.5q34 0 53.5 -23.5t19.5 -58.5v-234z" />
    <glyph glyph-name="SF530000" unicode="&#x256b;" horiz-adv-x="497" 
d="M486 442q0 -21 -8 -39l-7 -16l-230 -549q-22 -52 -71 -52q-29 0 -51 20.5t-22 49.5q0 17 9 40l6 15l58 135l-151 358q-9 21 -9 39q0 29 22 50t51 21q32 0 51 -20q13 -14 27 -49l86 -218l86 217q14 35 28 50q19 20 51 20q30 0 52 -21t22 -51z" />
    <glyph glyph-name="circle" unicode="&#x25cb;" horiz-adv-x="718" 
d="M661 823q0 -22 -15.5 -36.5t-37.5 -14.5q-3 0 -11 2l-119 43l-113 -43q-11 -4 -21 -4q-20 0 -34.5 16t-14.5 36q0 33 33 45l130 48q11 4 18 4t19 -4l127 -43q39 -13 39 -49zM584 1074q0 -38 -37 -49l-155 -48q-13 -4 -25 -4q-21 0 -34.5 15.5t-13.5 36.5q0 37 40 49
l157 46q10 3 17 3q21 0 36 -14t15 -35z" />
    <glyph glyph-name="H18533" unicode="&#x25cf;" horiz-adv-x="718" 
d="M661 823q0 -22 -15.5 -36.5t-37.5 -14.5q-3 0 -11 2l-119 43l-113 -43q-11 -4 -21 -4q-20 0 -34.5 16t-14.5 36q0 33 33 45l130 48q11 4 18 4t19 -4l127 -43q39 -13 39 -49zM693 1026q0 -21 -13.5 -36.5t-34.5 -15.5q-12 0 -25 4l-154 48q-38 12 -38 49q0 21 15 35t36 14
q7 0 17 -3l158 -46q39 -11 39 -49z" />
    <glyph glyph-name="invbullet" unicode="&#x25d8;" horiz-adv-x="718" 
d="M661 823q0 -22 -15.5 -36.5t-37.5 -14.5q-3 0 -11 2l-119 43l-113 -43q-11 -4 -21 -4q-20 0 -34.5 16t-14.5 36q0 33 33 45l130 48q11 4 18 4t19 -4l127 -43q39 -13 39 -49zM614 903q9 29 11 64q1 11 8 13q3 0 8 1q67 11 67 54q0 35 -28 35q-5 0 -14 -1t-14 -1
q-21 0 -21 18q0 28 32 28q46 0 76 -25.5t26 -70.5q-6 -59 -87 -81q-25 -7 -31 -34h-33z" />
    <glyph glyph-name="invcircle" unicode="&#x25d9;" horiz-adv-x="718" 
d="M661 823q0 -22 -15.5 -36.5t-37.5 -14.5q-3 0 -11 2l-119 43l-113 -43q-11 -4 -21 -4q-20 0 -34.5 16t-14.5 36q0 33 33 45l130 48q11 4 18 4t19 -4l127 -43q39 -13 39 -49zM723 1064q0 -45 -35 -73.5t-81 -28.5q-34 0 -87.5 25.5t-69.5 25.5q-18 0 -28 -17l-11 -18
q-10 -17 -34 -17q-49 0 -49 48q0 46 34 75.5t81 29.5q40 0 79 -20l41 -21q20 -10 38 -10q15 0 32 26t41 26q22 0 35.5 -14.5t13.5 -36.5z" />
    <glyph glyph-name="glyph275" horiz-adv-x="249" 
 />
    <glyph glyph-name="glyph276" horiz-adv-x="249" 
 />
    <glyph glyph-name="ch270" unicode="&#xb7;" horiz-adv-x="249" 
d="M38 348q0 34 23 57t57 23t57.5 -23t23.5 -57t-23.5 -57.5t-57.5 -23.5t-57 23.5t-23 57.5z" />
    <glyph glyph-name="ch270" unicode="&#x2219;" horiz-adv-x="249" 
d="M38 348q0 34 23 57t57 23t57.5 -23t23.5 -57t-23.5 -57.5t-57.5 -23.5t-57 23.5t-23 57.5z" />
    <glyph glyph-name="euro" horiz-adv-x="498" 
d="M522 633l-23 -156l-48 6q0 157 -94 157q-103 0 -161 -211h172l-21 -48h-164q-6 -24 -16 -73h147l-21 -47h-134q-6 -41 -6 -74q0 -56 21 -91q26 -43 78 -43q58 0 101 68q24 38 51 119l55 -10l-54 -188q-77 -53 -159 -53q-111 0 -166 84q-47 71 -47 188h-74l21 47h56
q3 25 12 73h-66l21 48h59q41 112 108 183q83 88 187 88q94 0 165 -67z" />
    <glyph glyph-name="glyph261" 
d="M253 522q9 29 11 64q1 11 8 13q3 0 8 1q67 11 67 54q0 35 -28 35q-5 0 -14 -1t-14 -1q-21 0 -21 18q0 28 32 28q46 0 76 -25.5t26 -70.5q-6 -59 -87 -81q-25 -7 -31 -34h-33z" />
    <glyph glyph-name="glyph262" horiz-adv-x="541" 
d="M458 591q0 -22 -15.5 -36.5t-37.5 -14.5q-3 0 -11 2l-119 43l-113 -43q-11 -4 -21 -4q-20 0 -34.5 16t-14.5 36q0 33 33 45l130 48q11 4 18 4t19 -4l127 -43q39 -13 39 -49zM380 843q0 -38 -37 -49l-155 -48q-13 -4 -25 -4q-21 0 -34.5 15.5t-13.5 36.5q0 37 40 49
l157 46q10 3 17 3q21 0 36 -14t15 -35z" />
    <glyph glyph-name="glyph263" horiz-adv-x="541" 
d="M458 591q0 -22 -15.5 -36.5t-37.5 -14.5q-3 0 -11 2l-119 43l-113 -43q-11 -4 -21 -4q-20 0 -34.5 16t-14.5 36q0 33 33 45l130 48q11 4 18 4t19 -4l127 -43q39 -13 39 -49zM490 794q0 -21 -13.5 -36.5t-34.5 -15.5q-12 0 -25 4l-154 48q-38 12 -38 49q0 21 15 35t36 14
q7 0 17 -3l158 -46q39 -11 39 -49z" />
    <glyph glyph-name="glyph264" horiz-adv-x="541" 
d="M458 591q0 -22 -15.5 -36.5t-37.5 -14.5q-3 0 -11 2l-119 43l-113 -43q-11 -4 -21 -4q-20 0 -34.5 16t-14.5 36q0 33 33 45l130 48q11 4 18 4t19 -4l127 -43q39 -13 39 -49zM411 671q9 29 11 64q1 11 8 13q3 0 8 1q67 11 67 54q0 35 -28 35q-5 0 -14 -1t-14 -1
q-21 0 -21 18q0 28 32 28q46 0 76 -25.5t26 -70.5q-6 -59 -87 -81q-25 -7 -31 -34h-33z" />
    <glyph glyph-name="glyph265" horiz-adv-x="541" 
d="M458 591q0 -22 -15.5 -36.5t-37.5 -14.5q-3 0 -11 2l-119 43l-113 -43q-11 -4 -21 -4q-20 0 -34.5 16t-14.5 36q0 33 33 45l130 48q11 4 18 4t19 -4l127 -43q39 -13 39 -49zM520 832q0 -45 -35 -73.5t-81 -28.5q-34 0 -87.5 25.5t-69.5 25.5q-18 0 -28 -17l-11 -18
q-10 -17 -34 -17q-49 0 -49 48q0 46 34 75.5t81 29.5q40 0 79 -20l41 -21q20 -10 38 -10q15 0 32 26t41 26q22 0 35.5 -14.5t13.5 -36.5z" />
    <glyph glyph-name="glyph266" horiz-adv-x="541" 
d="M437 628q0 -42 -60 -71q-51 -24 -98 -24q-45 0 -96 24q-60 29 -60 70q0 18 14 30.5t32 13.5q14 1 36 -20q34 -33 75 -33q35 0 65 24q36 28 49 28q16 0 29.5 -13t13.5 -29zM459 843q0 -38 -37 -49l-155 -48q-13 -4 -25 -4q-21 0 -34.5 15.5t-13.5 36.5q0 37 40 49l157 46
q10 3 17 3q21 0 36 -14t15 -35z" />
    <glyph glyph-name="glyph267" horiz-adv-x="541" 
d="M437 628q0 -42 -60 -71q-51 -24 -98 -24q-45 0 -96 24q-60 29 -60 70q0 18 14 30.5t32 13.5q14 1 36 -20q34 -33 75 -33q35 0 65 24q36 28 49 28q16 0 29.5 -13t13.5 -29zM437 794q0 -21 -13.5 -36.5t-34.5 -15.5q-12 0 -25 4l-154 48q-38 12 -38 49q0 21 15 35t36 14
q7 0 17 -3l158 -46q39 -11 39 -49z" />
    <glyph glyph-name="glyph268" horiz-adv-x="541" 
d="M437 628q0 -42 -60 -71q-51 -24 -98 -24q-45 0 -96 24q-60 29 -60 70q0 18 14 30.5t32 13.5q14 1 36 -20q34 -33 75 -33q35 0 65 24q36 28 49 28q16 0 29.5 -13t13.5 -29zM306 671q9 29 11 64q1 11 8 13q3 0 8 1q67 11 67 54q0 35 -28 35q-5 0 -14 -1t-14 -1
q-21 0 -21 18q0 28 32 28q46 0 76 -25.5t26 -70.5q-6 -59 -87 -81q-25 -7 -31 -34h-33z" />
    <glyph glyph-name="glyph269" horiz-adv-x="541" 
d="M437 628q0 -42 -60 -71q-51 -24 -98 -24q-45 0 -96 24q-60 29 -60 70q0 18 14 30.5t32 13.5q14 1 36 -20q34 -33 75 -33q35 0 65 24q36 28 49 28q16 0 29.5 -13t13.5 -29zM520 832q0 -45 -35 -73.5t-81 -28.5q-34 0 -87.5 25.5t-69.5 25.5q-18 0 -28 -17l-11 -18
q-10 -17 -34 -17q-49 0 -49 48q0 46 34 75.5t81 29.5q40 0 79 -20l41 -21q20 -10 38 -10q15 0 32 26t41 26q22 0 35.5 -14.5t13.5 -36.5z" />
    <glyph glyph-name="glyph270" horiz-adv-x="249" 
 />
    <glyph glyph-name="glyph271" unicode="&#x102;" horiz-adv-x="607" 
d="M604 63q1 -31 -22.5 -52.5t-54.5 -22.5q-53 -1 -74 65l-5 16l-16 58h-256l-16 -58q-22 -81 -79 -81q-31 0 -53.5 21.5t-23.5 52.5q-1 17 7 37l6 16l174 480q30 84 113 85q82 1 113 -85l180 -496q6 -17 7 -36zM386 264l-81 254l-81 -254h162zM416 787q0 -29 -43 -49
q-36 -17 -68 -17q-33 0 -67 17q-41 20 -42 49q0 10 9 21q8 7 23 10q10 0 25 -14q24 -23 53 -23q21 0 46.5 17.5t32.5 18.5q28 0 31 -30z" />
    <glyph glyph-name="glyph272" unicode="&#x103;" horiz-adv-x="560" 
d="M518 80q0 -36 -19 -60q-20 -27 -55 -27q-50 0 -74 58q-28 -34 -52 -47q-27 -14 -69 -14q-106 -1 -171 82q-61 76 -61 184q0 106 61 181q65 79 169 80q66 1 125 -58q23 54 73 55q31 1 52 -21.5t21 -53.5v-359zM367 256q1 49 -25 85q-29 38 -77 39q-49 1 -77 -39
q-23 -35 -24 -87t24 -87q28 -39 78 -40t77 41q23 35 24 88zM366 615q0 -26 -38 -44q-32 -15 -62 -15q-29 0 -60 15q-37 18 -38 44q0 9 8 19q6 5 21 9q8 0 22 -13q21 -20 48 -20q21 0 43 15.5t28 16.5q10 0 18.5 -8.5t9.5 -18.5z" />
    <glyph glyph-name="glyph273" unicode="&#x128;" horiz-adv-x="246" 
d="M199 75q0 -83 -76 -85q-36 -1 -56.5 23.5t-20.5 61.5v517q0 37 20.5 61t56.5 24q35 0 55.5 -24.5t20.5 -60.5v-517zM260 815q0 -32 -24 -52t-57 -20q-21 0 -60 18t-50 18t-19 -12l-8 -12q-6 -12 -24 -12q-33 0 -34 33q-1 32 23 52.5t57 21.5q28 1 56 -14l28 -15
q9 -5 27 -7q8 0 22 18t29 18q34 0 34 -35z" />
    <glyph glyph-name="glyph274" unicode="&#x129;" horiz-adv-x="256" 
d="M200 75q0 -35 -19.5 -58t-53.5 -24t-54 23t-20 59v357q0 35 19 58t54 24q33 1 53.5 -23.5t20.5 -58.5v-357zM251 639q0 -29 -22 -47t-51 -18q-17 0 -51.5 16.5t-47.5 16.5q-10 0 -17 -11l-7 -11q-7 -11 -22 -11q-29 0 -30 30q-1 25 20 47q22 19 52 19q29 0 50 -12l25 -14
q13 -5 25 -6q6 0 18.5 16t26.5 16q31 0 31 -31z" />
    <glyph glyph-name="ch903" unicode="&#x168;" horiz-adv-x="660" 
d="M620 293q0 -143 -73 -224q-76 -85 -218 -86q-122 -1 -204 73q-85 76 -85 197v339q0 37 20.5 61t56.5 24q35 0 55.5 -24.5t20.5 -60.5v-317q0 -67 35.5 -108t101.5 -41q137 -1 137 167v299q0 37 20.5 61t56.5 24q35 0 55.5 -24.5t20.5 -60.5v-299zM467 805q0 -32 -24 -52
t-57 -20q-21 0 -60 18t-50 18t-19 -12l-8 -12q-6 -12 -24 -12q-33 0 -34 33q-1 32 23 52.5t57 21.5q28 1 56 -14l28 -15q9 -5 27 -7q8 0 22 18t29 18q34 0 34 -35z" />
    <glyph glyph-name="ch904" unicode="&#x169;" horiz-adv-x="542" 
d="M499 198q0 -98 -64.5 -153t-163.5 -55q-100 0 -162 53q-66 56 -66 155v234q0 35 19 58t54 24q33 1 53.5 -23.5t20.5 -58.5v-216q0 -84 81 -86q38 -1 59.5 23t21.5 63v216q0 80 74 82q33 1 53 -24t20 -58v-234zM393 639q0 -29 -22 -47t-51 -18q-17 0 -51.5 16.5
t-47.5 16.5q-10 0 -17 -11l-7 -11q-7 -11 -22 -11q-29 0 -30 30q-1 25 20 47q22 19 52 19q29 0 50 -12l25 -14q13 -5 25 -6q6 0 18.5 16t26.5 16q31 0 31 -31z" />
    <glyph glyph-name="glyph277" unicode="&#x1a0;" horiz-adv-x="693" 
d="M513 334q0 87 -38 145q-44 67 -127 68t-128 -66q-39 -58 -40 -145q-1 -88 39 -147q45 -68 129 -69q83 -1 127 68q38 59 38 146zM552 616q12 12 20 16l21 16q10 6 15 15q2 8 -3 19t-5 16q0 18 19 26q13 0 22 -3q18 -10 23 -35q5 -24 -9 -48q-10 -17 -34 -35l-30 -24
q84 -95 85 -245q1 -153 -86 -250q-90 -100 -242 -101t-243 99q-87 97 -88 251q-1 152 89 251t241 100q121 1 205 -68z" />
    <glyph glyph-name="glyph278" unicode="&#x1a1;" horiz-adv-x="526" 
d="M363 254q0 49 -27 85q-29 40 -76 41t-74 -41q-23 -35 -24 -85q-1 -48 24 -85q28 -42 74 -42q48 0 77 41q26 36 26 86zM412 465q2 2 5.5 4.5t4.5 3.5l19 14q11 11 13 15q4 8 -4 19q-6 9 0 21q6 9 14 13q11 3 20 0q17 -6 22 -26q8 -34 -32 -68q-27 -23 -30 -26
q63 -74 64 -182q1 -110 -66 -185q-70 -78 -179 -78q-110 0 -177.5 76t-68.5 187t67.5 187t178.5 77q86 1 149 -52z" />
    <glyph glyph-name="glyph279" unicode="&#x1af;" horiz-adv-x="660" 
d="M620 585v-292q0 -143 -73 -224q-76 -85 -218 -86q-122 -1 -204 73q-85 76 -85 197v339q0 37 20.5 61t56.5 24q35 0 55.5 -24.5t20.5 -60.5v-317q0 -67 35.5 -108t101.5 -41q137 -1 137 167v299q0 37 20.5 61t56.5 24q38 0 64 -35l8 6q10 6 15 15q2 8 -3 19t-5 16
q0 18 19 26q13 0 22 -3q18 -10 23 -35q9 -45 -43 -83z" />
    <glyph glyph-name="glyph280" unicode="&#x1b0;" horiz-adv-x="542" 
d="M499 439v-241q0 -98 -64.5 -153t-163.5 -55q-100 0 -162 53q-66 56 -66 155v234q0 35 19 58t54 24q33 1 53.5 -23.5t20.5 -58.5v-216q0 -84 81 -86q38 -1 59.5 23t21.5 63v216q0 80 74 82q37 1 59 -32l7 5q11 11 13 15q4 8 -4 19q-6 9 0 21q6 9 14 13q11 3 20 0
q17 -6 22 -26q9 -35 -30 -67q-13 -10 -28 -23z" />
    <glyph glyph-name="glyph281" unicode="&#x1ea0;" horiz-adv-x="607" 
d="M604 63q1 -31 -22.5 -52.5t-54.5 -22.5q-53 -1 -74 65l-5 16l-16 58h-256l-16 -58q-22 -81 -79 -81q-31 0 -53.5 21.5t-23.5 52.5q-1 17 7 37l6 16l174 480q30 84 113 85q82 1 113 -85l180 -496q6 -17 7 -36zM386 264l-81 254l-81 -254h162zM362 -79q0 -24 -16 -41
t-40 -17t-41 17t-17 41t17 40t41 16t40 -16t16 -40z" />
    <glyph glyph-name="glyph282" unicode="&#x1ea1;" horiz-adv-x="560" 
d="M518 80q0 -36 -19 -60q-20 -27 -55 -27q-50 0 -74 58q-28 -34 -52 -47q-27 -14 -69 -14q-106 -1 -171 82q-61 76 -61 184q0 106 61 181q65 79 169 80q66 1 125 -58q23 54 73 55q31 1 52 -21.5t21 -53.5v-359zM367 256q1 49 -25 85q-29 38 -77 39q-49 1 -77 -39
q-23 -35 -24 -87t24 -87q28 -39 78 -40t77 41q23 35 24 88zM322 -98q1 -23 -15 -38.5t-39 -15.5q-53 0 -53 54q0 51 53 53q22 1 39 -15q14 -16 15 -38z" />
    <glyph glyph-name="glyph283" unicode="&#x1ea2;" horiz-adv-x="607" 
d="M604 63q1 -31 -22.5 -52.5t-54.5 -22.5q-53 -1 -74 65l-5 16l-16 58h-256l-16 -58q-22 -81 -79 -81q-31 0 -53.5 21.5t-23.5 52.5q-1 17 7 37l6 16l174 480q30 84 113 85q82 1 113 -85l180 -496q6 -17 7 -36zM386 264l-81 254l-81 -254h162zM402 841q1 -62 -67 -78v-3
q0 -34 -29 -34q-26 0 -30 32v26q0 20 26 25q33 6 34 31q1 26 -30 26q-13 0 -29.5 -17.5t-26.5 -17.5q-28 0 -28 27q0 30 29 50q26 18 57 18q39 0 66 -23t28 -62z" />
    <glyph glyph-name="glyph284" unicode="&#x1ea3;" horiz-adv-x="560" 
d="M518 80q0 -36 -19 -60q-20 -27 -55 -27q-50 0 -74 58q-28 -34 -52 -47q-27 -14 -69 -14q-106 -1 -171 82q-61 76 -61 184q0 106 61 181q65 79 169 80q66 1 125 -58q23 54 73 55q31 1 52 -21.5t21 -53.5v-359zM367 256q1 49 -25 85q-29 38 -77 39q-49 1 -77 -39
q-23 -35 -24 -87t24 -87q28 -39 78 -40t77 41q23 35 24 88zM356 658q1 -54 -60 -70v-3q0 -30 -26 -30q-23 0 -27 29v23q0 20 23 22q30 6 31 28q1 24 -27 24q-12 0 -26 -16t-25 -16q-25 0 -25 24q0 27 26 46q23 16 52 16q35 0 59 -21t25 -56z" />
    <glyph glyph-name="glyph285" unicode="&#x1ea4;" horiz-adv-x="607" 
d="M604 63q1 -31 -22.5 -52.5t-54.5 -22.5q-53 -1 -74 65l-5 16l-16 58h-256l-16 -58q-22 -81 -79 -81q-31 0 -53.5 21.5t-23.5 52.5q-1 17 7 37l6 16l174 480q30 84 113 85q82 1 113 -85l180 -496q6 -17 7 -36zM386 264l-81 254l-81 -254h162zM434 748q0 -15 -11 -25.5
t-26 -10.5q-4 0 -8 2l-83 30l-79 -30q-8 -3 -15 -3q-14 0 -24 11t-10 25q0 24 23 32l91 33q5 1 12 3q5 0 14 -3l88 -30q28 -10 28 -34zM610 851q0 -26 -26 -34l-108 -34q-12 -2 -18 -2q-33 0 -33 36q0 26 28 34l109 32q5 2 12 2q36 0 36 -34z" />
    <glyph glyph-name="glyph286" unicode="&#x1ea5;" horiz-adv-x="560" 
d="M518 80q0 -36 -19 -60q-20 -27 -55 -27q-50 0 -74 58q-28 -34 -52 -47q-27 -14 -69 -14q-106 -1 -171 82q-61 76 -61 184q0 106 61 181q65 79 169 80q66 1 125 -58q23 54 73 55q31 1 52 -21.5t21 -53.5v-359zM367 256q1 49 -25 85q-29 38 -77 39q-49 1 -77 -39
q-23 -35 -24 -87t24 -87q28 -39 78 -40t77 41q23 35 24 88zM380 588q0 -13 -10 -23t-23 -10q-4 0 -8 2l-74 27l-71 -27q-5 -2 -14 -2q-30 0 -30 32q0 22 20 29l82 29q4 1 11 3q4 0 13 -3l79 -27q25 -9 25 -30zM538 680q0 -23 -23 -30l-97 -31q-6 -1 -17 -1q-29 0 -29 32
q0 23 25 30l98 29q5 2 11 2q32 0 32 -31z" />
    <glyph glyph-name="glyph287" unicode="&#x1ea6;" horiz-adv-x="607" 
d="M604 63q1 -31 -22.5 -52.5t-54.5 -22.5q-53 -1 -74 65l-5 16l-16 58h-256l-16 -58q-22 -81 -79 -81q-31 0 -53.5 21.5t-23.5 52.5q-1 17 7 37l6 16l174 480q30 84 113 85q82 1 113 -85l180 -496q6 -17 7 -36zM386 264l-81 254l-81 -254h162zM434 748q0 -15 -11 -25.5
t-26 -10.5q-4 0 -8 2l-83 30l-79 -30q-8 -3 -15 -3q-14 0 -24 11t-10 25q0 24 23 32l91 33q5 1 12 3q5 0 14 -3l88 -30q28 -10 28 -34zM188 818q0 -36 -34 -36q-11 0 -17 2l-108 34q-26 8 -26 34q0 34 35 34q7 0 12 -2l111 -32q27 -8 27 -34z" />
    <glyph glyph-name="glyph288" unicode="&#x1ea7;" horiz-adv-x="560" 
d="M518 80q0 -36 -19 -60q-20 -27 -55 -27q-50 0 -74 58q-28 -34 -52 -47q-27 -14 -69 -14q-106 -1 -171 82q-61 76 -61 184q0 106 61 181q65 79 169 80q66 1 125 -58q23 54 73 55q31 1 52 -21.5t21 -53.5v-359zM367 256q1 49 -25 85q-29 38 -77 39q-49 1 -77 -39
q-23 -35 -24 -87t24 -87q28 -39 78 -40t77 41q23 35 24 88zM380 588q0 -13 -10 -23t-23 -10q-4 0 -7 2l-75 27l-71 -27q-5 -2 -13 -2q-31 0 -31 32q0 21 21 29l81 29q5 1 11 3q4 0 13 -3l79 -27q25 -9 25 -30zM159 651q0 -33 -31 -33q-9 0 -15 2l-97 31q-24 8 -24 30
q0 31 32 31q6 0 11 -2l100 -29q24 -7 24 -30z" />
    <glyph glyph-name="glyph289" unicode="&#x1ea8;" horiz-adv-x="607" 
d="M604 63q1 -31 -22.5 -52.5t-54.5 -22.5q-53 -1 -74 65l-5 16l-16 58h-256l-16 -58q-22 -81 -79 -81q-31 0 -53.5 21.5t-23.5 52.5q-1 17 7 37l6 16l174 480q30 84 113 85q82 1 113 -85l180 -496q6 -17 7 -36zM386 264l-81 254l-81 -254h162zM434 748q0 -15 -11 -25.5
t-26 -10.5q-4 0 -8 2l-83 30l-79 -30q-8 -3 -15 -3q-14 0 -24 11t-10 25q0 24 23 32l91 33q5 1 12 3q5 0 14 -3l88 -30q28 -10 28 -34zM588 859q1 -62 -67 -78v-3q0 -34 -29 -34q-26 0 -30 32v26q0 20 26 25q33 6 34 31q1 26 -30 26q-13 0 -29.5 -17.5t-26.5 -17.5
q-28 0 -28 27q0 30 29 50q26 18 57 18q39 0 66 -23t28 -62z" />
    <glyph glyph-name="glyph290" unicode="&#x1ea9;" horiz-adv-x="560" 
d="M518 80q0 -36 -19 -60q-20 -27 -55 -27q-50 0 -74 58q-28 -34 -52 -47q-27 -14 -69 -14q-106 -1 -171 82q-61 76 -61 184q0 106 61 181q65 79 169 80q66 1 125 -58q23 54 73 55q31 1 52 -21.5t21 -53.5v-359zM367 256q1 49 -25 85q-29 38 -77 39q-49 1 -77 -39
q-23 -35 -24 -87t24 -87q28 -39 78 -40t77 41q23 35 24 88zM380 588q0 -13 -10 -22.5t-23 -9.5q-4 0 -7 2l-75 27l-71 -27q-8 -3 -14 -3q-12 0 -21 10t-9 23q0 20 21 28l81 30q5 1 11 3q4 0 13 -3l79 -27q25 -9 25 -31zM519 688q1 -54 -61 -70v-3q0 -30 -26 -30
q-24 0 -27 29v23q0 12 6 16q3 5 18 6q29 6 30 28q1 24 -27 24q-12 0 -27 -16t-23 -16q-25 0 -25 25q0 27 26 45q23 16 51 16q35 0 59.5 -21.5t25.5 -55.5z" />
    <glyph glyph-name="glyph291" unicode="&#x1eaa;" horiz-adv-x="607" 
d="M604 63q1 -31 -22.5 -52.5t-54.5 -22.5q-53 -1 -74 65l-5 16l-16 58h-256l-16 -58q-22 -81 -79 -81q-31 0 -53.5 21.5t-23.5 52.5q-1 17 7 37l6 16l174 480q30 84 113 85q82 1 113 -85l180 -496q6 -17 7 -36zM386 264l-81 254l-81 -254h162zM434 748q0 -15 -11 -25.5
t-26 -10.5q-4 0 -8 2l-83 30l-79 -30q-8 -3 -15 -3q-14 0 -24 11t-10 25q0 24 23 32l91 33q5 1 12 3q5 0 14 -3l88 -30q28 -10 28 -34zM444 909q0 -32 -24 -52t-57 -20q-21 0 -60 18t-50 18t-19 -12l-8 -12q-6 -12 -24 -12q-33 0 -34 33q-1 32 23 52.5t57 21.5q28 1 56 -14
l28 -15q9 -5 27 -7q8 0 22 18t29 18q34 0 34 -35z" />
    <glyph glyph-name="glyph292" unicode="&#x1eab;" horiz-adv-x="560" 
d="M518 80q0 -36 -19 -60q-20 -27 -55 -27q-50 0 -74 58q-28 -34 -52 -47q-27 -14 -69 -14q-106 -1 -171 82q-61 76 -61 184q0 106 61 181q65 79 169 80q66 1 125 -58q23 54 73 55q31 1 52 -21.5t21 -53.5v-359zM367 256q1 49 -25 85q-29 38 -77 39q-49 1 -77 -39
q-23 -35 -24 -87t24 -87q28 -39 78 -40t77 41q23 35 24 88zM380 588q0 -32 -33 -32q-4 0 -7 2l-75 27l-71 -27q-6 -3 -13 -3q-31 0 -31 32q0 21 21 29l82 30q4 2 10 2q7 0 13 -2l79 -27q25 -9 25 -31zM389 733q0 -30 -21 -47.5t-52 -17.5q-17 0 -52 16.5t-46 16.5t-18 -11
l-7 -11q-5 -11 -21 -11q-30 0 -31 30q-1 28 21 47t51 19q28 0 50 -12l26 -14q12 -4 24 -6q7 0 19.5 16t26.5 16q30 0 30 -31z" />
    <glyph glyph-name="glyph293" unicode="&#x1eac;" horiz-adv-x="607" 
d="M604 63q1 -31 -22.5 -52.5t-54.5 -22.5q-53 -1 -74 65l-5 16l-16 58h-256l-16 -58q-22 -81 -79 -81q-31 0 -53.5 21.5t-23.5 52.5q-1 17 7 37l6 16l174 480q30 84 113 85q82 1 113 -85l180 -496q6 -17 7 -36zM386 264l-81 254l-81 -254h162zM434 748q0 -15 -11 -25.5
t-26 -10.5q-4 0 -8 2l-83 30l-79 -30q-8 -3 -15 -3q-14 0 -24 11t-10 25q0 24 23 32l91 33q5 1 12 3q5 0 14 -3l88 -30q28 -10 28 -34zM362 -79q0 -24 -16 -41t-40 -17t-41 17t-17 41t17 40t41 16t40 -16t16 -40z" />
    <glyph glyph-name="glyph294" unicode="&#x1ead;" horiz-adv-x="560" 
d="M518 80q0 -36 -19 -60q-20 -27 -55 -27q-50 0 -74 58q-28 -34 -52 -47q-27 -14 -69 -14q-106 -1 -171 82q-61 76 -61 184q0 106 61 181q65 79 169 80q66 1 125 -58q23 54 73 55q31 1 52 -21.5t21 -53.5v-359zM367 256q1 49 -25 85q-29 38 -77 39q-49 1 -77 -39
q-23 -35 -24 -87t24 -87q28 -39 78 -40t77 41q23 35 24 88zM381 589q0 -13 -10 -23t-23 -10q-4 0 -7 2l-75 27l-71 -27q-4 -2 -13 -2q-31 0 -31 32q0 22 21 29l82 29q6 3 10 3t13 -3l79 -27q25 -9 25 -30zM322 -98q1 -23 -15 -38.5t-39 -15.5q-53 0 -53 54q0 51 53 53
q22 1 39 -15q14 -16 15 -38z" />
    <glyph glyph-name="glyph295" unicode="&#x1eae;" horiz-adv-x="607" 
d="M604 63q1 -31 -22.5 -52.5t-54.5 -22.5q-53 -1 -74 65l-5 16l-16 58h-256l-16 -58q-22 -81 -79 -81q-31 0 -53.5 21.5t-23.5 52.5q-1 17 7 37l6 16l174 480q30 84 113 85q82 1 113 -85l180 -496q6 -17 7 -36zM386 264l-81 254l-81 -254h162zM416 787q0 -29 -43 -49
q-36 -17 -68 -17q-33 0 -67 17q-41 20 -42 49q0 10 9 21q8 7 23 10q10 0 25 -14q24 -23 53 -23q21 0 46.5 17.5t32.5 18.5q28 0 31 -30zM490 898q0 -26 -26 -34l-108 -34q-12 -2 -18 -2q-33 0 -33 36q0 26 28 34l109 32q5 2 12 2q36 0 36 -34z" />
    <glyph glyph-name="glyph296" unicode="&#x1eaf;" horiz-adv-x="560" 
d="M518 80q0 -36 -19 -60q-20 -27 -55 -27q-50 0 -74 58q-28 -34 -52 -47q-27 -14 -69 -14q-106 -1 -171 82q-61 76 -61 184q0 106 61 181q65 79 169 80q66 1 125 -58q23 54 73 55q31 1 52 -21.5t21 -53.5v-359zM367 256q1 49 -25 85q-29 38 -77 39q-49 1 -77 -39
q-23 -35 -24 -87t24 -87q28 -39 78 -40t77 41q23 35 24 88zM366 615q0 -26 -38 -44q-32 -15 -62 -15q-29 0 -60 15q-37 18 -38 44q0 9 8 19q6 5 21 9q8 0 22 -13q21 -20 48 -20q21 0 43 15.5t28 16.5q10 0 18.5 -8.5t9.5 -18.5zM433 715q0 -24 -24 -31l-97 -30
q-10 -2 -16 -2q-12 0 -21 10t-9 22q0 24 25 31l98 29q5 2 11 2q33 0 33 -31z" />
    <glyph glyph-name="glyph297" unicode="&#x1eb0;" horiz-adv-x="607" 
d="M604 63q1 -31 -22.5 -52.5t-54.5 -22.5q-53 -1 -74 65l-5 16l-16 58h-256l-16 -58q-22 -81 -79 -81q-31 0 -53.5 21.5t-23.5 52.5q-1 17 7 37l6 16l174 480q30 84 113 85q82 1 113 -85l180 -496q6 -17 7 -36zM386 264l-81 254l-81 -254h162zM416 787q0 -29 -43 -49
q-36 -17 -68 -17q-33 0 -67 17q-41 20 -42 49q0 10 9 21q8 7 23 10q10 0 25 -14q24 -23 53 -23q21 0 46.5 17.5t32.5 18.5q28 0 31 -30zM301 858q0 -31 -29 -31q-11 0 -17 2l-108 34q-26 8 -26 34q0 34 35 34q7 0 12 -2l111 -32q22 -6 22 -39z" />
    <glyph glyph-name="glyph298" unicode="&#x1eb1;" horiz-adv-x="560" 
d="M518 80q0 -36 -19 -60q-20 -27 -55 -27q-50 0 -74 58q-28 -34 -52 -47q-27 -14 -69 -14q-106 -1 -171 82q-61 76 -61 184q0 106 61 181q65 79 169 80q66 1 125 -58q23 54 73 55q31 1 52 -21.5t21 -53.5v-359zM367 256q1 49 -25 85q-29 38 -77 39q-49 1 -77 -39
q-23 -35 -24 -87t24 -87q28 -39 78 -40t77 41q23 35 24 88zM366 615q0 -25 -39 -44q-31 -15 -61 -15q-29 0 -60 15q-36 18 -38 44q-1 10 8 19q8 6 21 9q8 0 22 -13q21 -20 48 -20q20 0 41 15t30 17q8 0 19 -8q8 -8 9 -19zM262 679q0 -15 -4 -19q-8 -9 -22 -9q-9 0 -15 2
l-97 30q-24 7 -24 31q0 31 32 31q6 0 11 -2l99 -29q20 -6 20 -35z" />
    <glyph glyph-name="glyph299" unicode="&#x1eb2;" horiz-adv-x="607" 
d="M604 63q1 -31 -22.5 -52.5t-54.5 -22.5q-53 -1 -74 65l-5 16l-16 58h-256l-16 -58q-22 -81 -79 -81q-31 0 -53.5 21.5t-23.5 52.5q-1 17 7 37l6 16l174 480q30 84 113 85q82 1 113 -85l180 -496q6 -17 7 -36zM386 264l-81 254l-81 -254h162zM416 787q0 -29 -43 -49
q-36 -17 -68 -17q-33 0 -67 17q-41 20 -42 49q0 10 9 21q8 7 23 10q10 0 25 -14q24 -23 53 -23q21 0 46.5 17.5t32.5 18.5q28 0 31 -30zM402 940q1 -62 -67 -78v-3q0 -34 -29 -34q-26 0 -30 32v26q0 20 26 25q33 6 34 31q1 26 -30 26q-13 0 -29.5 -17.5t-26.5 -17.5
q-28 0 -28 27q0 30 29 50q26 18 57 18q39 0 66 -23t28 -62z" />
    <glyph glyph-name="glyph300" unicode="&#x1eb3;" horiz-adv-x="560" 
d="M518 80q0 -36 -19 -60q-20 -27 -55 -27q-50 0 -74 58q-28 -34 -52 -47q-27 -14 -69 -14q-106 -1 -171 82q-61 76 -61 184q0 106 61 181q65 79 169 80q66 1 125 -58q23 54 73 55q31 1 52 -21.5t21 -53.5v-359zM367 256q1 49 -25 85q-29 38 -77 39q-49 1 -77 -39
q-23 -35 -24 -87t24 -87q28 -39 78 -40t77 41q23 35 24 88zM369 615q0 -25 -39 -44q-31 -15 -61 -15q-29 0 -60 15q-37 18 -38 44q0 9 8 19q5 5 21 9q8 0 22 -13q21 -20 48 -20q20 0 41 15t30 17q8 0 19 -8q8 -8 9 -19zM356 753q2 -56 -60 -70v-3q0 -31 -26 -31
q-24 0 -27 29v23q0 10 5 17q6 3 18 6q30 6 31 28q1 23 -27 23q-12 0 -26.5 -15.5t-24.5 -15.5q-25 0 -25 24q0 27 25 44t53 17q36 0 59.5 -20.5t24.5 -55.5z" />
    <glyph glyph-name="glyph301" unicode="&#x1eb4;" horiz-adv-x="607" 
d="M604 63q1 -31 -22.5 -52.5t-54.5 -22.5q-53 -1 -74 65l-5 16l-16 58h-256l-16 -58q-22 -81 -79 -81q-31 0 -53.5 21.5t-23.5 52.5q-1 17 7 37l6 16l174 480q30 84 113 85q82 1 113 -85l180 -496q6 -17 7 -36zM386 264l-81 254l-81 -254h162zM416 787q0 -29 -43 -49
q-36 -17 -68 -17q-33 0 -67 17q-41 20 -42 49q0 10 9 21q8 7 23 10q10 0 25 -14q24 -23 53 -23q21 0 46.5 17.5t32.5 18.5q28 0 31 -30zM548 914q0 -32 -24 -52t-57 -20q-21 0 -60 18t-50 18t-19 -12l-8 -12q-6 -12 -24 -12q-33 0 -34 33q-1 32 23 52.5t57 21.5q28 1 56 -14
l28 -15q9 -5 27 -7q8 0 22 18t29 18q34 0 34 -35z" />
    <glyph glyph-name="glyph302" unicode="&#x1eb5;" horiz-adv-x="560" 
d="M518 80q0 -36 -19 -60q-20 -27 -55 -27q-50 0 -74 58q-28 -34 -52 -47q-27 -14 -69 -14q-106 -1 -171 82q-61 76 -61 184q0 106 61 181q65 79 169 80q66 1 125 -58q23 54 73 55q31 1 52 -21.5t21 -53.5v-359zM367 256q1 49 -25 85q-29 38 -77 39q-49 1 -77 -39
q-23 -35 -24 -87t24 -87q28 -39 78 -40t77 41q23 35 24 88zM369 615q0 -24 -39 -44q-34 -16 -61 -16q-29 0 -60 16q-37 18 -38 44q0 7 8 19q9 6 21 9q9 0 23 -13q22 -21 47 -21q19 0 42 16t29 17q10 0 18.5 -8.5t9.5 -18.5zM488 725q0 -29 -22 -47t-51 -18q-17 0 -51.5 16.5
t-47.5 16.5q-10 0 -17 -11l-7 -11q-7 -11 -22 -11q-29 0 -30 30q-1 25 20 47q22 19 52 19q29 0 50 -12l25 -14q13 -5 25 -6q6 0 18.5 16t26.5 16q31 0 31 -31z" />
    <glyph glyph-name="glyph303" unicode="&#x1eb6;" horiz-adv-x="607" 
d="M604 63q1 -31 -22.5 -52.5t-54.5 -22.5q-53 -1 -74 65l-5 16l-16 58h-256l-16 -58q-22 -81 -79 -81q-31 0 -53.5 21.5t-23.5 52.5q-1 17 7 37l6 16l174 480q30 84 113 85q82 1 113 -85l180 -496q6 -17 7 -36zM386 264l-81 254l-81 -254h162zM416 787q0 -29 -43 -49
q-36 -17 -68 -17q-33 0 -67 17q-41 20 -42 49q0 10 9 21q8 7 23 10q10 0 25 -14q24 -23 53 -23q21 0 46.5 17.5t32.5 18.5q28 0 31 -30zM362 -79q0 -24 -16 -41t-40 -17t-41 17t-17 41t17 40t41 16t40 -16t16 -40z" />
    <glyph glyph-name="glyph304" unicode="&#x1eb7;" horiz-adv-x="560" 
d="M518 80q0 -36 -19 -60q-20 -27 -55 -27q-50 0 -74 58q-28 -34 -52 -47q-27 -14 -69 -14q-106 -1 -171 82q-61 76 -61 184q0 106 61 181q65 79 169 80q66 1 125 -58q23 54 73 55q31 1 52 -21.5t21 -53.5v-359zM367 256q1 49 -25 85q-29 38 -77 39q-49 1 -77 -39
q-23 -35 -24 -87t24 -87q28 -39 78 -40t77 41q23 35 24 88zM366 615q0 -26 -38 -44q-32 -15 -62 -15q-29 0 -60 15q-37 18 -38 44q0 9 8 19q6 5 21 9q8 0 22 -13q21 -20 48 -20q21 0 43 15.5t28 16.5q10 0 18.5 -8.5t9.5 -18.5zM322 -98q1 -23 -15 -38.5t-39 -15.5
q-53 0 -53 54q0 51 53 53q22 1 39 -15q14 -16 15 -38z" />
    <glyph glyph-name="glyph305" unicode="&#x1eb8;" horiz-adv-x="461" 
d="M434 69q0 -32 -21.5 -50.5t-54.5 -18.5h-219q-92 0 -92 93v481q0 93 92 93h219q33 0 54.5 -18t21.5 -50t-21.5 -50.5t-54.5 -18.5h-158v-127h143q33 0 54.5 -18t21.5 -50t-21.5 -50.5t-54.5 -18.5h-143v-129h158q33 0 54.5 -18t21.5 -50zM297 -95q0 -24 -16 -41t-40 -17
t-41 17t-17 41t17 40t41 16t40 -16t16 -40z" />
    <glyph glyph-name="glyph306" unicode="&#x1eb9;" horiz-adv-x="529" 
d="M512 263q1 -58 -64 -58h-274q32 -87 117 -87q39 0 79 20l42 21q12 6 31 7q22 1 41 -18.5t19 -41.5q1 -55 -86 -89q-68 -27 -134 -27q-118 -1 -192 69t-75 187q-1 115 68.5 192.5t183.5 78.5q105 1 174 -73.5t70 -180.5zM367 305q-22 91 -95 92q-72 1 -103 -92h198z
M381 589q0 -13 -10 -23t-23 -10q-4 0 -7 2l-75 27l-71 -27q-4 -2 -13 -2q-31 0 -31 32q0 22 21 29l82 29q6 3 10 3t13 -3l79 -27q25 -9 25 -30zM322 -98q1 -23 -15 -38.5t-39 -15.5q-53 0 -53 54q0 51 53 53q22 1 39 -15q14 -16 15 -38z" />
    <glyph glyph-name="glyph307" unicode="&#x1eba;" horiz-adv-x="461" 
d="M434 69q0 -32 -21.5 -50.5t-54.5 -18.5h-219q-92 0 -92 93v481q0 93 92 93h219q33 0 54.5 -18t21.5 -50t-21.5 -50.5t-54.5 -18.5h-158v-127h143q33 0 54.5 -18t21.5 -50t-21.5 -50.5t-54.5 -18.5h-143v-129h158q33 0 54.5 -18t21.5 -50zM337 851q1 -64 -67 -80v-3
q0 -34 -29 -34q-26 0 -30 32v26q0 20 26 25q33 6 34 31q1 26 -30 26q-13 0 -29.5 -17.5t-26.5 -17.5q-28 0 -28 27q0 30 29 50q26 18 57 18q39 0 66 -22.5t28 -60.5z" />
    <glyph glyph-name="glyph308" unicode="&#x1ebb;" horiz-adv-x="529" 
d="M512 263q1 -58 -64 -58h-274q32 -87 117 -87q39 0 79 20l42 21q12 6 31 7q22 1 41 -18.5t19 -41.5q1 -55 -86 -89q-68 -27 -134 -27q-118 -1 -192 69t-75 187q-1 115 68.5 192.5t183.5 78.5q105 1 174 -73.5t70 -180.5zM367 305q-22 91 -95 92q-72 1 -103 -92h198z
M356 658q1 -54 -60 -70v-3q0 -30 -26 -30q-23 0 -27 29v23q0 20 23 22q30 6 31 28q1 24 -27 24q-12 0 -26 -16t-25 -16q-25 0 -25 24q0 27 26 46q23 16 52 16q35 0 59 -21t25 -56z" />
    <glyph glyph-name="glyph309" unicode="&#x1ebc;" horiz-adv-x="461" 
d="M434 69q0 -32 -21.5 -50.5t-54.5 -18.5h-219q-92 0 -92 93v481q0 93 92 93h219q33 0 54.5 -18t21.5 -50t-21.5 -50.5t-54.5 -18.5h-158v-127h143q33 0 54.5 -18t21.5 -50t-21.5 -50.5t-54.5 -18.5h-143v-129h158q33 0 54.5 -18t21.5 -50zM377 815q0 -32 -24 -52t-57 -20
q-21 0 -60 18t-50 18t-19 -12l-8 -12q-6 -12 -24 -12q-33 0 -34 33q-1 32 23 52.5t57 21.5q28 1 56 -14l28 -15q9 -5 27 -7q8 0 22 18t29 18q34 0 34 -35z" />
    <glyph glyph-name="glyph310" unicode="&#x1ebd;" horiz-adv-x="529" 
d="M512 263q1 -58 -64 -58h-274q32 -87 117 -87q39 0 79 20l42 21q12 6 31 7q22 1 41 -18.5t19 -41.5q1 -55 -86 -89q-68 -27 -134 -27q-118 -1 -192 69t-75 187q-1 115 68.5 192.5t183.5 78.5q105 1 174 -73.5t70 -180.5zM367 305q-22 91 -95 92q-72 1 -103 -92h198z
M393 639q0 -29 -22 -47t-51 -18q-17 0 -51.5 16.5t-47.5 16.5q-10 0 -17 -11l-7 -11q-7 -11 -22 -11q-29 0 -30 30q-1 25 20 47q22 19 52 19q29 0 50 -12l25 -14q13 -5 25 -6q6 0 18.5 16t26.5 16q31 0 31 -31z" />
    <glyph glyph-name="glyph311" unicode="&#x1ebe;" horiz-adv-x="461" 
d="M434 69q0 -32 -21.5 -50.5t-54.5 -18.5h-219q-92 0 -92 93v481q0 93 92 93h219q33 0 54.5 -18t21.5 -50t-21.5 -50.5t-54.5 -18.5h-158v-127h143q33 0 54.5 -18t21.5 -50t-21.5 -50.5t-54.5 -18.5h-143v-129h158q33 0 54.5 -18t21.5 -50zM366 753q0 -15 -11 -25.5
t-26 -10.5q-4 0 -8 2l-83 30l-79 -30q-8 -3 -15 -3q-14 0 -24 11t-10 25q0 24 23 32l91 33q5 1 12 3q5 0 14 -3l88 -30q28 -10 28 -34zM542 856q0 -26 -26 -34l-108 -34q-12 -2 -18 -2q-33 0 -33 36q0 26 28 34l109 32q5 2 12 2q36 0 36 -34z" />
    <glyph glyph-name="glyph312" unicode="&#x1ebf;" horiz-adv-x="529" 
d="M512 263q1 -58 -64 -58h-274q32 -87 117 -87q39 0 79 20l42 21q12 6 31 7q22 1 41 -18.5t19 -41.5q1 -55 -86 -89q-68 -27 -134 -27q-118 -1 -192 69t-75 187q-1 115 68.5 192.5t183.5 78.5q105 1 174 -73.5t70 -180.5zM367 305q-22 91 -95 92q-72 1 -103 -92h198z
M380 588q0 -13 -10 -23t-23 -10q-4 0 -8 2l-74 27l-71 -27q-5 -2 -14 -2q-30 0 -30 32q0 22 20 29l82 29q4 1 11 3q4 0 13 -3l79 -27q25 -9 25 -30zM538 680q0 -23 -23 -30l-97 -31q-6 -1 -17 -1q-29 0 -29 32q0 23 25 30l98 29q5 2 11 2q32 0 32 -31z" />
    <glyph glyph-name="glyph313" unicode="&#x1ec0;" horiz-adv-x="461" 
d="M434 69q0 -32 -21.5 -50.5t-54.5 -18.5h-219q-92 0 -92 93v481q0 93 92 93h219q33 0 54.5 -18t21.5 -50t-21.5 -50.5t-54.5 -18.5h-158v-127h143q33 0 54.5 -18t21.5 -50t-21.5 -50.5t-54.5 -18.5h-143v-129h158q33 0 54.5 -18t21.5 -50zM368 753q0 -15 -11 -25.5
t-26 -10.5q-4 0 -8 2l-83 30l-79 -30q-8 -3 -15 -3q-14 0 -24 11t-10 25q0 24 23 32l91 33q5 1 12 3q5 0 14 -3l88 -30q28 -10 28 -34zM122 823q0 -36 -34 -36q-11 0 -17 2l-108 34q-26 8 -26 34q0 34 35 34q7 0 12 -2l111 -32q27 -8 27 -34z" />
    <glyph glyph-name="glyph314" unicode="&#x1ec1;" horiz-adv-x="529" 
d="M512 263q1 -58 -64 -58h-274q32 -87 117 -87q39 0 79 20l42 21q12 6 31 7q22 1 41 -18.5t19 -41.5q1 -55 -86 -89q-68 -27 -134 -27q-118 -1 -192 69t-75 187q-1 115 68.5 192.5t183.5 78.5q105 1 174 -73.5t70 -180.5zM367 305q-22 91 -95 92q-72 1 -103 -92h198z
M380 588q0 -13 -10 -23t-23 -10q-4 0 -7 2l-75 27l-71 -27q-5 -2 -13 -2q-31 0 -31 32q0 21 21 29l81 29q5 1 11 3q4 0 13 -3l79 -27q25 -9 25 -30zM159 651q0 -33 -31 -33q-9 0 -15 2l-97 31q-24 8 -24 30q0 31 32 31q6 0 11 -2l100 -29q24 -7 24 -30z" />
    <glyph glyph-name="glyph315" unicode="&#x1ec2;" horiz-adv-x="461" 
d="M434 69q0 -32 -21.5 -50.5t-54.5 -18.5h-219q-92 0 -92 93v481q0 93 92 93h219q33 0 54.5 -18t21.5 -50t-21.5 -50.5t-54.5 -18.5h-158v-127h143q33 0 54.5 -18t21.5 -50t-21.5 -50.5t-54.5 -18.5h-143v-129h158q33 0 54.5 -18t21.5 -50zM368 748q0 -15 -11 -25.5
t-26 -10.5q-4 0 -8 2l-83 30l-79 -30q-8 -3 -15 -3q-14 0 -24 11t-10 25q0 24 23 32l91 33q5 1 12 3q5 0 14 -3l88 -30q28 -10 28 -34zM522 861q1 -64 -67 -80v-3q0 -34 -29 -34q-26 0 -30 32v26q0 20 26 25q33 6 34 31q1 26 -30 26q-13 0 -29.5 -17.5t-26.5 -17.5
q-28 0 -28 27q0 30 29 50q26 18 57 18q39 0 66 -22.5t28 -60.5z" />
    <glyph glyph-name="glyph316" unicode="&#x1ec3;" horiz-adv-x="529" 
d="M512 263q1 -58 -64 -58h-274q32 -87 117 -87q39 0 79 20l42 21q12 6 31 7q22 1 41 -18.5t19 -41.5q1 -55 -86 -89q-68 -27 -134 -27q-118 -1 -192 69t-75 187q-1 115 68.5 192.5t183.5 78.5q105 1 174 -73.5t70 -180.5zM367 305q-22 91 -95 92q-72 1 -103 -92h198z
M380 588q0 -13 -10 -22.5t-23 -9.5q-4 0 -7 2l-75 27l-71 -27q-8 -3 -14 -3q-12 0 -21 10t-9 23q0 20 21 28l81 30q5 1 11 3q4 0 13 -3l79 -27q25 -9 25 -31zM519 688q1 -54 -61 -70v-3q0 -30 -26 -30q-24 0 -27 29v23q0 12 6 16q3 5 18 6q29 6 30 28q1 24 -27 24
q-12 0 -27 -16t-23 -16q-25 0 -25 25q0 27 26 45q23 16 51 16q35 0 59.5 -21.5t25.5 -55.5z" />
    <glyph glyph-name="glyph317" unicode="&#x1ec4;" horiz-adv-x="461" 
d="M434 69q0 -32 -21.5 -50.5t-54.5 -18.5h-219q-92 0 -92 93v481q0 93 92 93h219q33 0 54.5 -18t21.5 -50t-21.5 -50.5t-54.5 -18.5h-158v-127h143q33 0 54.5 -18t21.5 -50t-21.5 -50.5t-54.5 -18.5h-143v-129h158q33 0 54.5 -18t21.5 -50zM367 748q0 -15 -11 -25.5
t-26 -10.5q-4 0 -8 2l-83 30l-79 -30q-8 -3 -15 -3q-14 0 -24 11t-10 25q0 24 23 32l91 33q5 1 12 3q5 0 14 -3l88 -30q28 -10 28 -34zM377 909q0 -32 -24 -52t-57 -20q-21 0 -60 18t-50 18t-19 -12l-8 -12q-6 -12 -24 -12q-33 0 -34 33q-1 32 23 52.5t57 21.5q28 1 56 -14
l28 -15q9 -5 27 -7q8 0 22 18t29 18q34 0 34 -35z" />
    <glyph glyph-name="glyph318" unicode="&#x1ec5;" horiz-adv-x="529" 
d="M512 263q1 -58 -64 -58h-274q32 -87 117 -87q39 0 79 20l42 21q12 6 31 7q22 1 41 -18.5t19 -41.5q1 -55 -86 -89q-68 -27 -134 -27q-118 -1 -192 69t-75 187q-1 115 68.5 192.5t183.5 78.5q105 1 174 -73.5t70 -180.5zM367 305q-22 91 -95 92q-72 1 -103 -92h198z
M380 588q0 -32 -33 -32q-4 0 -7 2l-75 27l-71 -27q-6 -3 -13 -3q-31 0 -31 32q0 21 21 29l82 30q4 2 10 2q7 0 13 -2l79 -27q25 -9 25 -31zM389 733q0 -30 -21 -47.5t-52 -17.5q-17 0 -52 16.5t-46 16.5t-18 -11l-7 -11q-5 -11 -21 -11q-30 0 -31 30q-1 28 21 47t51 19
q28 0 50 -12l26 -14q12 -4 24 -6q7 0 19.5 16t26.5 16q30 0 30 -31z" />
    <glyph glyph-name="glyph319" unicode="&#x1ec6;" horiz-adv-x="461" 
d="M434 69q0 -32 -21.5 -50.5t-54.5 -18.5h-219q-92 0 -92 93v481q0 93 92 93h219q33 0 54.5 -18t21.5 -50t-21.5 -50.5t-54.5 -18.5h-158v-127h143q33 0 54.5 -18t21.5 -50t-21.5 -50.5t-54.5 -18.5h-143v-129h158q33 0 54.5 -18t21.5 -50zM297 -95q0 -24 -16 -41t-40 -17
t-41 17t-17 41t17 40t41 16t40 -16t16 -40zM366 753q0 -15 -11 -25.5t-26 -10.5q-4 0 -8 2l-83 30l-79 -30q-8 -3 -15 -3q-14 0 -24 11t-10 25q0 24 23 32l91 33q5 1 12 3q5 0 14 -3l88 -30q28 -10 28 -34z" />
    <glyph glyph-name="glyph320" unicode="&#x1ec7;" horiz-adv-x="529" 
d="M512 263q1 -58 -64 -58h-274q32 -87 117 -87q39 0 79 20l42 21q12 6 31 7q22 1 41 -18.5t19 -41.5q1 -55 -86 -89q-68 -27 -134 -27q-118 -1 -192 69t-75 187q-1 115 68.5 192.5t183.5 78.5q105 1 174 -73.5t70 -180.5zM367 305q-22 91 -95 92q-72 1 -103 -92h198z
M381 589q0 -13 -10 -23t-23 -10q-4 0 -7 2l-75 27l-71 -27q-4 -2 -13 -2q-31 0 -31 32q0 22 21 29l82 29q6 3 10 3t13 -3l79 -27q25 -9 25 -30zM322 -98q1 -23 -15 -38.5t-39 -15.5q-53 0 -53 54q0 51 53 53q22 1 39 -15q14 -16 15 -38z" />
    <glyph glyph-name="glyph321" unicode="&#x1ec8;" horiz-adv-x="246" 
d="M199 75q0 -83 -76 -85q-36 -1 -56.5 23.5t-20.5 61.5v517q0 37 20.5 61t56.5 24q35 0 55.5 -24.5t20.5 -60.5v-517zM220 853q1 -64 -67 -80v-3q0 -34 -29 -34q-26 0 -30 32v26q0 20 26 25q33 6 34 31q1 26 -30 26q-13 0 -29.5 -17.5t-26.5 -17.5q-28 0 -28 27q0 30 29 50
q26 18 57 18q39 0 66 -22.5t28 -60.5z" />
    <glyph glyph-name="glyph322" unicode="&#x1ec9;" horiz-adv-x="256" 
d="M200 75q0 -35 -19.5 -58t-53.5 -24t-54 23t-20 59v357q0 35 19 58t54 24q33 1 53.5 -23.5t20.5 -58.5v-357zM212 664q1 -54 -60 -70v-3q0 -30 -26 -30q-23 0 -27 29v23q0 20 23 22q30 6 31 28q1 24 -27 24q-12 0 -26 -16t-25 -16q-25 0 -25 24q0 27 26 46q23 16 52 16
q35 0 59 -21t25 -56z" />
    <glyph glyph-name="glyph323" unicode="&#x1eca;" horiz-adv-x="246" 
d="M199 75q0 -83 -76 -85q-36 -1 -56.5 23.5t-20.5 61.5v517q0 37 20.5 61t56.5 24q35 0 55.5 -24.5t20.5 -60.5v-517zM180 -109q0 -24 -16 -41t-40 -17t-41 17t-17 41t17 40t41 16t40 -16t16 -40z" />
    <glyph glyph-name="glyph324" unicode="&#x1ecb;" horiz-adv-x="256" 
d="M180 609q1 -23 -15 -38.5t-39 -15.5q-53 0 -53 54q0 51 53 53q22 1 39 -15q14 -16 15 -38zM200 75q0 -35 -19.5 -58t-53.5 -24t-54 23t-20 59v357q0 35 19 58t54 24q33 1 53.5 -23.5t20.5 -58.5v-357zM180 -98q1 -23 -15 -38.5t-39 -15.5q-53 0 -53 54q0 51 53 53
q22 1 39 -15q14 -16 15 -38z" />
    <glyph glyph-name="glyph325" unicode="&#x1ecc;" horiz-adv-x="693" 
d="M676 334q1 -153 -86 -250q-90 -100 -242 -101t-243 99q-87 97 -88 251q-1 152 89 251t241 100q150 1 241 -101q87 -97 88 -249zM513 334q0 87 -38 145q-44 67 -127 68t-128 -66q-39 -58 -40 -145q-1 -88 39 -147q45 -68 129 -69q83 -1 127 68q38 59 38 146zM407 -110
q0 -24 -16 -41t-40 -17t-41 17t-17 41t17 40t41 16t40 -16t16 -40z" />
    <glyph glyph-name="glyph326" unicode="&#x1ecd;" horiz-adv-x="526" 
d="M508 253q1 -110 -66 -185q-70 -78 -179 -78q-110 0 -177.5 76t-68.5 187t67.5 187t178.5 77q109 1 178 -78q66 -76 67 -186zM363 254q0 49 -27 85q-29 40 -76 41t-74 -41q-23 -35 -24 -85q-1 -48 24 -85q28 -42 74 -42q48 0 77 41q26 36 26 86zM322 -98q1 -23 -15 -38.5
t-39 -15.5q-53 0 -53 54q0 51 53 53q22 1 39 -15q14 -16 15 -38z" />
    <glyph glyph-name="glyph327" unicode="&#x1ece;" horiz-adv-x="693" 
d="M676 334q1 -153 -86 -250q-90 -100 -242 -101t-243 99q-87 97 -88 251q-1 152 89 251t241 100q150 1 241 -101q87 -97 88 -249zM513 334q0 87 -38 145q-44 67 -127 68t-128 -66q-39 -58 -40 -145q-1 -88 39 -147q45 -68 129 -69q83 -1 127 68q38 59 38 146zM446 859
q1 -62 -67 -78v-3q0 -34 -29 -34q-26 0 -30 32v26q0 20 26 25q33 6 34 31q1 26 -30 26q-13 0 -29.5 -17.5t-26.5 -17.5q-28 0 -28 27q0 30 29 50q26 18 57 18q39 0 66 -23t28 -62z" />
    <glyph glyph-name="glyph328" unicode="&#x1ecf;" horiz-adv-x="526" 
d="M508 253q1 -110 -66 -185q-70 -78 -179 -78q-110 0 -177.5 76t-68.5 187t67.5 187t178.5 77q109 1 178 -78q66 -76 67 -186zM363 254q0 49 -27 85q-29 40 -76 41t-74 -41q-23 -35 -24 -85q-1 -48 24 -85q28 -42 74 -42q48 0 77 41q26 36 26 86zM356 658q1 -54 -60 -70v-3
q0 -30 -26 -30q-23 0 -27 29v23q0 20 23 22q30 6 31 28q1 24 -27 24q-12 0 -26 -16t-25 -16q-25 0 -25 24q0 27 26 46q23 16 52 16q35 0 59 -21t25 -56z" />
    <glyph glyph-name="glyph329" unicode="&#x1ed0;" horiz-adv-x="693" 
d="M676 334q1 -153 -86 -250q-90 -100 -242 -101t-243 99q-87 97 -88 251q-1 152 89 251t241 100q150 1 241 -101q87 -97 88 -249zM513 334q0 87 -38 145q-44 67 -127 68t-128 -66q-39 -58 -40 -145q-1 -88 39 -147q45 -68 129 -69q83 -1 127 68q38 59 38 146zM476 757
q0 -15 -11 -25.5t-26 -10.5q-4 0 -8 2l-83 30l-79 -30q-8 -3 -15 -3q-14 0 -24 11t-10 25q0 24 23 32l91 33q5 1 12 3q5 0 14 -3l88 -30q28 -10 28 -34zM652 860q0 -26 -26 -34l-108 -34q-12 -2 -18 -2q-33 0 -33 36q0 26 28 34l109 32q5 2 12 2q36 0 36 -34z" />
    <glyph glyph-name="glyph330" unicode="&#x1ed1;" horiz-adv-x="526" 
d="M508 253q1 -110 -66 -185q-70 -78 -179 -78q-110 0 -177.5 76t-68.5 187t67.5 187t178.5 77q109 1 178 -78q66 -76 67 -186zM363 254q0 49 -27 85q-29 40 -76 41t-74 -41q-23 -35 -24 -85q-1 -48 24 -85q28 -42 74 -42q48 0 77 41q26 36 26 86zM380 588q0 -13 -10 -23
t-23 -10q-4 0 -8 2l-74 27l-71 -27q-5 -2 -14 -2q-30 0 -30 32q0 22 20 29l82 29q4 1 11 3q4 0 13 -3l79 -27q25 -9 25 -30zM538 680q0 -23 -23 -30l-97 -31q-6 -1 -17 -1q-29 0 -29 32q0 23 25 30l98 29q5 2 11 2q32 0 32 -31z" />
    <glyph glyph-name="glyph331" unicode="&#x1ed2;" horiz-adv-x="693" 
d="M676 334q1 -153 -86 -250q-90 -100 -242 -101t-243 99q-87 97 -88 251q-1 152 89 251t241 100q150 1 241 -101q87 -97 88 -249zM513 334q0 87 -38 145q-44 67 -127 68t-128 -66q-39 -58 -40 -145q-1 -88 39 -147q45 -68 129 -69q83 -1 127 68q38 59 38 146zM476 757
q0 -15 -11 -25.5t-26 -10.5q-4 0 -8 2l-83 30l-79 -30q-8 -3 -15 -3q-14 0 -24 11t-10 25q0 24 23 32l91 33q5 1 12 3q5 0 14 -3l88 -30q28 -10 28 -34zM230 827q0 -36 -34 -36q-11 0 -17 2l-108 34q-26 8 -26 34q0 34 35 34q7 0 12 -2l111 -32q27 -8 27 -34z" />
    <glyph glyph-name="glyph332" unicode="&#x1ed3;" horiz-adv-x="526" 
d="M508 253q1 -110 -66 -185q-70 -78 -179 -78q-110 0 -177.5 76t-68.5 187t67.5 187t178.5 77q109 1 178 -78q66 -76 67 -186zM363 254q0 49 -27 85q-29 40 -76 41t-74 -41q-23 -35 -24 -85q-1 -48 24 -85q28 -42 74 -42q48 0 77 41q26 36 26 86zM380 588q0 -13 -10 -23
t-23 -10q-4 0 -7 2l-75 27l-71 -27q-5 -2 -13 -2q-31 0 -31 32q0 21 21 29l81 29q5 1 11 3q4 0 13 -3l79 -27q25 -9 25 -30zM159 651q0 -33 -31 -33q-9 0 -15 2l-97 31q-24 8 -24 30q0 31 32 31q6 0 11 -2l100 -29q24 -7 24 -30z" />
    <glyph glyph-name="glyph333" unicode="&#x1ed4;" horiz-adv-x="693" 
d="M676 334q1 -153 -86 -250q-90 -100 -242 -101t-243 99q-87 97 -88 251q-1 152 89 251t241 100q150 1 241 -101q87 -97 88 -249zM513 334q0 87 -38 145q-44 67 -127 68t-128 -66q-39 -58 -40 -145q-1 -88 39 -147q45 -68 129 -69q83 -1 127 68q38 59 38 146zM478 758
q0 -15 -11 -25.5t-26 -10.5q-4 0 -8 2l-83 30l-79 -30q-8 -3 -15 -3q-14 0 -24 11t-10 25q0 24 23 32l91 33q5 1 12 3q5 0 14 -3l88 -30q28 -10 28 -34zM632 869q1 -62 -67 -78v-3q0 -34 -29 -34q-26 0 -30 32v26q0 20 26 25q33 6 34 31q1 26 -30 26q-13 0 -29.5 -17.5
t-26.5 -17.5q-28 0 -28 27q0 30 29 50q26 18 57 18q39 0 66 -23t28 -62z" />
    <glyph glyph-name="glyph334" unicode="&#x1ed5;" horiz-adv-x="526" 
d="M508 253q1 -110 -66 -185q-70 -78 -179 -78q-110 0 -177.5 76t-68.5 187t67.5 187t178.5 77q109 1 178 -78q66 -76 67 -186zM363 254q0 49 -27 85q-29 40 -76 41t-74 -41q-23 -35 -24 -85q-1 -48 24 -85q28 -42 74 -42q48 0 77 41q26 36 26 86zM380 588q0 -13 -10 -22.5
t-23 -9.5q-4 0 -7 2l-75 27l-71 -27q-8 -3 -14 -3q-12 0 -21 10t-9 23q0 20 21 28l81 30q5 1 11 3q4 0 13 -3l79 -27q25 -9 25 -31zM519 688q1 -54 -61 -70v-3q0 -30 -26 -30q-24 0 -27 29v23q0 12 6 16q3 5 18 6q29 6 30 28q1 24 -27 24q-12 0 -27 -16t-23 -16
q-25 0 -25 25q0 27 26 45q23 16 51 16q35 0 59.5 -21.5t25.5 -55.5z" />
    <glyph glyph-name="glyph335" unicode="&#x1ed6;" horiz-adv-x="693" 
d="M676 334q1 -153 -86 -250q-90 -100 -242 -101t-243 99q-87 97 -88 251q-1 152 89 251t241 100q150 1 241 -101q87 -97 88 -249zM513 334q0 87 -38 145q-44 67 -127 68t-128 -66q-39 -58 -40 -145q-1 -88 39 -147q45 -68 129 -69q83 -1 127 68q38 59 38 146zM478 758
q0 -15 -11 -25.5t-26 -10.5q-4 0 -8 2l-83 30l-79 -30q-8 -3 -15 -3q-14 0 -24 11t-10 25q0 24 23 32l91 33q5 1 12 3q5 0 14 -3l88 -30q28 -10 28 -34zM488 919q0 -32 -24 -52t-57 -20q-21 0 -60 18t-50 18t-19 -12l-8 -12q-6 -12 -24 -12q-33 0 -34 33q-1 32 23 52.5
t57 21.5q28 1 56 -14l28 -15q9 -5 27 -7q8 0 22 18t29 18q34 0 34 -35z" />
    <glyph glyph-name="glyph336" unicode="&#x1ed7;" horiz-adv-x="526" 
d="M508 253q1 -110 -66 -185q-70 -78 -179 -78q-110 0 -177.5 76t-68.5 187t67.5 187t178.5 77q109 1 178 -78q66 -76 67 -186zM363 254q0 49 -27 85q-29 40 -76 41t-74 -41q-23 -35 -24 -85q-1 -48 24 -85q28 -42 74 -42q48 0 77 41q26 36 26 86zM380 588q0 -32 -33 -32
q-4 0 -7 2l-75 27l-71 -27q-6 -3 -13 -3q-31 0 -31 32q0 21 21 29l82 30q4 2 10 2q7 0 13 -2l79 -27q25 -9 25 -31zM389 733q0 -30 -21 -47.5t-52 -17.5q-17 0 -52 16.5t-46 16.5t-18 -11l-7 -11q-5 -11 -21 -11q-30 0 -31 30q-1 28 21 47t51 19q28 0 50 -12l26 -14
q12 -4 24 -6q7 0 19.5 16t26.5 16q30 0 30 -31z" />
    <glyph glyph-name="glyph337" unicode="&#x1ed8;" horiz-adv-x="693" 
d="M676 334q1 -153 -86 -250q-90 -100 -242 -101t-243 99q-87 97 -88 251q-1 152 89 251t241 100q150 1 241 -101q87 -97 88 -249zM513 334q0 87 -38 145q-44 67 -127 68t-128 -66q-39 -58 -40 -145q-1 -88 39 -147q45 -68 129 -69q83 -1 127 68q38 59 38 146zM477 758
q0 -15 -11 -25.5t-26 -10.5q-4 0 -8 2l-83 30l-79 -30q-8 -3 -15 -3q-14 0 -24 11t-10 25q0 24 23 32l91 33q5 1 12 3q5 0 14 -3l88 -30q28 -10 28 -34zM407 -110q0 -24 -16 -41t-40 -17t-41 17t-17 41t17 40t41 16t40 -16t16 -40z" />
    <glyph glyph-name="glyph338" unicode="&#x1ed9;" horiz-adv-x="526" 
d="M508 253q1 -110 -66 -185q-70 -78 -179 -78q-110 0 -177.5 76t-68.5 187t67.5 187t178.5 77q109 1 178 -78q66 -76 67 -186zM363 254q0 49 -27 85q-29 40 -76 41t-74 -41q-23 -35 -24 -85q-1 -48 24 -85q28 -42 74 -42q48 0 77 41q26 36 26 86zM381 589q0 -13 -10 -23
t-23 -10q-4 0 -7 2l-75 27l-71 -27q-4 -2 -13 -2q-31 0 -31 32q0 22 21 29l82 29q6 3 10 3t13 -3l79 -27q25 -9 25 -30zM322 -98q1 -23 -15 -38.5t-39 -15.5q-53 0 -53 54q0 51 53 53q22 1 39 -15q14 -16 15 -38z" />
    <glyph glyph-name="glyph339" unicode="&#x1eda;" horiz-adv-x="693" 
d="M534 819q0 -26 -26 -34l-108 -34q-12 -2 -18 -2q-33 0 -33 36q0 26 28 34l109 32q5 2 12 2q36 0 36 -34zM513 334q0 87 -38 145q-44 67 -127 68t-128 -66q-39 -58 -40 -145q-1 -88 39 -147q45 -68 129 -69q83 -1 127 68q38 59 38 146zM552 616q12 12 20 16l21 16
q10 6 15 15q2 8 -3 19t-5 16q0 18 19 26q13 0 22 -3q18 -10 23 -35q5 -24 -9 -48q-10 -17 -34 -35l-30 -24q84 -95 85 -245q1 -153 -86 -250q-90 -100 -242 -101t-243 99q-87 97 -88 251q-1 152 89 251t241 100q121 1 205 -68z" />
    <glyph glyph-name="glyph340" unicode="&#x1edb;" horiz-adv-x="524" 
d="M433 645q0 -24 -24 -31l-97 -30q-10 -2 -16 -2q-12 0 -21 10t-9 22q0 24 25 31l98 29q5 2 11 2q33 0 33 -31zM363 254q0 49 -27 85q-29 40 -76 41t-74 -41q-23 -35 -24 -85q-1 -48 24 -85q28 -42 74 -42q48 0 77 41q26 36 26 86zM412 465q2 2 5.5 4.5t4.5 3.5l19 14
q11 11 13 15q4 8 -4 19q-6 9 0 21q6 9 14 13q11 3 20 0q17 -6 22 -26q8 -34 -32 -68q-27 -23 -30 -26q63 -74 64 -182q1 -110 -66 -185q-70 -78 -179 -78q-110 0 -177.5 76t-68.5 187t67.5 187t178.5 77q86 1 149 -52z" />
    <glyph glyph-name="glyph341" unicode="&#x1edc;" horiz-adv-x="693" 
d="M350 784q0 -36 -34 -36q-11 0 -17 2l-108 34q-26 8 -26 34q0 34 35 34q7 0 12 -2l111 -32q27 -8 27 -34zM513 334q0 87 -38 145q-44 67 -127 68t-128 -66q-39 -58 -40 -145q-1 -88 39 -147q45 -68 129 -69q83 -1 127 68q38 59 38 146zM552 616q12 12 20 16l21 16
q10 6 15 15q2 8 -3 19t-5 16q0 18 19 26q13 0 22 -3q18 -10 23 -35q5 -24 -9 -48q-10 -17 -34 -35l-30 -24q84 -95 85 -245q1 -153 -86 -250q-90 -100 -242 -101t-243 99q-87 97 -88 251q-1 152 89 251t241 100q121 1 205 -68z" />
    <glyph glyph-name="glyph342" unicode="&#x1edd;" horiz-adv-x="524" 
d="M265 609q0 -15 -4 -19q-8 -9 -22 -9q-9 0 -15 2l-97 30q-24 7 -24 31q0 31 32 31q6 0 11 -2l99 -29q20 -6 20 -35zM363 254q0 49 -27 85q-29 40 -76 41t-74 -41q-23 -35 -24 -85q-1 -48 24 -85q28 -42 74 -42q48 0 77 41q26 36 26 86zM412 465q2 2 5.5 4.5t4.5 3.5l19 14
q11 11 13 15q4 8 -4 19q-6 9 0 21q6 9 14 13q11 3 20 0q17 -6 22 -26q8 -34 -32 -68q-27 -23 -30 -26q63 -74 64 -182q1 -110 -66 -185q-70 -78 -179 -78q-110 0 -177.5 76t-68.5 187t67.5 187t178.5 77q86 1 149 -52z" />
    <glyph glyph-name="glyph343" unicode="&#x1ede;" horiz-adv-x="693" 
d="M446 864q1 -62 -67 -78v-3q0 -34 -29 -34q-26 0 -30 32v26q0 20 26 25q33 6 34 31q1 26 -30 26q-13 0 -29.5 -17.5t-26.5 -17.5q-28 0 -28 27q0 30 29 50q26 18 57 18q39 0 66 -23t28 -62zM513 334q0 87 -38 145q-44 67 -127 68t-128 -66q-39 -58 -40 -145
q-1 -88 39 -147q45 -68 129 -69q83 -1 127 68q38 59 38 146zM552 616q12 12 20 16l21 16q10 6 15 15q2 8 -3 19t-5 16q0 18 19 26q13 0 22 -3q18 -10 23 -35q5 -24 -9 -48q-10 -17 -34 -35l-30 -24q84 -95 85 -245q1 -153 -86 -250q-90 -100 -242 -101t-243 99
q-87 97 -88 251q-1 152 89 251t241 100q121 1 205 -68z" />
    <glyph glyph-name="glyph344" unicode="&#x1edf;" horiz-adv-x="524" 
d="M356 658q1 -54 -60 -70v-3q0 -30 -26 -30q-23 0 -27 29v23q0 20 23 22q30 6 31 28q1 24 -27 24q-12 0 -26 -16t-25 -16q-25 0 -25 24q0 27 26 46q23 16 52 16q35 0 59 -21t25 -56zM363 254q0 49 -27 85q-29 40 -76 41t-74 -41q-23 -35 -24 -85q-1 -48 24 -85
q28 -42 74 -42q48 0 77 41q26 36 26 86zM412 465q2 2 5.5 4.5t4.5 3.5l19 14q11 11 13 15q4 8 -4 19q-6 9 0 21q6 9 14 13q11 3 20 0q17 -6 22 -26q8 -34 -32 -68q-27 -23 -30 -26q63 -74 64 -182q1 -110 -66 -185q-70 -78 -179 -78q-110 0 -177.5 76t-68.5 187t67.5 187
t178.5 77q86 1 149 -52z" />
    <glyph glyph-name="glyph345" unicode="&#x1ee0;" horiz-adv-x="693" 
d="M487 828q0 -32 -24 -52t-57 -20q-21 0 -60 18t-50 18t-19 -12l-8 -12q-6 -12 -24 -12q-33 0 -34 33q-1 32 23 52.5t57 21.5q28 1 56 -14l28 -15q9 -5 27 -7q8 0 22 18t29 18q34 0 34 -35zM513 334q0 87 -38 145q-44 67 -127 68t-128 -66q-39 -58 -40 -145q-1 -88 39 -147
q45 -68 129 -69q83 -1 127 68q38 59 38 146zM552 616q12 12 20 16l21 16q10 6 15 15q2 8 -3 19t-5 16q0 18 19 26q13 0 22 -3q18 -10 23 -35q5 -24 -9 -48q-10 -17 -34 -35l-30 -24q84 -95 85 -245q1 -153 -86 -250q-90 -100 -242 -101t-243 99q-87 97 -88 251
q-1 152 89 251t241 100q121 1 205 -68z" />
    <glyph glyph-name="glyph346" unicode="&#x1ee1;" horiz-adv-x="524" 
d="M391 649q0 -29 -22 -47t-51 -18q-17 0 -51.5 16.5t-47.5 16.5q-10 0 -17 -11l-7 -11q-7 -11 -22 -11q-29 0 -30 30q-1 25 20 47q22 19 52 19q29 0 50 -12l25 -14q13 -5 25 -6q6 0 18.5 16t26.5 16q31 0 31 -31zM363 254q0 49 -27 85q-29 40 -76 41t-74 -41
q-23 -35 -24 -85q-1 -48 24 -85q28 -42 74 -42q48 0 77 41q26 36 26 86zM412 465q2 2 5.5 4.5t4.5 3.5l19 14q11 11 13 15q4 8 -4 19q-6 9 0 21q6 9 14 13q11 3 20 0q17 -6 22 -26q8 -34 -32 -68q-27 -23 -30 -26q63 -74 64 -182q1 -110 -66 -185q-70 -78 -179 -78
q-110 0 -177.5 76t-68.5 187t67.5 187t178.5 77q86 1 149 -52z" />
    <glyph glyph-name="glyph347" unicode="&#x1ee2;" horiz-adv-x="693" 
d="M407 -110q0 -24 -16 -41t-40 -17t-41 17t-17 41t17 40t41 16t40 -16t16 -40zM513 334q0 87 -38 145q-44 67 -127 68t-128 -66q-39 -58 -40 -145q-1 -88 39 -147q45 -68 129 -69q83 -1 127 68q38 59 38 146zM552 616q12 12 20 16l21 16q10 6 15 15q2 8 -3 19t-5 16
q0 18 19 26q13 0 22 -3q18 -10 23 -35q5 -24 -9 -48q-10 -17 -34 -35l-30 -24q84 -95 85 -245q1 -153 -86 -250q-90 -100 -242 -101t-243 99q-87 97 -88 251q-1 152 89 251t241 100q121 1 205 -68z" />
    <glyph glyph-name="glyph348" unicode="&#x1ee3;" horiz-adv-x="524" 
d="M322 -98q1 -23 -15 -38.5t-39 -15.5q-53 0 -53 54q0 51 53 53q22 1 39 -15q14 -16 15 -38zM363 254q0 49 -27 85q-29 40 -76 41t-74 -41q-23 -35 -24 -85q-1 -48 24 -85q28 -42 74 -42q48 0 77 41q26 36 26 86zM412 465q2 2 5.5 4.5t4.5 3.5l19 14q11 11 13 15q4 8 -4 19
q-6 9 0 21q6 9 14 13q11 3 20 0q17 -6 22 -26q8 -34 -32 -68q-27 -23 -30 -26q63 -74 64 -182q1 -110 -66 -185q-70 -78 -179 -78q-110 0 -177.5 76t-68.5 187t67.5 187t178.5 77q86 1 149 -52z" />
    <glyph glyph-name="glyph349" unicode="&#x1ee4;" horiz-adv-x="660" 
d="M620 293q0 -143 -73 -224q-76 -85 -218 -86q-122 -1 -204 73q-85 76 -85 197v339q0 37 20.5 61t56.5 24q35 0 55.5 -24.5t20.5 -60.5v-317q0 -67 35.5 -108t101.5 -41q137 -1 137 167v299q0 37 20.5 61t56.5 24q35 0 55.5 -24.5t20.5 -60.5v-299zM387 -110q0 -24 -16 -41
t-40 -17t-41 17t-17 41t17 40t41 16t40 -16t16 -40z" />
    <glyph glyph-name="glyph350" unicode="&#x1ee5;" horiz-adv-x="542" 
d="M499 198q0 -98 -64.5 -153t-163.5 -55q-100 0 -162 53q-66 56 -66 155v234q0 35 19 58t54 24q33 1 53.5 -23.5t20.5 -58.5v-216q0 -84 81 -86q38 -1 59.5 23t21.5 63v216q0 80 74 82q33 1 53 -24t20 -58v-234zM322 -98q1 -23 -15 -38.5t-39 -15.5q-53 0 -53 54
q0 51 53 53q22 1 39 -15q14 -16 15 -38z" />
    <glyph glyph-name="glyph351" unicode="&#x1ee6;" horiz-adv-x="660" 
d="M620 293q0 -143 -73 -224q-76 -85 -218 -86q-122 -1 -204 73q-85 76 -85 197v339q0 37 20.5 61t56.5 24q35 0 55.5 -24.5t20.5 -60.5v-317q0 -67 35.5 -108t101.5 -41q137 -1 137 167v299q0 37 20.5 61t56.5 24q35 0 55.5 -24.5t20.5 -60.5v-299zM427 841q1 -64 -67 -80
v-3q0 -34 -29 -34q-26 0 -30 32v26q0 20 26 25q33 6 34 31q1 26 -30 26q-13 0 -29.5 -17.5t-26.5 -17.5q-28 0 -28 27q0 30 29 50q26 18 57 18q39 0 66 -22.5t28 -60.5z" />
    <glyph glyph-name="glyph352" unicode="&#x1ee7;" horiz-adv-x="542" 
d="M499 198q0 -98 -64.5 -153t-163.5 -55q-100 0 -162 53q-66 56 -66 155v234q0 35 19 58t54 24q33 1 53.5 -23.5t20.5 -58.5v-216q0 -84 81 -86q38 -1 59.5 23t21.5 63v216q0 80 74 82q33 1 53 -24t20 -58v-234zM356 658q1 -54 -60 -70v-3q0 -30 -26 -30q-23 0 -27 29v23
q0 20 23 22q30 6 31 28q1 24 -27 24q-12 0 -26 -16t-25 -16q-25 0 -25 24q0 27 26 46q23 16 52 16q35 0 59 -21t25 -56z" />
    <glyph glyph-name="glyph353" unicode="&#x1ee8;" horiz-adv-x="660" 
d="M514 801q0 -26 -26 -34l-108 -34q-12 -2 -18 -2q-33 0 -33 36q0 26 28 34l109 32q5 2 12 2q36 0 36 -34zM620 585v-292q0 -143 -73 -224q-76 -85 -218 -86q-122 -1 -204 73q-85 76 -85 197v339q0 37 20.5 61t56.5 24q35 0 55.5 -24.5t20.5 -60.5v-317q0 -67 35.5 -108
t101.5 -41q137 -1 137 167v299q0 37 20.5 61t56.5 24q38 0 64 -35l8 6q10 6 15 15q2 8 -3 19t-5 16q0 18 19 26q13 0 22 -3q18 -10 23 -35q9 -45 -43 -83z" />
    <glyph glyph-name="glyph354" unicode="&#x1ee9;" horiz-adv-x="542" 
d="M433 640q0 -24 -24 -31l-97 -30q-10 -2 -16 -2q-12 0 -21 10t-9 22q0 24 25 31l98 29q5 2 11 2q33 0 33 -31zM499 439v-241q0 -98 -64.5 -153t-163.5 -55q-100 0 -162 53q-66 56 -66 155v234q0 35 19 58t54 24q33 1 53.5 -23.5t20.5 -58.5v-216q0 -84 81 -86
q38 -1 59.5 23t21.5 63v216q0 80 74 82q37 1 59 -32l7 5q11 11 13 15q4 8 -4 19q-6 9 0 21q6 9 14 13q11 3 20 0q17 -6 22 -26q9 -35 -30 -67q-13 -10 -28 -23z" />
    <glyph glyph-name="glyph355" unicode="&#x1eea;" horiz-adv-x="660" 
d="M330 766q0 -36 -34 -36q-11 0 -17 2l-108 34q-26 8 -26 34q0 34 35 34q7 0 12 -2l111 -32q27 -8 27 -34zM620 585v-292q0 -143 -73 -224q-76 -85 -218 -86q-122 -1 -204 73q-85 76 -85 197v339q0 37 20.5 61t56.5 24q35 0 55.5 -24.5t20.5 -60.5v-317q0 -67 35.5 -108
t101.5 -41q137 -1 137 167v299q0 37 20.5 61t56.5 24q38 0 64 -35l8 6q10 6 15 15q2 8 -3 19t-5 16q0 18 19 26q13 0 22 -3q18 -10 23 -35q9 -45 -43 -83z" />
    <glyph glyph-name="glyph356" unicode="&#x1eeb;" horiz-adv-x="542" 
d="M265 604q0 -15 -4 -19q-8 -9 -22 -9q-9 0 -15 2l-97 30q-24 7 -24 31q0 31 32 31q6 0 11 -2l99 -29q20 -6 20 -35zM499 439v-241q0 -98 -64.5 -153t-163.5 -55q-100 0 -162 53q-66 56 -66 155v234q0 35 19 58t54 24q33 1 53.5 -23.5t20.5 -58.5v-216q0 -84 81 -86
q38 -1 59.5 23t21.5 63v216q0 80 74 82q37 1 59 -32l7 5q11 11 13 15q4 8 -4 19q-6 9 0 21q6 9 14 13q11 3 20 0q17 -6 22 -26q9 -35 -30 -67q-13 -10 -28 -23z" />
    <glyph glyph-name="glyph357" unicode="&#x1eec;" horiz-adv-x="660" 
d="M427 846q1 -64 -67 -80v-3q0 -34 -29 -34q-26 0 -30 32v26q0 20 26 25q33 6 34 31q1 26 -30 26q-13 0 -29.5 -17.5t-26.5 -17.5q-28 0 -28 27q0 30 29 50q26 18 57 18q39 0 66 -22.5t28 -60.5zM620 585v-292q0 -143 -73 -224q-76 -85 -218 -86q-122 -1 -204 73
q-85 76 -85 197v339q0 37 20.5 61t56.5 24q35 0 55.5 -24.5t20.5 -60.5v-317q0 -67 35.5 -108t101.5 -41q137 -1 137 167v299q0 37 20.5 61t56.5 24q38 0 64 -35l8 6q10 6 15 15q2 8 -3 19t-5 16q0 18 19 26q13 0 22 -3q18 -10 23 -35q9 -45 -43 -83z" />
    <glyph glyph-name="glyph358" unicode="&#x1eed;" horiz-adv-x="542" 
d="M356 663q1 -54 -60 -70v-3q0 -30 -26 -30q-23 0 -27 29v23q0 20 23 22q30 6 31 28q1 24 -27 24q-12 0 -26 -16t-25 -16q-25 0 -25 24q0 27 26 46q23 16 52 16q35 0 59 -21t25 -56zM499 439v-241q0 -98 -64.5 -153t-163.5 -55q-100 0 -162 53q-66 56 -66 155v234
q0 35 19 58t54 24q33 1 53.5 -23.5t20.5 -58.5v-216q0 -84 81 -86q38 -1 59.5 23t21.5 63v216q0 80 74 82q37 1 59 -32l7 5q11 11 13 15q4 8 -4 19q-6 9 0 21q6 9 14 13q11 3 20 0q17 -6 22 -26q9 -35 -30 -67q-13 -10 -28 -23z" />
    <glyph glyph-name="glyph359" unicode="&#x1eee;" horiz-adv-x="660" 
d="M467 810q0 -32 -24 -52t-57 -20q-21 0 -60 18t-50 18t-19 -12l-8 -12q-6 -12 -24 -12q-33 0 -34 33q-1 32 23 52.5t57 21.5q28 1 56 -14l28 -15q9 -5 27 -7q8 0 22 18t29 18q34 0 34 -35zM620 585v-292q0 -143 -73 -224q-76 -85 -218 -86q-122 -1 -204 73q-85 76 -85 197
v339q0 37 20.5 61t56.5 24q35 0 55.5 -24.5t20.5 -60.5v-317q0 -67 35.5 -108t101.5 -41q137 -1 137 167v299q0 37 20.5 61t56.5 24q38 0 64 -35l8 6q10 6 15 15q2 8 -3 19t-5 16q0 18 19 26q13 0 22 -3q18 -10 23 -35q9 -45 -43 -83z" />
    <glyph glyph-name="glyph360" unicode="&#x1eef;" horiz-adv-x="542" 
d="M393 644q0 -29 -22 -47t-51 -18q-17 0 -51.5 16.5t-47.5 16.5q-10 0 -17 -11l-7 -11q-7 -11 -22 -11q-29 0 -30 30q-1 25 20 47q22 19 52 19q29 0 50 -12l25 -14q13 -5 25 -6q6 0 18.5 16t26.5 16q31 0 31 -31zM499 439v-241q0 -98 -64.5 -153t-163.5 -55q-100 0 -162 53
q-66 56 -66 155v234q0 35 19 58t54 24q33 1 53.5 -23.5t20.5 -58.5v-216q0 -84 81 -86q38 -1 59.5 23t21.5 63v216q0 80 74 82q37 1 59 -32l7 5q11 11 13 15q4 8 -4 19q-6 9 0 21q6 9 14 13q11 3 20 0q17 -6 22 -26q9 -35 -30 -67q-13 -10 -28 -23z" />
    <glyph glyph-name="glyph361" unicode="&#x1ef0;" horiz-adv-x="660" 
d="M387 -110q0 -24 -16 -41t-40 -17t-41 17t-17 41t17 40t41 16t40 -16t16 -40zM620 585v-292q0 -143 -73 -224q-76 -85 -218 -86q-122 -1 -204 73q-85 76 -85 197v339q0 37 20.5 61t56.5 24q35 0 55.5 -24.5t20.5 -60.5v-317q0 -67 35.5 -108t101.5 -41q137 -1 137 167v299
q0 37 20.5 61t56.5 24q38 0 64 -35l8 6q10 6 15 15q2 8 -3 19t-5 16q0 18 19 26q13 0 22 -3q18 -10 23 -35q9 -45 -43 -83z" />
    <glyph glyph-name="glyph362" unicode="&#x1ef1;" horiz-adv-x="542" 
d="M322 -98q1 -23 -15 -38.5t-39 -15.5q-53 0 -53 54q0 51 53 53q22 1 39 -15q14 -16 15 -38zM499 439v-241q0 -98 -64.5 -153t-163.5 -55q-100 0 -162 53q-66 56 -66 155v234q0 35 19 58t54 24q33 1 53.5 -23.5t20.5 -58.5v-216q0 -84 81 -86q38 -1 59.5 23t21.5 63v216
q0 80 74 82q37 1 59 -32l7 5q11 11 13 15q4 8 -4 19q-6 9 0 21q6 9 14 13q11 3 20 0q17 -6 22 -26q9 -35 -30 -67q-13 -10 -28 -23z" />
    <glyph glyph-name="glyph363" unicode="&#x1ef2;" horiz-adv-x="576" 
d="M557 604q0 -29 -31 -70l-166 -219v-240q0 -83 -76 -85q-36 -1 -56.5 23.5t-20.5 61.5v240l-161 220q-28 38 -29 69q-1 30 23 51t54 22q41 1 67 -40l9 -14l114 -162l128 177q28 39 67 39q30 0 54 -21.5t24 -51.5zM286 760q0 -36 -34 -36q-11 0 -17 2l-108 34q-26 8 -26 34
q0 34 35 34q7 0 12 -2l111 -32q27 -8 27 -34z" />
    <glyph glyph-name="glyph364" unicode="&#x1ef3;" horiz-adv-x="497" 
d="M486 442q1 -19 -8 -39l-7 -16l-230 -549q-21 -51 -71 -52q-29 -1 -50.5 19.5t-22.5 50.5q-1 16 9 40l6 15l58 135l-151 358q-9 21 -9 39q0 29 22 50t51 21q51 0 78 -69l86 -218l86 217q28 70 79 70q30 0 51.5 -21t22.5 -51zM246 582q0 -15 -4 -19q-8 -9 -22 -9
q-9 0 -15 2l-97 30q-24 7 -24 31q0 31 32 31q6 0 11 -2l99 -29q20 -6 20 -35z" />
    <glyph glyph-name="glyph365" unicode="&#x1ef4;" horiz-adv-x="576" 
d="M557 604q0 -29 -31 -70l-166 -219v-240q0 -83 -76 -85q-36 -1 -56.5 23.5t-20.5 61.5v240l-161 220q-28 38 -29 69q-1 30 23 51t54 22q41 1 67 -40l9 -14l114 -162l128 177q28 39 67 39q30 0 54 -21.5t24 -51.5zM339 -102q0 -24 -16 -41t-40 -17t-41 17t-17 41t17 40
t41 16t40 -16t16 -40z" />
    <glyph glyph-name="glyph366" unicode="&#x1ef5;" horiz-adv-x="497" 
d="M494 442q1 -19 -8 -39l-7 -16l-230 -549q-21 -51 -71 -52q-29 -1 -50.5 19.5t-22.5 50.5q-1 16 9 40l6 15l58 135l-151 358q-9 21 -9 39q0 29 22 50t51 21q51 0 78 -69l86 -218l86 217q28 70 79 70q30 0 51.5 -21t22.5 -51zM446 -98q1 -23 -15 -38.5t-39 -15.5
q-53 0 -53 54q0 51 53 53q22 1 39 -15q14 -16 15 -38z" />
    <glyph glyph-name="glyph367" unicode="&#x1ef6;" horiz-adv-x="576" 
d="M557 604q0 -29 -31 -70l-166 -219v-240q0 -83 -76 -85q-36 -1 -56.5 23.5t-20.5 61.5v240l-161 220q-28 38 -29 69q-1 30 23 51t54 22q41 1 67 -40l9 -14l114 -162l128 177q28 39 67 39q30 0 54 -21.5t24 -51.5zM383 841q1 -64 -67 -80v-3q0 -34 -29 -34q-26 0 -30 32v26
q0 20 26 25q33 6 34 31q1 26 -30 26q-13 0 -29.5 -17.5t-26.5 -17.5q-28 0 -28 27q0 30 29 50q26 18 57 18q39 0 66 -22.5t28 -60.5z" />
    <glyph glyph-name="glyph368" unicode="&#x1ef7;" horiz-adv-x="497" 
d="M486 442q1 -19 -8 -39l-7 -16l-230 -549q-21 -51 -71 -52q-29 -1 -50.5 19.5t-22.5 50.5q-1 16 9 40l6 15l58 135l-151 358q-9 21 -9 39q0 29 22 50t51 21q51 0 78 -69l86 -218l86 217q28 70 79 70q30 0 51.5 -21t22.5 -51zM334 645q1 -54 -60 -70v-3q0 -30 -26 -30
q-23 0 -27 29v23q0 20 23 22q30 6 31 28q1 24 -27 24q-12 0 -26 -16t-25 -16q-25 0 -25 24q0 27 26 46q23 16 52 16q35 0 59 -21t25 -56z" />
    <glyph glyph-name="glyph369" unicode="&#x1ef8;" horiz-adv-x="576" 
d="M557 604q0 -29 -31 -70l-166 -219v-240q0 -83 -76 -85q-36 -1 -56.5 23.5t-20.5 61.5v240l-161 220q-28 38 -29 69q-1 30 23 51t54 22q41 1 67 -40l9 -14l114 -162l128 177q28 39 67 39q30 0 54 -21.5t24 -51.5zM422 805q0 -32 -24 -52t-57 -20q-21 0 -60 18t-50 18
t-19 -12l-8 -12q-6 -12 -24 -12q-33 0 -34 33q-1 32 23 52.5t57 21.5q28 1 56 -14l28 -15q9 -5 27 -7q8 0 22 18t29 18q34 0 34 -35z" />
    <glyph glyph-name="glyph370" unicode="&#x1ef9;" horiz-adv-x="497" 
d="M486 442q1 -19 -8 -39l-7 -16l-230 -549q-21 -51 -71 -52q-29 -1 -50.5 19.5t-22.5 50.5q-1 16 9 40l6 15l58 135l-151 358q-9 21 -9 39q0 29 22 50t51 21q51 0 78 -69l86 -218l86 217q28 70 79 70q30 0 51.5 -21t22.5 -51zM379 620q0 -29 -22 -47t-51 -18
q-17 0 -51.5 16.5t-47.5 16.5q-10 0 -17 -11l-7 -11q-7 -11 -22 -11q-29 0 -30 30q-1 25 20 47q22 19 52 19q29 0 50 -12l25 -14q13 -5 25 -6q6 0 18.5 16t26.5 16q31 0 31 -31z" />
  </font>
</defs>
</svg>
